<?xml version="1.0" standalone="no"?>
<!DOCTYPE svg PUBLIC "-//W3C//DTD SVG 20010904//EN"
 "http://www.w3.org/TR/2001/REC-SVG-20010904/DTD/svg10.dtd">
<svg version="1.0" xmlns="http://www.w3.org/2000/svg"
 width="204.000000pt" height="192.000000pt" viewBox="0 0 204.000000 192.000000"
 preserveAspectRatio="xMidYMid meet">

<g transform="translate(0.000000,192.000000) scale(0.100000,-0.100000)"
fill="#000000" stroke="none">
<path d="M1068 1731 c-31 -3 -59 -9 -63 -12 -3 -4 7 -67 22 -141 l27 -136 86
0 c166 -1 299 -70 391 -204 63 -92 84 -161 83 -275 l-1 -92 56 -60 56 -61 77
12 c51 7 79 16 83 26 3 8 11 56 17 106 9 77 9 106 -5 189 -39 227 -157 411
-337 527 -100 63 -147 84 -241 103 -92 19 -177 25 -251 18z m296 -87 c9 -3 16
-12 16 -19 0 -10 -6 -11 -29 -2 -36 13 -61 -3 -61 -39 0 -20 24 -44 44 -44 12
0 6 38 -6 43 -21 7 -4 17 20 10 25 -6 26 -11 12 -48 -9 -23 -14 -26 -38 -20
-50 12 -67 59 -36 103 15 22 47 28 78 16z m90 -70 c9 -8 16 -23 16 -31 0 -22
-29 -53 -50 -53 -39 0 -53 49 -23 82 20 22 37 23 57 2z m51 -54 c-7 -34 0 -38
27 -13 10 9 21 13 25 9 9 -9 -56 -65 -74 -66 -16 0 -16 13 -2 63 12 44 34 51
24 7z m99 -46 c18 -18 20 -32 6 -54 -7 -12 -13 -11 -34 10 -23 21 -26 21 -26
5 0 -10 8 -24 18 -31 14 -11 15 -13 2 -14 -42 -1 -54 59 -18 84 28 20 33 20
52 0z m62 -68 c20 -20 19 -43 -1 -26 -12 10 -20 9 -40 -4 -50 -33 -62 -13 -12
22 38 26 35 26 53 8z m44 -68 c22 -28 17 -42 -26 -67 -28 -17 -34 -18 -34 -5
0 8 11 20 25 26 32 14 34 42 3 35 -13 -2 -31 -8 -40 -12 -28 -11 -21 8 10 27
36 22 41 22 62 -4z m50 -108 c0 -21 -17 -36 -51 -45 -21 -5 -27 -2 -38 21 -10
23 -10 30 3 43 14 13 18 12 42 -10 l26 -24 -8 30 c-7 27 -6 29 9 16 10 -7 17
-21 17 -31z m22 -84 c7 -36 -4 -47 -52 -53 -31 -4 -41 -3 -36 5 4 7 17 12 29
12 30 0 51 15 43 29 -5 7 -20 9 -42 5 -19 -3 -34 -2 -34 3 0 17 13 23 51 23
31 0 37 -4 41 -24z m6 -105 c2 -13 -2 -28 -8 -35 -9 -8 -11 -5 -8 14 2 21 -2
26 -25 28 -23 3 -28 0 -25 -16 4 -23 -16 -30 -20 -7 -7 33 6 46 45 43 31 -2
39 -7 41 -27z m-17 -60 c21 -16 22 -22 11 -45 -17 -38 -52 -35 -52 4 0 17 -4
30 -10 30 -5 0 -10 -11 -10 -25 0 -14 -4 -25 -10 -25 -16 0 -12 47 6 64 20 21
37 20 65 -3z"/>
<path d="M1407 1563 c-13 -13 -7 -53 8 -53 17 0 39 36 30 50 -7 11 -28 13 -38
3z"/>
<path d="M1572 1459 c2 -7 10 -15 17 -17 8 -3 12 1 9 9 -2 7 -10 15 -17 17 -8
3 -12 -1 -9 -9z"/>
<path d="M1680 1220 c0 -5 7 -10 16 -10 8 0 12 5 9 10 -3 6 -10 10 -16 10 -5
0 -9 -4 -9 -10z"/>
<path d="M1750 949 c0 -11 5 -17 10 -14 6 3 10 13 10 21 0 8 -4 14 -10 14 -5
0 -10 -9 -10 -21z"/>
<path d="M854 1691 c-208 -75 -361 -212 -454 -406 -91 -189 -94 -450 -9 -636
l31 -67 111 65 c62 35 111 69 110 76 -1 7 -13 43 -27 80 -31 82 -35 202 -10
288 41 141 144 264 270 324 70 33 71 34 102 105 l32 72 -48 59 c-26 32 -49 58
-52 58 -3 0 -28 -8 -56 -18z m-13 -131 c26 -14 24 -27 -7 -43 -17 -9 -23 -17
-16 -21 7 -4 21 -2 32 4 22 12 27 1 8 -18 -17 -17 -38 -15 -60 5 -23 21 -23
59 0 72 21 13 20 13 43 1z m-81 -40 c0 -5 -7 -10 -15 -10 -19 0 -20 -34 -1
-49 11 -9 18 -8 30 4 14 15 16 15 16 1 0 -8 -8 -20 -18 -25 -40 -22 -83 44
-50 77 15 15 38 16 38 2z m-55 -72 c17 -21 23 -34 15 -36 -6 -2 -18 5 -26 17
-16 22 -44 29 -44 10 0 -6 9 -22 20 -36 29 -37 15 -42 -20 -8 -28 27 -43 64
-20 50 6 -3 10 0 10 9 0 13 13 23 32 25 3 1 18 -13 33 -31z m-66 -72 c22 -23
22 -25 5 -45 -21 -24 -35 -26 -52 -9 -8 8 -8 17 -1 30 14 27 2 36 -15 12 -18
-24 -31 -12 -16 15 14 28 51 27 79 -3z m-119 -35 c0 -5 10 -12 23 -15 30 -8
72 -42 60 -49 -5 -3 -30 9 -56 26 -45 31 -58 47 -37 47 6 0 10 -4 10 -9z m15
-58 c51 -25 70 -43 45 -43 -16 0 -108 48 -115 60 -10 17 12 11 70 -17z m-1
-44 c30 -14 40 -37 26 -54 -8 -10 -6 -16 7 -23 37 -21 2 -24 -49 -5 -46 18
-53 24 -50 44 4 26 19 49 33 49 4 0 19 -5 33 -11z m6 -110 c0 -5 -18 -9 -41
-9 -49 0 -49 -20 -1 -32 42 -11 41 -26 0 -24 -43 1 -48 -16 -9 -28 17 -5 31
-13 31 -17 0 -11 -61 -12 -75 -1 -14 9 -17 50 -4 57 5 4 6 17 3 30 -4 15 0 26
10 32 20 11 86 4 86 -8z m-29 -139 c21 -12 25 -50 7 -68 -7 -7 -25 -12 -40
-12 -21 0 -32 7 -40 26 -11 23 -10 29 11 45 27 22 35 23 62 9z m33 -113 c11
-31 -10 -61 -51 -72 -34 -8 -73 18 -73 50 0 34 18 41 22 8 2 -23 8 -29 34 -31
40 -4 63 21 46 49 -15 24 -15 32 1 27 6 -3 16 -17 21 -31z"/>
<path d="M807 1543 c-12 -12 -7 -22 8 -17 8 4 15 10 15 15 0 11 -14 12 -23 2z"/>
<path d="M610 1345 c0 -8 5 -15 10 -15 6 0 10 7 10 15 0 8 -4 15 -10 15 -5 0
-10 -7 -10 -15z"/>
<path d="M492 1203 c2 -10 14 -19 26 -21 19 -3 23 1 20 15 -2 10 -14 19 -26
21 -19 3 -23 -1 -20 -15z"/>
<path d="M473 973 c-7 -2 -13 -13 -13 -24 0 -14 7 -19 26 -19 20 0 25 4 22 22
-3 23 -15 30 -35 21z"/>
<path d="M895 1025 c-32 -32 -35 -100 -5 -138 25 -31 81 -45 116 -28 22 10 25
17 22 54 -3 41 -4 42 -40 45 -22 2 -38 -1 -38 -7 0 -6 12 -11 26 -11 23 0 25
-3 22 -32 -2 -26 -8 -34 -26 -36 -56 -8 -97 64 -71 122 14 30 45 41 95 33 30
-5 34 -4 24 8 -21 25 -97 19 -125 -10z"/>
<path d="M1080 956 c0 -53 4 -98 10 -101 6 -4 10 12 10 39 0 41 2 46 23 46 17
0 28 -11 45 -45 26 -55 49 -61 26 -7 -9 20 -18 42 -21 49 -3 7 2 22 11 35 20
29 20 34 -4 58 -13 13 -33 20 -60 20 l-40 0 0 -94z m88 47 c2 -14 -4 -26 -18
-33 -31 -17 -50 -5 -50 30 0 29 2 31 33 28 24 -2 33 -8 35 -25z"/>
<path d="M1261 1024 c-25 -32 -28 -109 -6 -141 8 -12 28 -24 43 -28 33 -7 86
10 77 25 -4 7 -13 6 -27 -1 -31 -16 -64 -3 -78 32 -11 26 -11 38 1 73 14 40
15 41 61 40 38 0 45 2 36 13 -6 7 -28 13 -48 13 -30 0 -43 -6 -59 -26z"/>
<path d="M1556 717 c-16 -28 -58 -80 -92 -115 -183 -183 -488 -190 -675 -15
l-49 45 -89 6 -88 5 -37 -73 -36 -72 68 -71 c111 -115 241 -191 382 -220 119
-25 173 -28 267 -17 214 27 398 132 527 299 40 52 106 170 106 189 0 8 -225
92 -245 92 -5 0 -23 -24 -39 -53z m90 -82 c-8 -21 33 -48 51 -33 10 8 13 6 13
-6 0 -24 -28 -31 -49 -12 -10 9 -25 16 -34 16 -9 0 -17 2 -17 4 0 2 -3 11 -6
19 -3 10 2 17 13 20 32 8 35 7 29 -8z m-931 -65 c20 -22 14 -50 -14 -57 -10
-2 -24 -16 -30 -29 -15 -35 -32 -30 -18 6 14 37 3 49 -23 25 -38 -34 -34 -5 5
35 44 45 55 48 80 20z m930 4 c14 -9 25 -23 25 -31 0 -11 -6 -10 -26 6 -15 12
-31 21 -35 21 -16 0 -9 -27 11 -45 11 -10 17 -22 14 -27 -3 -5 -17 1 -31 14
-17 16 -22 18 -18 6 4 -11 -1 -21 -14 -30 -24 -15 -27 -28 -6 -28 7 0 18 8 24
17 12 22 24 13 15 -11 -10 -25 -51 -31 -74 -11 -33 30 -20 75 23 75 10 0 15 5
12 11 -8 13 23 49 42 49 7 0 25 -7 38 -16z m-885 -41 c0 -15 -78 -98 -85 -91
-9 9 36 67 53 67 6 1 12 8 12 16 0 8 5 15 10 15 6 0 10 -3 10 -7z m17 -58 c19
-13 22 -13 27 0 3 8 10 15 17 15 7 0 8 -7 4 -17 -4 -10 -9 -24 -12 -31 -4 -9
1 -12 12 -10 10 2 20 -3 22 -9 3 -8 -4 -13 -16 -13 -18 0 -20 -4 -14 -31 5
-24 3 -31 -8 -27 -7 2 -16 15 -19 29 -5 21 -7 22 -13 6 -4 -10 -11 -16 -17
-12 -5 3 -2 18 10 37 16 26 16 33 5 44 -21 21 -25 17 -23 -18 2 -24 -1 -33
-15 -36 -21 -4 -49 16 -41 30 3 5 12 4 20 -3 19 -16 28 -5 15 19 -7 13 -7 22
1 30 15 15 19 15 45 -3z m742 -24 c31 -43 25 -61 -8 -22 -33 40 -50 28 -26
-19 13 -24 13 -30 2 -30 -8 0 -20 11 -27 25 -7 14 -17 25 -21 25 -17 0 -19
-21 -5 -42 18 -25 20 -38 7 -38 -5 0 -19 16 -30 36 -21 35 -21 37 -4 50 10 7
23 14 29 14 6 0 17 7 24 15 19 22 36 18 59 -14z m-119 -66 c0 -7 -9 -17 -20
-20 -29 -9 -25 -28 5 -22 16 3 24 0 22 -7 -2 -6 -18 -12 -35 -14 -25 -3 -34 1
-40 17 -7 21 -7 21 -20 1 -10 -16 -10 -20 2 -20 7 0 19 -6 25 -14 9 -11 8 -18
-4 -30 -17 -16 -64 -22 -66 -8 -1 13 -8 45 -14 70 -8 31 10 52 44 52 14 0 34
7 45 15 21 16 56 4 56 -20z m-455 4 c5 -5 17 -9 26 -9 27 0 31 -15 19 -61 -7
-27 -15 -38 -21 -32 -6 6 -6 20 1 37 5 15 7 32 4 37 -8 14 -31 -7 -38 -36 -4
-14 -11 -25 -17 -25 -7 0 -9 10 -4 27 11 44 11 45 -3 50 -8 3 -18 -8 -25 -26
-6 -17 -15 -31 -19 -31 -11 0 -10 6 4 51 10 35 14 38 37 33 14 -4 30 -11 36
-15z m123 -32 c6 -7 9 -29 6 -48 -5 -29 -10 -35 -29 -34 -13 0 -29 5 -36 12
-16 16 -4 43 21 43 11 0 20 5 20 10 0 6 -9 10 -20 10 -11 0 -20 5 -20 10 0 15
46 12 58 -3z m176 -29 c11 -44 8 -48 -30 -51 -23 -2 -30 2 -32 21 -3 17 2 25
17 29 25 6 28 25 4 22 -31 -3 -38 1 -23 11 29 20 55 7 64 -32z m-84 -14 c0
-27 -4 -43 -10 -39 -5 3 -10 22 -10 41 0 48 -24 40 -28 -10 -2 -20 -8 -36 -13
-34 -6 2 -10 7 -10 11 1 4 1 23 1 42 0 33 2 35 35 35 35 0 35 0 35 -46z"/>
<path d="M675 560 c-7 -12 2 -30 16 -30 12 0 12 27 0 35 -5 3 -12 1 -16 -5z"/>
<path d="M1530 494 c0 -14 3 -14 15 -4 8 7 15 14 15 16 0 2 -7 4 -15 4 -8 0
-15 -7 -15 -16z"/>
<path d="M1345 380 c-8 -13 5 -13 25 0 13 8 13 10 -2 10 -9 0 -20 -4 -23 -10z"/>
<path d="M1270 356 c0 -9 7 -16 16 -16 9 0 14 5 12 12 -6 18 -28 21 -28 4z"/>
<path d="M1285 290 c-3 -5 3 -10 14 -10 12 0 21 5 21 10 0 6 -6 10 -14 10 -8
0 -18 -4 -21 -10z"/>
<path d="M1025 310 c-3 -5 1 -10 10 -10 9 0 13 5 10 10 -3 6 -8 10 -10 10 -2
0 -7 -4 -10 -10z"/>
<path d="M1207 313 c-4 -3 -7 -11 -7 -17 0 -6 5 -5 12 2 6 6 9 14 7 17 -3 3
-9 2 -12 -2z"/>
</g>
</svg>
