<?xml version="1.0" encoding="UTF-8"?>
<svg version="1.1" xmlns="http://www.w3.org/2000/svg" width="512" height="512">
<path d="M0 0 C10.17220585 8.83888285 15.97530711 19.17592134 20.1875 31.8125 C61.7675 31.8125 103.3475 31.8125 146.1875 31.8125 C147.8375 27.5225 149.4875 23.2325 151.1875 18.8125 C153.45262128 15.2934723 155.63272791 12.07925776 158.1875 8.8125 C159.2703125 7.2965625 159.2703125 7.2965625 160.375 5.75 C171.44828234 -6.98789342 187.61389063 -12.80745337 203.9921875 -14.47265625 C220.83113606 -15.04727912 237.25617463 -9.13656312 249.75 2.125 C258.17093311 10.16328992 263.38201197 19.88706661 267.1875 30.8125 C267.1875 31.4725 267.1875 32.1325 267.1875 32.8125 C267.87674561 32.79155273 268.56599121 32.77060547 269.27612305 32.74902344 C290.0721218 32.20016053 306.43505288 33.49638886 322.4375 48.375 C333.57858555 60.17988614 338.67358136 73.92175827 338.57518005 90.07028198 C338.58325836 91.68770819 338.58325836 91.68770819 338.59149987 93.33780968 C338.60571478 96.92177713 338.59869156 100.50537186 338.59155273 104.08935547 C338.59725967 106.6708404 338.60422518 109.25232281 338.61235046 111.83380127 C338.62948463 118.10053804 338.6303897 124.3671743 338.62513756 130.6339284 C338.62108446 135.73129548 338.6225529 140.82863301 338.62788582 145.92599869 C338.62863424 146.65345027 338.62938266 147.38090185 338.63015376 148.13039742 C338.63168535 149.60855404 338.6332237 151.08671066 338.63476873 152.56486727 C338.64847436 166.40476408 338.64306979 180.24460424 338.63158352 194.08449973 C338.62165374 206.72360015 338.6345908 219.36255412 338.65851771 232.00163196 C338.68294745 245.00511088 338.69250705 258.0085217 338.68586498 271.01202309 C338.68238128 278.30222656 338.68454844 285.59231749 338.70211601 292.88250351 C338.71843601 299.73954805 338.71359624 306.59630928 338.69481087 313.45334625 C338.69113323 315.96348392 338.69420923 318.47364239 338.70469666 320.98376083 C338.78580473 342.0089671 336.57118821 357.5414338 321.67578125 373.48828125 C307.89656842 386.35897455 292.3613851 389.13687993 274.19091797 389.03955078 C272.70177722 389.03898559 271.21263591 389.03930534 269.72349548 389.04043579 C265.70970313 389.04100608 261.69603202 389.02930457 257.68226767 389.01528788 C253.47691569 389.00272621 249.27156047 389.00160575 245.06619263 388.99923706 C237.1156144 388.99303819 229.16509163 388.97664908 221.21453774 388.95653808 C212.15765405 388.93412931 203.10076761 388.92317316 194.04386306 388.91314721 C175.42504401 388.89228134 156.80627648 388.85713655 138.1875 388.8125 C138.60636475 390.03880127 139.02522949 391.26510254 139.45678711 392.52856445 C141.00930661 397.07393682 142.56168202 401.61935839 144.11401367 406.16479492 C144.78617479 408.13290734 145.45837509 410.10100637 146.13061523 412.0690918 C147.09629429 414.89628649 148.06183287 417.72352912 149.02734375 420.55078125 C149.32841537 421.43212234 149.629487 422.31346344 149.93968201 423.22151184 C150.219897 424.04213608 150.500112 424.86276031 150.78881836 425.70825195 C151.03530624 426.42995071 151.28179413 427.15164948 151.53575134 427.8952179 C152.09225446 429.53231137 152.64071204 431.17213611 153.1875 432.8125 C154.91033203 432.94205078 154.91033203 432.94205078 156.66796875 433.07421875 C172.94374894 434.4719983 185.43032201 438.48737116 196.9375 450.5625 C204.52971873 459.65202405 207.1875 470.21440234 207.1875 481.8125 C125.3475 481.8125 43.5075 481.8125 -40.8125 481.8125 C-40.8125 468.5356509 -36.67421737 456.88171543 -27.5625 447.0625 C-18.20413177 438.32252615 -7.91278187 435.02512797 4.5 433.734375 C5.33595703 433.64462402 6.17191406 433.55487305 7.03320312 433.46240234 C9.08430284 433.24264166 11.1358586 433.02714473 13.1875 432.8125 C13.36067245 432.29076202 13.53384491 431.76902405 13.71226501 431.23147583 C15.51104321 425.8130588 17.31191351 420.39534041 19.11401367 414.97802734 C19.78675427 412.95476934 20.45895685 410.93133236 21.13061523 408.90771484 C22.09478438 406.00311081 23.06087127 403.09915082 24.02734375 400.1953125 C24.32841537 399.28693634 24.629487 398.37856018 24.93968201 397.44265747 C25.219897 396.60193695 25.500112 395.76121643 25.78881836 394.89501953 C26.15855019 393.78249313 26.15855019 393.78249313 26.53575134 392.64749146 C27.1875 390.8125 27.1875 390.8125 28.1875 388.8125 C27.42034794 388.81526538 26.65319588 388.81803076 25.86279678 388.82087994 C7.15701439 388.88726448 -11.54874435 388.93684111 -30.2546196 388.96793652 C-39.30081169 388.98337547 -48.34692494 389.00440786 -57.39306641 389.03881836 C-65.28186545 389.06881203 -73.17060735 389.08809658 -81.05946183 389.09476548 C-85.23276488 389.09866093 -89.40590453 389.1077531 -93.57915497 389.12969017 C-97.51569348 389.15021322 -101.45200292 389.15630223 -105.38858986 389.15182304 C-106.82518831 389.15264123 -108.26179528 389.15851204 -109.69834709 389.17011642 C-128.0051687 389.31061175 -143.99940366 384.59225947 -157.33984375 371.60546875 C-161.57938756 366.81672653 -165.21883915 361.67258604 -167.8125 355.8125 C-168.15176765 355.0487204 -168.49103531 354.2849408 -168.8405838 353.49801636 C-173.18675425 341.78893338 -172.37357295 329.62213276 -172.33007812 317.30859375 C-172.33550455 314.72681281 -172.34263013 312.14503497 -172.35131836 309.56326294 C-172.36902009 303.30345048 -172.36530115 297.04383085 -172.3536678 290.78401113 C-172.34460064 285.69240705 -172.34342359 280.60085667 -172.34776306 275.50924683 C-172.34837599 274.78206623 -172.34898893 274.05488562 -172.34962043 273.30566925 C-172.35089945 271.82799568 -172.35219631 270.35032213 -172.3535108 268.8726486 C-172.36489214 255.04607399 -172.35184143 241.2196058 -172.33030933 227.39304864 C-172.31244055 215.55266929 -172.31554535 203.71244684 -172.33398438 191.87207031 C-172.35543447 178.09189939 -172.36379373 164.31182153 -172.35153532 150.53163624 C-172.35026125 149.05967523 -172.34900376 147.58771421 -172.34776306 146.11575317 C-172.34714596 145.39169216 -172.34652886 144.66763115 -172.34589306 143.92162889 C-172.34245254 138.84151835 -172.34824033 133.76146729 -172.35768127 128.68136597 C-172.37013067 121.8324901 -172.36115213 114.983914 -172.33810425 108.13506699 C-172.33283518 105.62815718 -172.33429984 103.12122236 -172.34315491 100.61432266 C-172.40794967 80.40023287 -170.66289582 63.94797277 -156.125 48.5 C-140.1696716 33.48463808 -123.73506385 32.19915914 -102.90112305 32.74902344 C-102.21187744 32.7699707 -101.52263184 32.79091797 -100.8125 32.8125 C-100.62494141 32.1529834 -100.43738281 31.4934668 -100.24414062 30.81396484 C-95.41506627 14.21326151 -85.93671356 1.95518389 -70.9375 -6.5703125 C-47.42412592 -18.73848358 -21.09650668 -16.16714211 0 0 Z " fill="#B5DBFE" transform="translate(172.8125,22.1875)"/>
<path d="M0 0 C0 10.23 0 20.46 0 31 C-3.96 31.33 -7.92 31.66 -12 32 C-21.00205169 34.42055168 -28.66731643 38.85877043 -33.78515625 46.75390625 C-36.86450394 52.22102236 -39.11824944 56.81411567 -39.13422108 63.14437103 C-39.13867892 63.9670162 -39.14313676 64.78966136 -39.14772969 65.63723516 C-39.14754533 66.53566216 -39.14736097 67.43408916 -39.14717102 68.35974121 C-39.15084771 69.31841048 -39.1545244 70.27707974 -39.1583125 71.26479959 C-39.169349 74.48578325 -39.17319317 77.70673464 -39.17700195 80.92773438 C-39.18326673 83.2339488 -39.18991354 85.54016221 -39.19691467 87.84637451 C-39.21795924 95.42882585 -39.22831877 103.0112774 -39.23828125 110.59375 C-39.24232893 113.20490021 -39.24644586 115.81605032 -39.25063133 118.42720032 C-39.26750186 129.29096971 -39.28213547 140.15473618 -39.28938007 151.01851654 C-39.29128984 153.83656312 -39.29321019 156.6546097 -39.29516602 159.47265625 C-39.29564976 160.1730316 -39.2961335 160.87340696 -39.2966319 161.59500581 C-39.30492404 172.92898279 -39.33024716 184.26285395 -39.36274669 195.59678477 C-39.39587416 207.2451412 -39.4135017 218.8934385 -39.41702431 230.54184198 C-39.41937274 237.07705282 -39.4283063 243.61209644 -39.45348549 250.14726257 C-39.47680754 256.29996995 -39.4809826 262.45240052 -39.47072411 268.60514069 C-39.47022961 270.8576932 -39.47652431 273.11025952 -39.49028015 275.36277008 C-39.67134855 296.89254426 -39.67134855 296.89254426 -28.64453125 314.80078125 C-21.17051814 321.01624562 -13.10150155 324.12117817 -3.49181938 324.13142776 C-2.83679935 324.1334804 -2.18177933 324.13553303 -1.5069102 324.13764787 C0.69732646 324.14332146 2.90150071 324.14186017 5.10574341 324.14044189 C6.69836718 324.14302533 8.29099029 324.14603843 9.88361251 324.1494453 C14.26768129 324.1575212 18.6517337 324.1593052 23.03580904 324.16004276 C27.76126832 324.16189231 32.48671909 324.1694392 37.21217346 324.17617798 C47.54905407 324.18976648 57.8859308 324.19578695 68.22281885 324.20018864 C74.67673354 324.20295044 81.13064672 324.20718771 87.58456039 324.21169281 C105.45170816 324.22388664 123.31885471 324.23418541 141.18600655 324.2375679 C142.329816 324.23778747 143.47362545 324.23800703 144.65209579 324.23823325 C146.3719326 324.23856067 146.3719326 324.23856067 148.1265136 324.2388947 C150.4499023 324.23933817 152.77329099 324.23978473 155.09667969 324.24023438 C156.24916249 324.2404558 157.4016453 324.24067723 158.58905183 324.24090537 C177.26062158 324.24485281 195.9321523 324.26230469 214.60370697 324.2855939 C233.77115379 324.30930872 252.93858102 324.32176983 272.10604274 324.32293582 C282.86876289 324.32385256 293.63143219 324.3296045 304.39413834 324.34775543 C313.55969366 324.36315824 322.72518241 324.36827584 331.89074822 324.36001733 C336.56638027 324.35611135 341.24187827 324.3570379 345.91749382 324.37107468 C350.20104808 324.38381668 354.48436761 324.38261343 358.76792155 324.37048396 C360.3144053 324.36852748 361.86090568 324.37160317 363.40736605 324.38032833 C376.3986498 324.44896211 387.17868305 322.97615633 397.1328125 314.09765625 C408.70978639 302.28572533 407.57851656 287.56265291 407.51757812 272.13232422 C407.52300488 269.82168132 407.53013063 267.51104188 407.53881836 265.20040894 C407.55698659 258.95262646 407.55001147 252.70510946 407.53730202 246.4573226 C407.52714311 239.90636599 407.53657549 233.35543142 407.54284668 226.80447388 C407.55137616 215.10418395 407.53818578 203.4040053 407.51780933 191.70373465 C407.49993227 181.11086126 407.50305255 170.51816322 407.52148438 159.92529297 C407.5429237 147.59836958 407.55084147 135.27155784 407.53903532 122.94461834 C407.53280962 116.42862116 407.5319397 109.91274458 407.54518127 103.39675522 C407.55676001 97.27181382 407.54867661 91.14720273 407.52560425 85.02229691 C407.5203285 82.77858783 407.52181142 80.53485081 407.53065491 78.29115295 C407.5416383 75.2208198 407.52781259 72.15153525 407.50793457 69.08126831 C407.51685746 68.20031836 407.52578034 67.31936842 407.53497362 66.41172302 C407.40573959 56.07160891 403.1536134 47.37260157 396 40 C387.63345176 33.15309011 378.67666887 31.97060626 368 31 C368 20.77 368 10.54 368 0 C389.77783578 -0.46583606 406.46896221 -0.04002216 423.25 15.5625 C434.39108555 27.36738614 439.48608136 41.10925827 439.38768005 57.25778198 C439.39575836 58.87520819 439.39575836 58.87520819 439.40399987 60.52530968 C439.41821478 64.10927713 439.41119156 67.69287186 439.40405273 71.27685547 C439.40975967 73.8583404 439.41672518 76.43982281 439.42485046 79.02130127 C439.44198463 85.28803804 439.4428897 91.5546743 439.43763756 97.8214284 C439.43358446 102.91879548 439.4350529 108.01613301 439.44038582 113.11349869 C439.44113424 113.84095027 439.44188266 114.56840185 439.44265376 115.31789742 C439.44418535 116.79605404 439.4457237 118.27421066 439.44726873 119.75236727 C439.46097436 133.59226408 439.45556979 147.43210424 439.44408352 161.27199973 C439.43415374 173.91110015 439.4470908 186.55005412 439.47101771 199.18913196 C439.49544745 212.19261088 439.50500705 225.1960217 439.49836498 238.19952309 C439.49488128 245.48972656 439.49704844 252.77981749 439.51461601 260.07000351 C439.53093601 266.92704805 439.52609624 273.78380928 439.50731087 280.64084625 C439.50363323 283.15098392 439.50670923 285.66114239 439.51719666 288.17126083 C439.59830473 309.1964671 437.38368821 324.7289338 422.48828125 340.67578125 C408.70906842 353.54647455 393.1738851 356.32437993 375.00341797 356.22705078 C373.51427722 356.22648559 372.02513591 356.22680534 370.53599548 356.22793579 C366.52220313 356.22850608 362.50853202 356.21680457 358.49476767 356.20278788 C354.28941569 356.19022621 350.08406047 356.18910575 345.87869263 356.18673706 C337.9281144 356.18053819 329.97759163 356.16414908 322.02703774 356.14403808 C312.97015405 356.12162931 303.91326761 356.11067316 294.85636306 356.10064721 C276.23754401 356.07978134 257.61877648 356.04463655 239 356 C239.41886475 357.22630127 239.83772949 358.45260254 240.26928711 359.71606445 C241.82180661 364.26143682 243.37418202 368.80685839 244.92651367 373.35229492 C245.59867479 375.32040734 246.27087509 377.28850637 246.94311523 379.2565918 C247.90879429 382.08378649 248.87433287 384.91102912 249.83984375 387.73828125 C250.14091537 388.61962234 250.441987 389.50096344 250.75218201 390.40901184 C251.032397 391.22963608 251.312612 392.05026031 251.60131836 392.89575195 C251.84780624 393.61745071 252.09429413 394.33914948 252.34825134 395.0827179 C252.90475446 396.71981137 253.45321204 398.35963611 254 400 C255.72283203 400.12955078 255.72283203 400.12955078 257.48046875 400.26171875 C273.75624894 401.6594983 286.24282201 405.67487116 297.75 417.75 C305.34221873 426.83952405 308 437.40190234 308 449 C226.16 449 144.32 449 60 449 C60 435.7231509 64.13828263 424.06921543 73.25 414.25 C82.60836823 405.51002615 92.89971813 402.21262797 105.3125 400.921875 C106.14845703 400.83212402 106.98441406 400.74237305 107.84570312 400.64990234 C109.89680284 400.43014166 111.9483586 400.21464473 114 400 C114.17317245 399.47826202 114.34634491 398.95652405 114.52476501 398.41897583 C116.32354321 393.0005588 118.12441351 387.58284041 119.92651367 382.16552734 C120.59925427 380.14226934 121.27145685 378.11883236 121.94311523 376.09521484 C122.90728438 373.19061081 123.87337127 370.28665082 124.83984375 367.3828125 C125.14091537 366.47443634 125.441987 365.56606018 125.75218201 364.63015747 C126.032397 363.78943695 126.312612 362.94871643 126.60131836 362.08251953 C126.97105019 360.96999313 126.97105019 360.96999313 127.34825134 359.83499146 C128 358 128 358 129 356 C128.23284794 356.00276538 127.46569588 356.00553076 126.67529678 356.00837994 C107.96951439 356.07476448 89.26375565 356.12434111 70.5578804 356.15543652 C61.51168831 356.17087547 52.46557506 356.19190786 43.41943359 356.22631836 C35.53063455 356.25631203 27.64189265 356.27559658 19.75303817 356.28226548 C15.57973512 356.28616093 11.40659547 356.2952531 7.23334503 356.31719017 C3.29680652 356.33771322 -0.63950292 356.34380223 -4.57608986 356.33932304 C-6.01268831 356.34014123 -7.44929528 356.34601204 -8.88584709 356.35761642 C-27.1926687 356.49811175 -43.18690366 351.77975947 -56.52734375 338.79296875 C-60.76688756 334.00422653 -64.40633915 328.86008604 -67 323 C-67.33926765 322.2362204 -67.67853531 321.4724408 -68.0280838 320.68551636 C-72.37425425 308.97643338 -71.56107295 296.80963276 -71.51757812 284.49609375 C-71.52300455 281.91431281 -71.53013013 279.33253497 -71.53881836 276.75076294 C-71.55652009 270.49095048 -71.55280115 264.23133085 -71.5411678 257.97151113 C-71.53210064 252.87990705 -71.53092359 247.78835667 -71.53526306 242.69674683 C-71.53587599 241.96956623 -71.53648893 241.24238562 -71.53712043 240.49316925 C-71.53839945 239.01549568 -71.53969631 237.53782213 -71.5410108 236.0601486 C-71.55239214 222.23357399 -71.53934143 208.4071058 -71.51780933 194.58054864 C-71.49994055 182.74016929 -71.50304535 170.89994684 -71.52148438 159.05957031 C-71.54293447 145.27939939 -71.55129373 131.49932153 -71.53903532 117.71913624 C-71.53776125 116.24717523 -71.53650376 114.77521421 -71.53526306 113.30325317 C-71.53464596 112.57919216 -71.53402886 111.85513115 -71.53339306 111.10912889 C-71.52995254 106.02901835 -71.53574033 100.94896729 -71.54518127 95.86886597 C-71.55763067 89.0199901 -71.54865213 82.171414 -71.52560425 75.32256699 C-71.52033518 72.81565718 -71.52179984 70.30872236 -71.53065491 67.80182266 C-71.59544967 47.58773287 -69.85039582 31.13547277 -55.3125 15.6875 C-38.58350182 -0.05595297 -21.81125857 -0.46655099 0 0 Z " fill="#7E7BC6" transform="translate(72,55)"/>
<path d="M0 0 C0.27972656 0.81082031 0.55945313 1.62164062 0.84765625 2.45703125 C7.66888236 21.29765257 18.24789571 32.77932937 36.15234375 41.54296875 C39.43307931 42.91815837 42.78850942 43.74661896 46.24047852 44.59106445 C47.31950943 44.85635452 48.39854034 45.12164459 49.51026917 45.39497375 C50.33188034 45.59463242 51.15349152 45.79429108 52 46 C52.00546844 47.81284233 52.00546844 47.81284233 52.01104736 49.66230774 C52.04794603 61.0371155 52.10566233 72.41165125 52.18390274 83.78625202 C52.22345676 89.63444983 52.25560633 95.48249527 52.27099609 101.33081055 C52.28611049 106.97197977 52.32046298 112.61273033 52.36830902 118.25371361 C52.38317679 120.40870722 52.39104409 122.56376058 52.39188385 124.71880531 C52.39423904 127.7313697 52.42120171 130.74276332 52.45410156 133.75512695 C52.4490712 134.65136276 52.44404083 135.54759857 52.43885803 136.47099304 C52.41779987 141.17447727 52.41779987 141.17447727 54.77050781 145.05078125 C57.09763149 146.04156715 58.69766293 146.39348245 61.21777344 146.43237305 C62.4485965 146.46206429 62.4485965 146.46206429 63.70428467 146.49235535 C64.58046448 146.49874527 65.45664429 146.50513519 66.359375 146.51171875 C67.26375305 146.52966995 68.1681311 146.54762115 69.09991455 146.56611633 C71.9832292 146.62021857 74.86637832 146.65411474 77.75 146.6875 C79.70705428 146.72067315 81.66408672 146.75516281 83.62109375 146.79101562 C88.41394307 146.87594504 93.20674329 146.9427567 98 147 C98.05188477 148.19061035 98.10376953 149.3812207 98.15722656 150.60791016 C98.67533974 162.5886834 98.67533974 162.5886834 100.75 174.375 C101.01224365 175.48693726 101.01224365 175.48693726 101.27978516 176.62133789 C102.86877359 183.04913788 105.08078397 189.05092709 108 195 C108.45246094 195.93199219 108.90492188 196.86398437 109.37109375 197.82421875 C117.02996871 212.70609773 128.50039966 224.34944378 142.703125 232.9921875 C143.79109375 233.65476562 144.8790625 234.31734375 146 235 C147.04591309 235.44972168 148.09182617 235.89944336 149.16943359 236.36279297 C152.46396587 239.43227181 152.45157199 240.09472898 152.68115234 244.41113281 C152.68020296 246.67535246 152.64633423 248.93971082 152.5859375 251.203125 C152.57744781 252.39605164 152.56895813 253.58897827 152.56021118 254.8180542 C152.5266144 258.62961999 152.45131453 262.43907324 152.375 266.25 C152.34490892 268.83330279 152.31753164 271.41663873 152.29296875 274 C152.22680197 280.33405456 152.12638734 286.66687639 152 293 C130.43324889 293.1403941 108.86657353 293.24608062 87.29945755 293.31087303 C77.28460632 293.34176197 67.27003964 293.38384725 57.25537109 293.45263672 C48.52276719 293.51259107 39.79036946 293.55118519 31.05756545 293.56453097 C26.4369438 293.5723277 21.81691177 293.59054713 17.1964798 293.63438034 C12.83954665 293.67537543 8.48344095 293.68761536 4.12633324 293.67864609 C2.53489611 293.6802848 0.94342875 293.69205931 -0.6478405 293.71523285 C-12.85835609 293.88419832 -22.22130332 291.60964698 -31.5 283.125 C-39.16826476 274.77263693 -41.30582126 265.31232616 -41.26742554 254.26603699 C-41.27195665 253.30339331 -41.27648776 252.34074964 -41.28115618 251.34893495 C-41.29378727 248.13255782 -41.29218063 244.91635031 -41.29052734 241.69995117 C-41.29651337 239.39004804 -41.30331909 237.08014692 -41.31088257 234.77024841 C-41.3285417 228.50158566 -41.33323791 222.23297751 -41.33451414 215.96429229 C-41.3359363 212.04628606 -41.34020711 208.12829369 -41.34550858 204.21029091 C-41.36305386 191.24263873 -41.37234887 178.2750253 -41.37084763 165.3073618 C-41.37076772 164.6090159 -41.3706878 163.91067001 -41.37060547 163.19116211 C-41.37052371 162.49195864 -41.37044195 161.79275517 -41.37035771 161.07236371 C-41.369545 149.74368635 -41.38868127 138.41514201 -41.4168822 127.08650311 C-41.44564372 115.44031385 -41.45905484 103.7941955 -41.45769465 92.14797002 C-41.45718508 85.61511326 -41.46286563 79.08240709 -41.48405075 72.54958153 C-41.50343562 66.40421437 -41.50355557 60.25914143 -41.48901749 54.11376381 C-41.48692866 51.86198623 -41.49163463 49.61019023 -41.5037384 47.35844421 C-41.51922593 44.27692377 -41.50985901 41.19641339 -41.49447632 38.11491394 C-41.50476344 37.2305534 -41.51505057 36.34619285 -41.52564943 35.4350335 C-41.41828348 25.65662923 -37.65070871 17.1433538 -31 10 C-21.77156493 1.40800873 -12.37556078 -0.69830751 0 0 Z " fill="#DAECFE" transform="translate(73,86)"/>
<path d="M0 0 C10.90961227 -0.88456316 20.75032024 1.20466217 29.4375 8.1875 C35.99823369 14.54017659 40.97465867 23.14972403 41.25726891 32.39046669 C41.27081648 34.12701166 41.27345126 35.86366288 41.26742554 37.60025024 C41.27195665 38.56062836 41.27648776 39.52100648 41.28115618 40.51048696 C41.29380597 43.72530208 41.2921794 46.93994791 41.29052734 50.15478516 C41.29651234 52.46129575 41.30331782 54.76780435 41.31088257 57.0743103 C41.3285555 63.33903445 41.33323858 69.60370397 41.33451414 75.86845064 C41.33593589 79.78462447 41.34020601 83.70078442 41.34550858 87.6169548 C41.36306002 100.58038381 41.37234829 113.54377404 41.37084763 126.50721438 C41.37076772 127.20560024 41.3706878 127.90398609 41.37060547 128.62353516 C41.37052371 129.32277951 41.37044195 130.02202386 41.37035771 130.74245743 C41.36954558 142.06338083 41.38866546 153.38417092 41.4168822 164.70505579 C41.44566246 176.34444298 41.45905397 187.98375918 41.45769465 199.62318265 C41.45718545 206.15164682 41.46284549 212.67996022 41.48405075 219.2083931 C41.50346363 225.35293238 41.50353644 231.49717759 41.48901749 237.64172745 C41.4869319 239.89105155 41.49161523 242.14039419 41.5037384 244.38968658 C41.64456108 272.33846625 41.64456108 272.33846625 30.37109375 283.87109375 C23.60846723 289.94297423 16.77171276 293.25585976 7.54592896 293.24050903 C6.26714371 293.24325836 4.98835846 293.24600769 3.67082214 293.24884033 C2.26638699 293.24176342 0.86195279 293.23449382 -0.54248047 293.22705078 C-2.03103121 293.22648624 -3.51958251 293.22680407 -5.00813293 293.22793579 C-9.03868989 293.22850863 -13.06912735 293.21676549 -17.09965658 293.20278788 C-21.31570928 293.19026903 -25.53176484 293.18910911 -29.74783325 293.18673706 C-37.72687723 293.18052569 -45.70586628 293.1641195 -53.6848861 293.14403808 C-62.77069712 293.12166843 -71.8565108 293.11068297 -80.94234252 293.10064721 C-99.62825947 293.07975297 -118.31412531 293.04458364 -137 293 C-137.38172974 285.47602884 -137.64351968 277.95456247 -137.82397461 270.4230957 C-137.89921227 267.86452985 -138.00144086 265.30660497 -138.1315918 262.75024414 C-139.15971132 242.03061186 -139.15971132 242.03061186 -135.57397461 236.99893188 C-132.08874771 233.90545111 -128.22781032 232.26455711 -123.86564636 230.75697327 C-108.2675831 224.42816566 -96.40716751 204.79792119 -90.16015625 190.1015625 C-84.79040788 175.7460736 -83.10994005 162.30969073 -83 147 C-81.84999512 146.97812622 -81.84999512 146.97812622 -80.67675781 146.95581055 C-77.20066507 146.8813078 -73.72553032 146.78465354 -70.25 146.6875 C-69.0434375 146.66494141 -67.836875 146.64238281 -66.59375 146.61914062 C-65.43359375 146.58369141 -64.2734375 146.54824219 -63.078125 146.51171875 C-62.00981445 146.48553467 -60.94150391 146.45935059 -59.84082031 146.43237305 C-56.44410853 145.91539328 -55.31220827 145.55421561 -53 143 C-52.37578754 139.93462597 -52.44695654 136.89002019 -52.4699707 133.77099609 C-52.46123932 132.82606796 -52.45250793 131.88113983 -52.44351196 130.90757751 C-52.41908263 127.77933918 -52.42254994 124.65175926 -52.42578125 121.5234375 C-52.41334378 119.35534532 -52.39901172 117.18726324 -52.38285828 115.01919556 C-52.34476439 109.30836924 -52.32963191 103.59771655 -52.32006836 97.88677979 C-52.30035079 88.73766746 -52.24363468 79.58868807 -52.19130516 70.43971634 C-52.17589683 67.2349762 -52.16875616 64.03030174 -52.16316223 60.82553101 C-52.15614957 58.87375862 -52.14904893 56.92198654 -52.1418457 54.97021484 C-52.14237442 54.07150162 -52.14290314 53.17278839 -52.14344788 52.24684143 C-52.11321632 46.11321632 -52.11321632 46.11321632 -51 45 C-49.48059141 44.80128459 -47.95933682 44.61667304 -46.4375 44.4375 C-31.56551749 41.77213171 -18.52921822 32.81659237 -9.625 20.79296875 C-5.3732142 14.20426392 -2.28312398 7.4952557 0 0 Z " fill="#DAECFE" transform="translate(439,86)"/>
<path d="M0 0 C42.24 0 84.48 0 128 0 C129.65 3.96 131.3 7.92 133 12 C141.47754013 27.48072545 152.41507523 36.67847336 169 43 C172.63 43.99 176.26 44.98 180 46 C180 74.05 180 102.1 180 131 C173.73 131 167.46 131 161 131 C160.319375 128.958125 159.63875 126.91625 158.9375 124.8125 C155.06787689 113.74936344 149.59437791 103.93748842 142 95 C141.14535156 93.91138672 141.14535156 93.91138672 140.2734375 92.80078125 C134.36387247 85.59614133 126.37310276 79.18655138 118 75 C118 98.76 118 122.52 118 147 C111.73 150.3 105.46 153.6 99 157 C96.58042969 158.28390625 94.16085937 159.5678125 91.66796875 160.890625 C89.50863023 162.01199272 87.34849743 163.13183252 85.1875 164.25 C84.08341797 164.84167969 82.97933594 165.43335938 81.84179688 166.04296875 C80.77380859 166.59082031 79.70582031 167.13867188 78.60546875 167.703125 C77.66856201 168.19458008 76.73165527 168.68603516 75.76635742 169.19238281 C69.49352673 171.02368843 62.75905477 166.0094883 57.2265625 163.2109375 C56.40696045 162.80012939 55.5873584 162.38932129 54.74291992 161.96606445 C51.70140576 160.44010171 48.66340661 158.90714098 45.625 157.375 C38.81875 153.95125 32.0125 150.5275 25 147 C25 123.24 25 99.48 25 75 C2.18876197 90.79239556 -7.93471378 105.83678446 -18 131 C-29.22 131 -40.44 131 -52 131 C-52 102.95 -52 74.9 -52 46 C-44.08 43.525 -44.08 43.525 -36 41 C-18.28169987 33.49577877 -8.17921503 20.48846845 -1 3 C-0.67 2.01 -0.34 1.02 0 0 Z " fill="#DAECFE" transform="translate(192,86)"/>
<path d="M0 0 C36.3 0 72.6 0 110 0 C124 41 124 41 125 44 C126.14855469 44.08636719 127.29710937 44.17273438 128.48046875 44.26171875 C144.75624894 45.6594983 157.24282201 49.67487116 168.75 61.75 C176.34221873 70.83952405 179 81.40190234 179 93 C97.16 93 15.32 93 -69 93 C-69 79.7231509 -64.86171737 68.06921543 -55.75 58.25 C-46.39163177 49.51002615 -36.10028187 46.21262797 -23.6875 44.921875 C-22.43356445 44.78724854 -22.43356445 44.78724854 -21.15429688 44.64990234 C-19.10319716 44.43014166 -17.0516414 44.21464473 -15 44 C-14.82682755 43.47826202 -14.65365509 42.95652405 -14.47523499 42.41897583 C-12.67645679 37.0005588 -10.87558649 31.58284041 -9.07348633 26.16552734 C-8.40074573 24.14226934 -7.72854315 22.11883236 -7.05688477 20.09521484 C-6.09271562 17.19061081 -5.12662873 14.28665082 -4.16015625 11.3828125 C-3.85908463 10.47443634 -3.558013 9.56606018 -3.24781799 8.63015747 C-2.967603 7.78943695 -2.687388 6.94871643 -2.39868164 6.08251953 C-2.02894981 4.96999313 -2.02894981 4.96999313 -1.65174866 3.83499146 C-1 2 -1 2 0 0 Z " fill="#7D7AC6" transform="translate(201,411)"/>
<path d="M0 0 C10.70165269 7.00917405 16.77987715 15.99753062 21.49609375 27.67578125 C24.15634048 42.18621799 21.50512703 56.23675122 13.18359375 68.42578125 C5.69906128 78.05095161 -5.03999025 83.64178945 -16.81640625 86.42578125 C-31.35163692 87.80398394 -43.30033794 84.3905975 -54.81640625 75.42578125 C-64.31787688 66.70258807 -69.72679565 55.31200429 -71.13671875 42.51953125 C-71.66446205 29.1500344 -66.69564166 17.04585739 -57.78515625 7.17578125 C-41.46968215 -8.43032441 -19.48419766 -10.89061256 0 0 Z " fill="#EB3F94" transform="translate(403.81640625,30.57421875)"/>
<path d="M0 0 C1.16595703 0.36738281 1.16595703 0.36738281 2.35546875 0.7421875 C14.54554645 5.01343953 22.92770169 13.80077798 29.08984375 24.9765625 C34.76875448 37.3515023 34.07422199 49.59889226 29.6171875 62.15234375 C24.22903381 75.83230485 13.95836632 83.25262541 1 89 C-9.02640025 93.08482973 -21.06375239 91.81095211 -31 88 C-42.23661487 83.19238793 -50.55546299 74.83498922 -56 64 C-56.32742187 63.35933594 -56.65484375 62.71867187 -56.9921875 62.05859375 C-61.37291798 52.73389601 -61.69352564 39.94395042 -58.375 30.25 C-52.4723446 16.16647133 -44.17055183 6.94258663 -30.1484375 0.73828125 C-20.309029 -2.9612325 -9.98496204 -3.48173025 0 0 Z " fill="#70D842" transform="translate(146,26)"/>
<path d="M0 0 C36.3 0 72.6 0 110 0 C124 41 124 41 125 46 C78.8 46 32.6 46 -15 46 C-10.75645286 30.44032716 -5.2306899 15.25617889 0 0 Z " fill="#625FB2" transform="translate(201,411)"/>
<path d="M0 0 C42.24 0 84.48 0 128 0 C127.67 1.65 127.34 3.3 127 5 C126.9139038 6.46428513 126.8694687 7.93162521 126.8671875 9.3984375 C126.86589844 10.20796875 126.86460937 11.0175 126.86328125 11.8515625 C126.86714844 12.68429688 126.87101562 13.51703125 126.875 14.375 C126.87113281 15.2 126.86726563 16.025 126.86328125 16.875 C126.86457031 17.68710938 126.86585938 18.49921875 126.8671875 19.3359375 C126.86887939 20.42720947 126.86887939 20.42720947 126.87060547 21.54052734 C127.03744267 24.71169332 127.55090918 27.85636424 128 31 C85.76 31 43.52 31 0 31 C0.33 29.35 0.66 27.7 1 26 C1.08749469 24.36632553 1.13056699 22.72976422 1.1328125 21.09375 C1.13410156 20.18496094 1.13539063 19.27617188 1.13671875 18.33984375 C1.13285156 17.40269531 1.12898437 16.46554688 1.125 15.5 C1.12886719 14.56285156 1.13273438 13.62570313 1.13671875 12.66015625 C1.13542969 11.75136719 1.13414062 10.84257813 1.1328125 9.90625 C1.13168457 9.08447266 1.13055664 8.26269531 1.12939453 7.41601562 C1.03363356 4.5467952 1.03363356 4.5467952 0 0 Z " fill="#7E7BC6" transform="translate(192,55)"/>
<path d="M0 0 C2.80433268 2.09378962 5.23339837 4.3583455 7.703125 6.8359375 C9.77010568 8.78339889 11.40516908 9.91683663 14 11 C14.70125 10.2059375 15.4025 9.411875 16.125 8.59375 C24.71317783 -0.78566402 24.71317783 -0.78566402 29.4375 -1 C33 0 33 0 35.5 2.1875 C37.16181514 5.30340338 37.47594635 6.54043297 37 10 C35.13671875 12.53515625 35.13671875 12.53515625 32.6875 15.0625 C29.93075667 17.94354093 27.3182839 20.75140153 25 24 C25.69867188 24.68707031 26.39734375 25.37414062 27.1171875 26.08203125 C28.48230469 27.43361328 28.48230469 27.43361328 29.875 28.8125 C30.77992188 29.70582031 31.68484375 30.59914063 32.6171875 31.51953125 C37.01638145 36.09902004 37.01638145 36.09902004 36.9375 40.4375 C36 44 36 44 33.8125 46.5 C30.19939093 48.4269915 28.89902106 48.15013963 25 47 C22.83160583 45.18545605 21.01678372 43.49635701 19.125 41.4375 C18.62742187 40.91736328 18.12984375 40.39722656 17.6171875 39.86132812 C16.39971388 38.58532211 15.19819008 37.29413056 14 36 C10.60584384 37.45463835 8.51975838 39.32275672 6 42 C3.50138719 44.65477611 1.43956429 46.69199668 -2 48 C-5.03536365 47.81416141 -7.22262247 47.44051393 -9.875 45.9375 C-11.3097605 43.46652359 -11.88751402 41.25084091 -11.83984375 38.390625 C-10.40426232 34.30422575 -7.03703081 31.63196361 -3.82568359 28.85742188 C-0.89707873 26.43709278 -0.89707873 26.43709278 0.15625 22.96875 C-1.47941483 20.18369907 -3.64644634 18.38401083 -6.0625 16.25 C-11.71896453 10.77939073 -11.71896453 10.77939073 -11.8125 6.5625 C-11 3 -11 3 -10 1 C-6.51923732 -0.74038134 -3.67263019 -1.09870281 0 0 Z " fill="#DBE9FC" transform="translate(367,47)"/>
<path d="M0 0 C3.00339193 2.00226129 3.81463343 3.25853373 4.6875 6.75 C2.87497874 15.3182823 -7.33302724 22.64603033 -13.39746094 28.80249023 C-14.47210287 29.8989066 -15.54042329 31.0015524 -16.60253906 32.11010742 C-18.15813879 33.73270953 -19.73264324 35.33464255 -21.3125 36.93359375 C-21.77938232 37.42830673 -22.24626465 37.92301971 -22.72729492 38.432724 C-26.25992158 41.94392123 -29.05664527 42.87106515 -34 43 C-36.5546875 41.4453125 -36.5546875 41.4453125 -38.875 39.125 C-39.71675781 38.30128906 -40.55851562 37.47757813 -41.42578125 36.62890625 C-42.27527344 35.76136719 -43.12476562 34.89382812 -44 34 C-44.85980469 33.16339844 -45.71960938 32.32679687 -46.60546875 31.46484375 C-53.87427568 24.35782267 -53.87427568 24.35782267 -54.3125 19.625 C-54 16 -54 16 -52.375 13.5625 C-50 12 -50 12 -47.25 11.3125 C-43.05919659 12.19901611 -41.07402769 14.16228025 -38.02734375 17.078125 C-35.7891055 19.19992311 -33.41662931 21.08578895 -31 23 C-30.01604248 22.00818726 -30.01604248 22.00818726 -29.01220703 20.99633789 C-26.58028964 18.54739147 -24.14614635 16.10070247 -21.71044922 13.65551758 C-20.6561597 12.59619526 -19.60276891 11.53597771 -18.55029297 10.47485352 C-17.03848143 8.95093039 -15.52348098 7.43024216 -14.0078125 5.91015625 C-13.09660645 4.99371338 -12.18540039 4.07727051 -11.24658203 3.13305664 C-7.55330416 -0.37359069 -5.05536735 -0.43580753 0 0 Z " fill="#D9ECFB" transform="translate(159,51)"/>
<path d="M0 0 C4.08379185 1.84974763 8.01444161 3.94152479 12 6 C12 13.92 12 21.84 12 30 C9.793125 31.175625 7.58625 32.35125 5.3125 33.5625 C4.62712158 33.93705322 3.94174316 34.31160645 3.2355957 34.69750977 C0.54404306 36.08560364 -1.50992925 37.01792942 -4.5625 36.90625 C-9.59172375 35.0364104 -14.23711153 32.45995339 -19 30 C-19 22.08 -19 14.16 -19 6 C-16.793125 4.824375 -14.58625 3.64875 -12.3125 2.4375 C-11.62712158 2.06294678 -10.94174316 1.68839355 -10.2355957 1.30249023 C-6.35976659 -0.6963615 -4.11844087 -1.53121519 0 0 Z " fill="#0C627E" transform="translate(267,180)"/>
<path d="M0 0 C2.18359375 1.5625 2.18359375 1.5625 4 4 C4.56640625 7.53125 4.56640625 7.53125 4.5625 11.5 C4.58441406 12.8096875 4.60632813 14.119375 4.62890625 15.46875 C4 19 4 19 1.625 21.44140625 C-1.32163561 23.19097114 -2.6437422 23.60240525 -6 23 C-9.08865366 21.19828537 -9.84807997 20.4557601 -11 17 C-11.17032265 14.8584021 -11.26617837 12.71036073 -11.3125 10.5625 C-11.36857422 8.86287109 -11.36857422 8.86287109 -11.42578125 7.12890625 C-11 4 -11 4 -9.19921875 1.62109375 C-6.00060885 -0.73667376 -3.87124077 -0.5530344 0 0 Z " fill="#0D7A9D" transform="translate(267,326)"/>
<path d="M0 0 C4.53048109 1.34236477 4.53048109 1.34236477 6.375 4 C6.72833741 6.58819655 6.88491486 8.85220076 6.875 11.4375 C6.9059375 12.75621094 6.936875 14.07492187 6.96875 15.43359375 C6.375 19 6.375 19 4.0703125 21.47265625 C1.375 23 1.375 23 -2.25 23 C-6.0591214 21.87137144 -6.72483397 21.367454 -8.625 18 C-9.52686118 12.11535581 -9.70494459 6.76718205 -6.5625 1.625 C-3.625 0 -3.625 0 0 0 Z " fill="#0C799C" transform="translate(264.625,287)"/>
</svg>
