<?xml version="1.0" encoding="UTF-8"?>
<svg version="1.1" xmlns="http://www.w3.org/2000/svg" width="512" height="512">
<path d="M0 0 C19.8 0 39.6 0 60 0 C60 11.55 60 23.1 60 35 C63.63 35.99 67.26 36.98 71 38 C74.46819881 39.53863215 77.78936305 41.23528159 81.15234375 42.98828125 C83.83310844 44.27283576 83.83310844 44.27283576 85.86645508 43.36254883 C88.6101233 41.61035609 90.69589974 39.52732099 92.984375 37.2109375 C93.44483215 36.74765045 93.90528931 36.2843634 94.37969971 35.80703735 C95.84125078 34.33434102 97.29567168 32.85482597 98.75 31.375 C99.74302611 30.37193678 100.73651089 29.36932743 101.73046875 28.3671875 C104.15897941 25.91669165 106.58114675 23.4600333 109 21 C112.35999018 22.45868754 114.55203106 24.30868948 117.12597656 26.89892578 C117.92650452 27.6996048 118.72703247 28.50028381 119.55181885 29.32522583 C120.40612488 30.18985443 121.26043091 31.05448303 122.140625 31.9453125 C123.02280701 32.8303244 123.90498901 33.7153363 124.81390381 34.62716675 C127.15194543 36.97450131 129.48555874 39.32606785 131.81713867 41.67980957 C134.19996526 44.08313927 136.58850348 46.48077767 138.9765625 48.87890625 C143.65631862 53.58071467 148.33031867 58.28818664 153 63 C151.26239853 66.71713736 149.14323122 69.08741012 146.2109375 71.984375 C145.74765045 72.44483215 145.2843634 72.90528931 144.80703735 73.37969971 C143.33434102 74.84125078 141.85482597 76.29567168 140.375 77.75 C139.37193678 78.74302611 138.36932743 79.73651089 137.3671875 80.73046875 C134.91669165 83.15897941 132.4600333 85.58114675 130 88 C131.7301019 93.27683406 133.74642714 98.39698183 135.87695312 103.52148438 C137.32664809 107.0752254 138.23904818 110.19524091 139 114 C150.55 114 162.1 114 174 114 C174 133.8 174 153.6 174 174 C162.45 174 150.9 174 139 174 C138.01 177.63 137.02 181.26 136 185 C134.46136785 188.46819881 132.76471841 191.78936305 131.01171875 195.15234375 C129.72716424 197.83310844 129.72716424 197.83310844 130.63745117 199.86645508 C132.38964391 202.6101233 134.47267901 204.69589974 136.7890625 206.984375 C137.25234955 207.44483215 137.7156366 207.90528931 138.19296265 208.37969971 C139.66565898 209.84125078 141.14517403 211.29567168 142.625 212.75 C143.62806322 213.74302611 144.63067257 214.73651089 145.6328125 215.73046875 C148.08330835 218.15897941 150.5399667 220.58114675 153 223 C151.54131246 226.35999018 149.69131052 228.55203106 147.10107422 231.12597656 C145.90005569 232.32676849 145.90005569 232.32676849 144.67477417 233.55181885 C143.81014557 234.40612488 142.94551697 235.26043091 142.0546875 236.140625 C141.1696756 237.02280701 140.2846637 237.90498901 139.37283325 238.81390381 C137.02549869 241.15194543 134.67393215 243.48555874 132.32019043 245.81713867 C129.91686073 248.19996526 127.51922233 250.58850348 125.12109375 252.9765625 C120.41928533 257.65631862 115.71181336 262.33031867 111 267 C107.28286264 265.26239853 104.91258988 263.14323122 102.015625 260.2109375 C101.32493927 259.51600693 101.32493927 259.51600693 100.62030029 258.80703735 C99.15874922 257.33434102 97.70432832 255.85482597 96.25 254.375 C95.25697389 253.37193678 94.26348911 252.36932743 93.26953125 251.3671875 C90.84102059 248.91669165 88.41885325 246.4600333 86 244 C80.72316594 245.7301019 75.60301817 247.74642714 70.47851562 249.87695312 C66.9247746 251.32664809 63.80475909 252.23904818 60 253 C60 264.55 60 276.1 60 288 C40.2 288 20.4 288 0 288 C0 276.45 0 264.9 0 253 C-3.63 252.01 -7.26 251.02 -11 250 C-14.46819881 248.46136785 -17.78936305 246.76471841 -21.15234375 245.01171875 C-23.83310844 243.72716424 -23.83310844 243.72716424 -25.86645508 244.63745117 C-28.6101233 246.38964391 -30.69589974 248.47267901 -32.984375 250.7890625 C-33.44483215 251.25234955 -33.90528931 251.7156366 -34.37969971 252.19296265 C-35.84125078 253.66565898 -37.29567168 255.14517403 -38.75 256.625 C-39.74302611 257.62806322 -40.73651089 258.63067257 -41.73046875 259.6328125 C-44.15897941 262.08330835 -46.58114675 264.5399667 -49 267 C-52.35999018 265.54131246 -54.55203106 263.69131052 -57.12597656 261.10107422 C-58.32676849 259.90005569 -58.32676849 259.90005569 -59.55181885 258.67477417 C-60.40612488 257.81014557 -61.26043091 256.94551697 -62.140625 256.0546875 C-63.02280701 255.1696756 -63.90498901 254.2846637 -64.81390381 253.37283325 C-67.15194543 251.02549869 -69.48555874 248.67393215 -71.81713867 246.32019043 C-74.19996526 243.91686073 -76.58850348 241.51922233 -78.9765625 239.12109375 C-83.65631862 234.41928533 -88.33031867 229.71181336 -93 225 C-91.26239853 221.28286264 -89.14323122 218.91258988 -86.2109375 216.015625 C-85.51600693 215.32493927 -85.51600693 215.32493927 -84.80703735 214.62030029 C-83.33434102 213.15874922 -81.85482597 211.70432832 -80.375 210.25 C-79.37193678 209.25697389 -78.36932743 208.26348911 -77.3671875 207.26953125 C-74.91669165 204.84102059 -72.4600333 202.41885325 -70 200 C-71.7301019 194.72316594 -73.74642714 189.60301817 -75.87695312 184.47851562 C-77.32664809 180.9247746 -78.23904818 177.80475909 -79 174 C-90.55 174 -102.1 174 -114 174 C-114 154.2 -114 134.4 -114 114 C-102.45 114 -90.9 114 -79 114 C-78.01 110.37 -77.02 106.74 -76 103 C-74.46136785 99.53180119 -72.76471841 96.21063695 -71.01171875 92.84765625 C-69.72716424 90.16689156 -69.72716424 90.16689156 -70.63745117 88.13354492 C-72.38964391 85.3898767 -74.47267901 83.30410026 -76.7890625 81.015625 C-77.25234955 80.55516785 -77.7156366 80.09471069 -78.19296265 79.62030029 C-79.66565898 78.15874922 -81.14517403 76.70432832 -82.625 75.25 C-83.62806322 74.25697389 -84.63067257 73.26348911 -85.6328125 72.26953125 C-88.08330835 69.84102059 -90.5399667 67.41885325 -93 65 C-91.54131246 61.64000982 -89.69131052 59.44796894 -87.10107422 56.87402344 C-85.90005569 55.67323151 -85.90005569 55.67323151 -84.67477417 54.44818115 C-83.81014557 53.59387512 -82.94551697 52.73956909 -82.0546875 51.859375 C-81.1696756 50.97719299 -80.2846637 50.09501099 -79.37283325 49.18609619 C-77.02549869 46.84805457 -74.67393215 44.51444126 -72.32019043 42.18286133 C-69.91686073 39.80003474 -67.51922233 37.41149652 -65.12109375 35.0234375 C-60.41928533 30.34368138 -55.71181336 25.66968133 -51 21 C-47.28286264 22.73760147 -44.91258988 24.85676878 -42.015625 27.7890625 C-41.55516785 28.25234955 -41.09471069 28.7156366 -40.62030029 29.19296265 C-39.15874922 30.66565898 -37.70432832 32.14517403 -36.25 33.625 C-35.25697389 34.62806322 -34.26348911 35.63067257 -33.26953125 36.6328125 C-30.84102059 39.08330835 -28.41885325 41.5399667 -26 44 C-20.72316594 42.2698981 -15.60301817 40.25357286 -10.47851562 38.12304688 C-6.9247746 36.67335191 -3.80475909 35.76095182 0 35 C0 23.45 0 11.9 0 0 Z " fill="#FDEC87" transform="translate(226,112)"/>
<path d="M0 0 C19.8 0 39.6 0 60 0 C60 11.55 60 23.1 60 35 C63.63 35.99 67.26 36.98 71 38 C74.46819881 39.53863215 77.78936305 41.23528159 81.15234375 42.98828125 C83.83310844 44.27283576 83.83310844 44.27283576 85.86645508 43.36254883 C88.6101233 41.61035609 90.69589974 39.52732099 92.984375 37.2109375 C93.44483215 36.74765045 93.90528931 36.2843634 94.37969971 35.80703735 C95.84125078 34.33434102 97.29567168 32.85482597 98.75 31.375 C99.74302611 30.37193678 100.73651089 29.36932743 101.73046875 28.3671875 C104.15897941 25.91669165 106.58114675 23.4600333 109 21 C112.35999018 22.45868754 114.55203106 24.30868948 117.12597656 26.89892578 C117.92650452 27.6996048 118.72703247 28.50028381 119.55181885 29.32522583 C120.40612488 30.18985443 121.26043091 31.05448303 122.140625 31.9453125 C123.02280701 32.8303244 123.90498901 33.7153363 124.81390381 34.62716675 C127.15194543 36.97450131 129.48555874 39.32606785 131.81713867 41.67980957 C134.19996526 44.08313927 136.58850348 46.48077767 138.9765625 48.87890625 C143.65631862 53.58071467 148.33031867 58.28818664 153 63 C151.26239853 66.71713736 149.14323122 69.08741012 146.2109375 71.984375 C145.74765045 72.44483215 145.2843634 72.90528931 144.80703735 73.37969971 C143.33434102 74.84125078 141.85482597 76.29567168 140.375 77.75 C139.37193678 78.74302611 138.36932743 79.73651089 137.3671875 80.73046875 C134.91669165 83.15897941 132.4600333 85.58114675 130 88 C131.7301019 93.27683406 133.74642714 98.39698183 135.87695312 103.52148438 C137.32664809 107.0752254 138.23904818 110.19524091 139 114 C150.55 114 162.1 114 174 114 C174 133.8 174 153.6 174 174 C162.45 174 150.9 174 139 174 C138.01 177.63 137.02 181.26 136 185 C134.46136785 188.46819881 132.76471841 191.78936305 131.01171875 195.15234375 C129.72716424 197.83310844 129.72716424 197.83310844 130.63745117 199.86645508 C132.38964391 202.6101233 134.47267901 204.69589974 136.7890625 206.984375 C137.25234955 207.44483215 137.7156366 207.90528931 138.19296265 208.37969971 C139.66565898 209.84125078 141.14517403 211.29567168 142.625 212.75 C143.62806322 213.74302611 144.63067257 214.73651089 145.6328125 215.73046875 C148.08330835 218.15897941 150.5399667 220.58114675 153 223 C151.54131246 226.35999018 149.69131052 228.55203106 147.10107422 231.12597656 C145.90005569 232.32676849 145.90005569 232.32676849 144.67477417 233.55181885 C143.81014557 234.40612488 142.94551697 235.26043091 142.0546875 236.140625 C141.1696756 237.02280701 140.2846637 237.90498901 139.37283325 238.81390381 C137.02549869 241.15194543 134.67393215 243.48555874 132.32019043 245.81713867 C129.91686073 248.19996526 127.51922233 250.58850348 125.12109375 252.9765625 C120.41928533 257.65631862 115.71181336 262.33031867 111 267 C107.28286264 265.26239853 104.91258988 263.14323122 102.015625 260.2109375 C101.32493927 259.51600693 101.32493927 259.51600693 100.62030029 258.80703735 C99.15874922 257.33434102 97.70432832 255.85482597 96.25 254.375 C95.25697389 253.37193678 94.26348911 252.36932743 93.26953125 251.3671875 C90.84102059 248.91669165 88.41885325 246.4600333 86 244 C80.72316594 245.7301019 75.60301817 247.74642714 70.47851562 249.87695312 C66.9247746 251.32664809 63.80475909 252.23904818 60 253 C60 264.55 60 276.1 60 288 C40.2 288 20.4 288 0 288 C0 276.45 0 264.9 0 253 C-3.63 252.01 -7.26 251.02 -11 250 C-14.46819881 248.46136785 -17.78936305 246.76471841 -21.15234375 245.01171875 C-23.83310844 243.72716424 -23.83310844 243.72716424 -25.86645508 244.63745117 C-28.6101233 246.38964391 -30.69589974 248.47267901 -32.984375 250.7890625 C-33.44483215 251.25234955 -33.90528931 251.7156366 -34.37969971 252.19296265 C-35.84125078 253.66565898 -37.29567168 255.14517403 -38.75 256.625 C-39.74302611 257.62806322 -40.73651089 258.63067257 -41.73046875 259.6328125 C-44.15897941 262.08330835 -46.58114675 264.5399667 -49 267 C-52.35999018 265.54131246 -54.55203106 263.69131052 -57.12597656 261.10107422 C-58.32676849 259.90005569 -58.32676849 259.90005569 -59.55181885 258.67477417 C-60.40612488 257.81014557 -61.26043091 256.94551697 -62.140625 256.0546875 C-63.02280701 255.1696756 -63.90498901 254.2846637 -64.81390381 253.37283325 C-67.15194543 251.02549869 -69.48555874 248.67393215 -71.81713867 246.32019043 C-74.19996526 243.91686073 -76.58850348 241.51922233 -78.9765625 239.12109375 C-83.65631862 234.41928533 -88.33031867 229.71181336 -93 225 C-91.26239853 221.28286264 -89.14323122 218.91258988 -86.2109375 216.015625 C-85.51600693 215.32493927 -85.51600693 215.32493927 -84.80703735 214.62030029 C-83.33434102 213.15874922 -81.85482597 211.70432832 -80.375 210.25 C-79.37193678 209.25697389 -78.36932743 208.26348911 -77.3671875 207.26953125 C-74.91669165 204.84102059 -72.4600333 202.41885325 -70 200 C-71.7301019 194.72316594 -73.74642714 189.60301817 -75.87695312 184.47851562 C-77.32664809 180.9247746 -78.23904818 177.80475909 -79 174 C-90.55 174 -102.1 174 -114 174 C-114 154.2 -114 134.4 -114 114 C-102.45 114 -90.9 114 -79 114 C-78.01 110.37 -77.02 106.74 -76 103 C-74.46136785 99.53180119 -72.76471841 96.21063695 -71.01171875 92.84765625 C-69.72716424 90.16689156 -69.72716424 90.16689156 -70.63745117 88.13354492 C-72.38964391 85.3898767 -74.47267901 83.30410026 -76.7890625 81.015625 C-77.25234955 80.55516785 -77.7156366 80.09471069 -78.19296265 79.62030029 C-79.66565898 78.15874922 -81.14517403 76.70432832 -82.625 75.25 C-83.62806322 74.25697389 -84.63067257 73.26348911 -85.6328125 72.26953125 C-88.08330835 69.84102059 -90.5399667 67.41885325 -93 65 C-91.54131246 61.64000982 -89.69131052 59.44796894 -87.10107422 56.87402344 C-85.90005569 55.67323151 -85.90005569 55.67323151 -84.67477417 54.44818115 C-83.81014557 53.59387512 -82.94551697 52.73956909 -82.0546875 51.859375 C-81.1696756 50.97719299 -80.2846637 50.09501099 -79.37283325 49.18609619 C-77.02549869 46.84805457 -74.67393215 44.51444126 -72.32019043 42.18286133 C-69.91686073 39.80003474 -67.51922233 37.41149652 -65.12109375 35.0234375 C-60.41928533 30.34368138 -55.71181336 25.66968133 -51 21 C-47.28286264 22.73760147 -44.91258988 24.85676878 -42.015625 27.7890625 C-41.55516785 28.25234955 -41.09471069 28.7156366 -40.62030029 29.19296265 C-39.15874922 30.66565898 -37.70432832 32.14517403 -36.25 33.625 C-35.25697389 34.62806322 -34.26348911 35.63067257 -33.26953125 36.6328125 C-30.84102059 39.08330835 -28.41885325 41.5399667 -26 44 C-20.72316594 42.2698981 -15.60301817 40.25357286 -10.47851562 38.12304688 C-6.9247746 36.67335191 -3.80475909 35.76095182 0 35 C0 23.45 0 11.9 0 0 Z M15 16 C15 26.56 15 37.12 15 48 C13.02 48 11.04 48 9 48 C6.10746092 48.58504577 3.35483355 49.54980175 0.5625 50.5 C-0.22012207 50.76264648 -1.00274414 51.02529297 -1.80908203 51.29589844 C-9.67795316 54.04992374 -16.78033256 57.87977848 -24 62 C-25.98 62.99 -25.98 62.99 -28 64 C-34.93 57.07 -41.86 50.14 -49 43 C-52.68753843 44.84376922 -54.50068924 46.2649848 -57.328125 49.1328125 C-58.52695313 50.34130859 -58.52695313 50.34130859 -59.75 51.57421875 C-60.575 52.41597656 -61.4 53.25773437 -62.25 54.125 C-63.09046875 54.97449219 -63.9309375 55.82398438 -64.796875 56.69921875 C-66.86915683 58.79504923 -68.93662393 60.89540713 -71 63 C-69.48623919 66.56764285 -67.39486871 68.83706287 -64.6484375 71.546875 C-63.79765625 72.39121094 -62.946875 73.23554688 -62.0703125 74.10546875 C-61.18085938 74.97816406 -60.29140625 75.85085937 -59.375 76.75 C-58.4778125 77.63816406 -57.580625 78.52632812 -56.65625 79.44140625 C-54.44192996 81.63216969 -52.22307565 83.81812763 -50 86 C-50.39687012 86.72010254 -50.79374023 87.44020508 -51.20263672 88.18212891 C-62.0735388 107.53524425 -62.0735388 107.53524425 -66 129 C-76.56 129 -87.12 129 -98 129 C-98 138.9 -98 148.8 -98 159 C-87.44 159 -76.88 159 -66 159 C-65.67 161.64 -65.34 164.28 -65 167 C-64.34534617 169.89567854 -63.43782633 172.68402845 -62.5 175.5 C-62.24589355 176.26812012 -61.99178711 177.03624023 -61.72998047 177.82763672 C-58.8356025 186.12326729 -54.57741515 193.53372729 -50 201 C-54.38442526 206.25174926 -59.00842093 211.13222473 -63.875 215.9375 C-64.56335938 216.62134766 -65.25171875 217.30519531 -65.9609375 218.00976562 C-67.63833511 219.67551464 -69.31803791 221.3388622 -71 223 C-69.51346494 226.46629835 -67.54277649 228.69022036 -64.8671875 231.328125 C-64.06152344 232.12734375 -63.25585938 232.9265625 -62.42578125 233.75 C-61.58402344 234.575 -60.74226563 235.4 -59.875 236.25 C-59.02550781 237.09046875 -58.17601562 237.9309375 -57.30078125 238.796875 C-55.20495077 240.86915683 -53.10459287 242.93662393 -51 245 C-47.43235715 243.48623919 -45.16293713 241.39486871 -42.453125 238.6484375 C-41.60878906 237.79765625 -40.76445312 236.946875 -39.89453125 236.0703125 C-39.02183594 235.18085938 -38.14914063 234.29140625 -37.25 233.375 C-36.36183594 232.4778125 -35.47367188 231.580625 -34.55859375 230.65625 C-32.36783031 228.44192996 -30.18187237 226.22307565 -28 224 C-27.27844727 224.39687012 -26.55689453 224.79374023 -25.81347656 225.20263672 C-6.49781082 236.01407066 -6.49781082 236.01407066 15 240 C15 250.56 15 261.12 15 272 C24.9 272 34.8 272 45 272 C45 261.44 45 250.88 45 240 C47.64 239.67 50.28 239.34 53 239 C55.89567854 238.34534617 58.68402845 237.43782633 61.5 236.5 C62.26812012 236.24589355 63.03624023 235.99178711 63.82763672 235.72998047 C72.12326729 232.8356025 79.53372729 228.57741515 87 224 C92.25174926 228.38442526 97.13222473 233.00842093 101.9375 237.875 C102.62134766 238.56335938 103.30519531 239.25171875 104.00976562 239.9609375 C105.67551464 241.63833511 107.3388622 243.31803791 109 245 C112.46629835 243.51346494 114.69022036 241.54277649 117.328125 238.8671875 C118.12734375 238.06152344 118.9265625 237.25585938 119.75 236.42578125 C120.575 235.58402344 121.4 234.74226562 122.25 233.875 C123.09046875 233.02550781 123.9309375 232.17601562 124.796875 231.30078125 C126.86915683 229.20495077 128.93662393 227.10459287 131 225 C129.48623919 221.43235715 127.39486871 219.16293713 124.6484375 216.453125 C123.79765625 215.60878906 122.946875 214.76445312 122.0703125 213.89453125 C121.18085938 213.02183594 120.29140625 212.14914062 119.375 211.25 C118.4778125 210.36183594 117.580625 209.47367188 116.65625 208.55859375 C114.44192996 206.36783031 112.22307565 204.18187237 110 202 C110.39687012 201.28569824 110.79374023 200.57139648 111.20263672 199.83544922 C121.98986716 180.42457568 121.98986716 180.42457568 126 159 C136.56 159 147.12 159 158 159 C158 149.1 158 139.2 158 129 C147.44 129 136.88 129 126 129 C125.67 126.36 125.34 123.72 125 121 C122.82390787 110.23611572 118.35747786 101.26778213 112.98974609 91.79248047 C111.93944877 89.89033865 110.97172712 87.94345424 110 86 C120.395 75.605 120.395 75.605 131 65 C129.15623078 61.31246157 127.7350152 59.49931076 124.8671875 56.671875 C123.65869141 55.47304687 123.65869141 55.47304687 122.42578125 54.25 C121.58402344 53.425 120.74226562 52.6 119.875 51.75 C119.02550781 50.90953125 118.17601562 50.0690625 117.30078125 49.203125 C115.20495077 47.13084317 113.10459287 45.06337607 111 43 C107.43235715 44.51376081 105.16293713 46.60513129 102.453125 49.3515625 C101.60878906 50.20234375 100.76445312 51.053125 99.89453125 51.9296875 C99.02183594 52.81914062 98.14914062 53.70859375 97.25 54.625 C96.36183594 55.5221875 95.47367188 56.419375 94.55859375 57.34375 C92.36783031 59.55807004 90.18187237 61.77692435 88 64 C86.89918091 63.39490601 86.89918091 63.39490601 85.77612305 62.77758789 C84.80199463 62.24383545 83.82786621 61.71008301 82.82421875 61.16015625 C81.86346436 60.63301025 80.90270996 60.10586426 79.9128418 59.56274414 C72.70809956 55.69738876 65.40377341 52.67193144 57.625 50.1875 C56.94671143 49.96827881 56.26842285 49.74905762 55.56958008 49.52319336 C51.77332248 48.35572995 49.05780177 48 45 48 C45 37.44 45 26.88 45 16 C35.1 16 25.2 16 15 16 Z " fill="#010100" transform="translate(226,112)"/>
<path d="M0 0 C0.83176758 0.00821777 1.66353516 0.01643555 2.52050781 0.02490234 C20.19729146 0.34411416 34.5399555 5.76054333 48.6875 16.25 C49.739375 17.013125 50.79125 17.77625 51.875 18.5625 C65.38872042 31.47561062 76.23698892 49.54432702 76.890625 68.65625 C77.10407012 82.58217577 75.39455915 94.41635937 69.6875 107.25 C65.7275 106.26 65.7275 106.26 61.6875 105.25 C61.31625 106.301875 61.31625 106.301875 60.9375 107.375 C59.52661974 110.62002459 57.70854602 113.35316737 55.6875 116.25 C56.89131448 118.74361571 58.14178722 120.93143083 59.6875 123.25 C59.20539063 123.72050781 58.72328125 124.19101562 58.2265625 124.67578125 C57.59492188 125.29839844 56.96328125 125.92101562 56.3125 126.5625 C55.68601562 127.17738281 55.05953125 127.79226563 54.4140625 128.42578125 C52.50663393 130.33812528 52.50663393 130.33812528 50.6875 133.25 C48.02083333 131.91666667 45.35416667 130.58333333 42.6875 129.25 C41.22727837 130.20545366 39.76938532 131.16446678 38.3125 132.125 C37.50039063 132.65867187 36.68828125 133.19234375 35.8515625 133.7421875 C33.61155904 135.20865055 33.61155904 135.20865055 31.6875 137.25 C32.3475 139.23 33.0075 141.21 33.6875 143.25 C16.44570629 151.13368229 -2.45265461 153.23608271 -20.78125 147.578125 C-30.54274166 143.90676752 -39.51632579 139.27482128 -47.3125 132.25 C-48.20710938 131.44820312 -49.10171875 130.64640625 -50.0234375 129.8203125 C-63.84613245 116.75502549 -72.77319654 99.39343045 -73.6484375 80.20703125 C-74.00436289 59.96596273 -69.15742325 41.61515011 -55.3125 26.25 C-54.51070312 25.35539062 -53.70890625 24.46078125 -52.8828125 23.5390625 C-39.01500547 8.86732463 -20.35266638 -0.24677503 0 0 Z " fill="#5B92F1" transform="translate(254.3125,180.75)"/>
<path d="M0 0 C0.83176758 0.00821777 1.66353516 0.01643555 2.52050781 0.02490234 C20.19729146 0.34411416 34.5399555 5.76054333 48.6875 16.25 C49.739375 17.013125 50.79125 17.77625 51.875 18.5625 C65.38872042 31.47561062 76.23698892 49.54432702 76.890625 68.65625 C77.10407012 82.58217577 75.39455915 94.41635937 69.6875 107.25 C64.7151578 105.75829734 60.26904261 103.64542583 55.6875 101.25 C56.22890625 99.73986328 56.22890625 99.73986328 56.78125 98.19921875 C62.92461815 80.04020955 62.38333408 64.35543727 54.1484375 47.0078125 C45.78031358 31.42168596 32.35288505 22.34829214 15.6875 17.25 C0.72060875 13.06310812 -15.69408625 17.02948754 -28.98046875 24.234375 C-42.86931717 32.63606994 -51.83155076 45.67051579 -56.4609375 61.0703125 C-60.44410966 78.07750294 -56.08583952 94.59376227 -47.3125 109.25 C-37.13317547 122.88435074 -23.20780073 131.69605919 -6.3125 134.25 C4.74770466 135.28998939 14.19313418 133.95127067 24.6875 130.25 C25.6775 129.92 26.6675 129.59 27.6875 129.25 C28.69234204 131.20585325 29.69123805 133.16476237 30.6875 135.125 C31.244375 136.21554687 31.80125 137.30609375 32.375 138.4296875 C33.6875 141.25 33.6875 141.25 33.6875 143.25 C16.44570629 151.13368229 -2.45265461 153.23608271 -20.78125 147.578125 C-30.54274166 143.90676752 -39.51632579 139.27482128 -47.3125 132.25 C-48.20710938 131.44820312 -49.10171875 130.64640625 -50.0234375 129.8203125 C-63.84613245 116.75502549 -72.77319654 99.39343045 -73.6484375 80.20703125 C-74.00436289 59.96596273 -69.15742325 41.61515011 -55.3125 26.25 C-54.51070312 25.35539062 -53.70890625 24.46078125 -52.8828125 23.5390625 C-39.01500547 8.86732463 -20.35266638 -0.24677503 0 0 Z " fill="#030302" transform="translate(254.3125,180.75)"/>
<path d="M0 0 C3.34463939 2.76296297 6.49255854 5.4399228 9.41015625 8.66015625 C10.24417969 9.57667969 11.07820313 10.49320312 11.9375 11.4375 C12.70964844 12.32308594 13.48179687 13.20867187 14.27734375 14.12109375 C16.95780142 16.35886734 16.95780142 16.35886734 20.7109375 15.94921875 C26.2884504 14.87301749 31.74991936 13.23455667 37.19726562 11.640625 C38.00228516 11.41632813 38.80730469 11.19203125 39.63671875 10.9609375 C40.35561279 10.75259277 41.07450684 10.54424805 41.81518555 10.32958984 C44.63134438 9.90475864 46.28494677 10.07545011 49 11 C51.15034589 12.68069867 53.04827623 14.32234161 54.9921875 16.21484375 C55.54238556 16.74461319 56.09258362 17.27438263 56.65945435 17.82020569 C57.81619866 18.94362531 58.96737842 20.0727994 60.11328125 21.20727539 C61.86528505 22.92795873 63.65311614 24.60455852 65.4453125 26.28320312 C73.46514749 34.02075556 73.46514749 34.02075556 74.67504883 38.49804688 C74.48609733 41.20719906 73.84855353 43.41787453 73 46 C72.5473751 47.84503673 72.09511255 49.69016996 71.64898682 51.53678894 C70.81046162 54.91739957 69.86775868 58.26872565 68.9375 61.625 C68.55591029 63.02454066 68.17504549 64.42427918 67.79492188 65.82421875 C66.8716181 69.21846517 65.93856571 72.60993766 65 76 C60.27030083 77.29137502 55.53805339 78.57278318 50.80322266 79.84521484 C49.19441931 80.27903855 47.58633263 80.71552944 45.97900391 81.15478516 C43.6623376 81.78738568 41.3432239 82.41020236 39.0234375 83.03125 C38.31069672 83.22811401 37.59795593 83.42497803 36.86361694 83.62780762 C32.80702261 84.70232737 29.1686773 85.66423012 25 85 C22.6293092 83.26275718 20.74052763 81.65322983 18.69140625 79.59375 C17.83493752 78.75656433 17.83493752 78.75656433 16.96116638 77.90246582 C15.7611761 76.71966927 14.56892236 75.52897875 13.3840332 74.33105469 C11.56933143 72.50686714 9.71834698 70.7262785 7.86132812 68.9453125 C6.69809223 67.78889614 5.53720146 66.63011504 4.37890625 65.46875 C3.82384903 64.94132202 3.26879181 64.41389404 2.69691467 63.8704834 C0.66571551 61.7635619 -0.92723174 59.98061236 -1.14959717 56.98405457 C-0.9128418 54.89331055 -0.9128418 54.89331055 0 51 C0.19416504 50.15091064 0.38833008 49.30182129 0.58837891 48.42700195 C0.79897949 47.70472412 1.00958008 46.98244629 1.2265625 46.23828125 C1.4534375 45.42939453 1.6803125 44.62050781 1.9140625 43.78710938 C2.39172797 42.12446611 2.87356493 40.46301613 3.359375 38.80273438 C3.58367187 37.99771484 3.80796875 37.19269531 4.0390625 36.36328125 C4.24740723 35.64438721 4.45575195 34.92549316 4.67041016 34.18481445 C5.08114096 31.46212556 4.82313219 29.62860319 4 27 C2.53689663 24.99180294 2.53689663 24.99180294 0.62109375 23.23046875 C-0.05244141 22.56982422 -0.72597656 21.90917969 -1.41992188 21.22851562 C-2.12697266 20.55498047 -2.83402344 19.88144531 -3.5625 19.1875 C-4.27341797 18.49462891 -4.98433594 17.80175781 -5.71679688 17.08789062 C-7.46918312 15.3825483 -9.23021469 13.68724824 -11 12 C-10.06122074 10.8934059 -9.12079084 9.78821201 -8.1796875 8.68359375 C-7.39440674 7.76018188 -7.39440674 7.76018188 -6.59326172 6.81811523 C-4.4984209 4.42763415 -2.28027529 2.21320837 0 0 Z " fill="#000000" transform="translate(373,362)"/>
<path d="M0 0 C1.73788414 0.43847396 3.45739913 0.95214851 5.16015625 1.51171875 C7.00519298 1.96434365 8.85032621 2.4166062 10.69694519 2.86273193 C14.07755582 3.70125713 17.4288819 4.64396007 20.78515625 5.57421875 C22.18469691 5.95580846 23.58443543 6.33667326 24.984375 6.71679688 C28.37862142 7.64010065 31.77009391 8.57315304 35.16015625 9.51171875 C36.45153127 14.24141792 37.73293943 18.97366536 39.00537109 23.70849609 C39.4391948 25.31729944 39.87568569 26.92538612 40.31494141 28.53271484 C40.94754193 30.84938115 41.57035861 33.16849485 42.19140625 35.48828125 C42.38827026 36.20102203 42.58513428 36.91376282 42.78796387 37.64810181 C43.86248362 41.70469614 44.82438637 45.34304145 44.16015625 49.51171875 C42.42291343 51.88240955 40.81338608 53.77119112 38.75390625 55.8203125 C37.91672058 56.67678123 37.91672058 56.67678123 37.06262207 57.55055237 C35.87982552 58.75054265 34.689135 59.94279639 33.49121094 61.12768555 C31.66702339 62.94238732 29.88643475 64.79337177 28.10546875 66.65039062 C26.94905239 67.81362652 25.79027129 68.97451729 24.62890625 70.1328125 C24.10147827 70.68786972 23.57405029 71.24292694 23.03063965 71.81480408 C20.92014622 73.84944679 19.13799996 75.44002894 16.13652039 75.66007996 C14.03979492 75.42236328 14.03979492 75.42236328 10.16015625 74.51171875 C9.34135986 74.32279053 8.52256348 74.1338623 7.67895508 73.93920898 C6.99857178 73.73497314 6.31818848 73.5307373 5.6171875 73.3203125 C4.85341797 73.09794922 4.08964844 72.87558594 3.30273438 72.64648438 C1.73752045 72.178101 0.17241785 71.70934547 -1.39257812 71.24023438 C-2.15248047 71.01916016 -2.91238281 70.79808594 -3.6953125 70.5703125 C-4.71081177 70.26565063 -4.71081177 70.26565063 -5.74682617 69.95483398 C-8.26563134 69.42157475 -10.27138207 69.21785652 -12.83984375 69.51171875 C-14.9670718 70.95338827 -14.9670718 70.95338827 -16.828125 73.01171875 C-17.88676758 74.09453125 -17.88676758 74.09453125 -18.96679688 75.19921875 C-19.68802734 75.96234375 -20.40925781 76.72546875 -21.15234375 77.51171875 C-21.89291016 78.27484375 -22.63347656 79.03796875 -23.39648438 79.82421875 C-25.22267531 81.70931907 -27.03620134 83.60507444 -28.83984375 85.51171875 C-33.36600368 81.83339858 -37.23409374 78.10085512 -40.83984375 73.51171875 C-40.10495728 72.8475293 -40.10495728 72.8475293 -39.35522461 72.16992188 C-37.1390198 70.1413253 -34.95871379 68.07770146 -32.77734375 66.01171875 C-32.00583984 65.315625 -31.23433594 64.61953125 -30.43945312 63.90234375 C-25.83962125 59.59103602 -25.83962125 59.59103602 -24.6796875 53.5859375 C-25.02033769 52.21558321 -25.41056024 50.85694331 -25.83984375 49.51171875 C-26.03731201 48.74359863 -26.23478027 47.97547852 -26.43823242 47.18408203 C-27.29234468 43.87452153 -28.2393869 40.59472954 -29.19921875 37.31445312 C-29.42351562 36.50943359 -29.6478125 35.70441406 -29.87890625 34.875 C-30.08725098 34.15610596 -30.2955957 33.43721191 -30.51025391 32.6965332 C-30.93508511 29.88037437 -30.76439364 28.22677198 -29.83984375 25.51171875 C-28.15914508 23.36137286 -26.51750214 21.46344252 -24.625 19.51953125 C-24.09523056 18.96933319 -23.56546112 18.41913513 -23.01963806 17.8522644 C-21.89621844 16.69552009 -20.76704435 15.54434033 -19.63256836 14.3984375 C-17.91188502 12.6464337 -16.23528523 10.85860261 -14.55664062 9.06640625 C-5.44308513 -0.37963135 -5.44308513 -0.37963135 0 0 Z " fill="#000000" transform="translate(402.83984375,64.48828125)"/>
<path d="M0 0 C4.52615993 3.67832017 8.39424999 7.41086363 12 12 C11.51007568 12.44279297 11.02015137 12.88558594 10.51538086 13.34179688 C8.29917605 15.37039345 6.11887004 17.43401729 3.9375 19.5 C3.16599609 20.19609375 2.39449219 20.8921875 1.59960938 21.609375 C-3.0002225 25.92068273 -3.0002225 25.92068273 -4.16015625 31.92578125 C-3.81950606 33.29613554 -3.42928351 34.65477544 -3 36 C-2.80253174 36.76812012 -2.60506348 37.53624023 -2.40161133 38.32763672 C-1.54749907 41.63719722 -0.60045685 44.91698921 0.359375 48.19726562 C0.58367187 49.00228516 0.80796875 49.80730469 1.0390625 50.63671875 C1.24740723 51.35561279 1.45575195 52.07450684 1.67041016 52.81518555 C2.09548028 55.63292816 1.92722448 57.28382868 1 60 C-0.69270121 62.15053311 -2.34624472 64.04866486 -4.25 65.9921875 C-5.04821167 66.81748459 -5.04821167 66.81748459 -5.86254883 67.65945435 C-6.99026526 68.81612087 -8.12363173 69.96730215 -9.26220703 71.11328125 C-10.99188127 72.86676949 -12.68072906 74.65400847 -14.37109375 76.4453125 C-22.14367374 84.46465125 -22.14367374 84.46465125 -26.27978516 85.6574707 C-28.71440899 85.44946902 -30.68834242 84.79932462 -33 84 C-35.44341649 83.46906265 -37.8889604 82.94787159 -40.3359375 82.43359375 C-42.33843996 81.95248067 -44.33523952 81.45222807 -46.33154297 80.94604492 C-47.70110118 80.60520982 -49.0743329 80.2788299 -50.45068359 79.96655273 C-61.72980171 77.40263095 -61.72980171 77.40263095 -64.44946289 74.39941406 C-65.29475678 72.26186343 -65.64186142 70.27145995 -66 68 C-66.59315236 65.90977078 -67.20262996 63.82413738 -67.82421875 61.7421875 C-68.44951297 59.45426886 -69.07051829 57.16517426 -69.6875 54.875 C-70.16799805 53.14443359 -70.16799805 53.14443359 -70.65820312 51.37890625 C-71.11163086 49.70248047 -71.11163086 49.70248047 -71.57421875 47.9921875 C-71.84838623 46.98526855 -72.12255371 45.97834961 -72.4050293 44.94091797 C-73.06166688 41.69518289 -73.46592194 39.29501914 -73 36 C-71.26275718 33.6293092 -69.65322983 31.74052763 -67.59375 29.69140625 C-66.75656433 28.83493752 -66.75656433 28.83493752 -65.90246582 27.96116638 C-64.71966927 26.7611761 -63.52897875 25.56892236 -62.33105469 24.3840332 C-60.50686714 22.56933143 -58.7262785 20.71834698 -56.9453125 18.86132812 C-55.78889614 17.69809223 -54.63011504 16.53720146 -53.46875 15.37890625 C-52.67760803 14.54632042 -52.67760803 14.54632042 -51.8704834 13.69691467 C-49.7635619 11.66571551 -47.98061236 10.07276826 -44.98405457 9.85040283 C-42.89331055 10.0871582 -42.89331055 10.0871582 -39 11 C-38.15091064 11.19416504 -37.30182129 11.38833008 -36.42700195 11.58837891 C-35.70472412 11.79897949 -34.98244629 12.00958008 -34.23828125 12.2265625 C-33.42939453 12.4534375 -32.62050781 12.6803125 -31.78710938 12.9140625 C-30.12446611 13.39172797 -28.46301613 13.87356493 -26.80273438 14.359375 C-25.99771484 14.58367187 -25.19269531 14.80796875 -24.36328125 15.0390625 C-23.64438721 15.24740723 -22.92549316 15.45575195 -22.18481445 15.67041016 C-19.46212556 16.08114096 -17.62860319 15.82313219 -15 15 C-12.99180294 13.53689663 -12.99180294 13.53689663 -11.23046875 11.62109375 C-10.56982422 10.94755859 -9.90917969 10.27402344 -9.22851562 9.58007812 C-8.55498047 8.87302734 -7.88144531 8.16597656 -7.1875 7.4375 C-6.14819336 6.37112305 -6.14819336 6.37112305 -5.08789062 5.28320312 C-3.3825483 3.53081688 -1.68724824 1.76978531 0 0 Z " fill="#000000" transform="translate(138,362)"/>
<path d="M0 0 C2.3706908 1.73724282 4.25947237 3.34677017 6.30859375 5.40625 C7.16506248 6.24343567 7.16506248 6.24343567 8.03883362 7.09753418 C9.2388239 8.28033073 10.43107764 9.47102125 11.6159668 10.66894531 C13.43066857 12.49313286 15.28165302 14.2737215 17.13867188 16.0546875 C18.30190777 17.21110386 19.46279854 18.36988496 20.62109375 19.53125 C21.17615097 20.05867798 21.73120819 20.58610596 22.30308533 21.1295166 C24.33428449 23.2364381 25.92723174 25.01938764 26.14959717 28.01594543 C25.9128418 30.10668945 25.9128418 30.10668945 25 34 C24.80583496 34.84908936 24.61166992 35.69817871 24.41162109 36.57299805 C24.20102051 37.29527588 23.99041992 38.01755371 23.7734375 38.76171875 C23.5465625 39.57060547 23.3196875 40.37949219 23.0859375 41.21289062 C22.60827203 42.87553389 22.12643507 44.53698387 21.640625 46.19726562 C21.41632813 47.00228516 21.19203125 47.80730469 20.9609375 48.63671875 C20.64842041 49.71505981 20.64842041 49.71505981 20.32958984 50.81518555 C19.91885904 53.53787444 20.17686781 55.37139681 21 58 C22.46310337 60.00819706 22.46310337 60.00819706 24.37890625 61.76953125 C25.38920898 62.76049805 25.38920898 62.76049805 26.41992188 63.77148438 C27.12697266 64.44501953 27.83402344 65.11855469 28.5625 65.8125 C29.27341797 66.50537109 29.98433594 67.19824219 30.71679688 67.91210938 C32.46918312 69.6174517 34.23021469 71.31275176 36 73 C32.32167983 77.52615993 28.58913637 81.39424999 24 85 C23.55720703 84.51007568 23.11441406 84.02015137 22.65820312 83.51538086 C20.62960655 81.29917605 18.56598271 79.11887004 16.5 76.9375 C15.80390625 76.16599609 15.1078125 75.39449219 14.390625 74.59960938 C10.07931727 69.9997775 10.07931727 69.9997775 4.07421875 68.83984375 C2.70386446 69.18049394 1.34522456 69.57071649 0 70 C-0.76812012 70.19746826 -1.53624023 70.39493652 -2.32763672 70.59838867 C-5.63719722 71.45250093 -8.91698921 72.39954315 -12.19726562 73.359375 C-13.00228516 73.58367187 -13.80730469 73.80796875 -14.63671875 74.0390625 C-15.35561279 74.24740723 -16.07450684 74.45575195 -16.81518555 74.67041016 C-19.63134438 75.09524136 -21.28494677 74.92454989 -24 74 C-26.15034589 72.31930133 -28.04827623 70.67765839 -29.9921875 68.78515625 C-30.54238556 68.25538681 -31.09258362 67.72561737 -31.65945435 67.17979431 C-32.81619866 66.05637469 -33.96737842 64.9272006 -35.11328125 63.79272461 C-36.86528505 62.07204127 -38.65311614 60.39544148 -40.4453125 58.71679688 C-48.49089032 50.953068 -48.49089032 50.953068 -49.6574707 46.4777832 C-49.45608689 43.79201761 -48.82353387 41.5653219 -48 39 C-47.47577968 36.59550568 -46.95382333 34.19051715 -46.43359375 31.78515625 C-45.94372209 29.86199277 -45.45365009 27.93882276 -44.94604492 26.02026367 C-44.60473587 24.70631393 -44.27839624 23.38839165 -43.96655273 22.06713867 C-41.41001528 11.24548482 -41.41001528 11.24548482 -38.39941406 8.58618164 C-36.2655748 7.74179417 -34.26484475 7.37540237 -32 7 C-29.91017545 6.40542345 -27.82452006 5.79608686 -25.7421875 5.17578125 C-23.45426886 4.55048703 -21.16517426 3.92948171 -18.875 3.3125 C-17.14443359 2.83200195 -17.14443359 2.83200195 -15.37890625 2.34179688 C-13.70248047 1.88836914 -13.70248047 1.88836914 -11.9921875 1.42578125 C-10.98526855 1.15161377 -9.97834961 0.87744629 -8.94091797 0.5949707 C-5.69518289 -0.06166688 -3.29501914 -0.46592194 0 0 Z " fill="#000000" transform="translate(114,65)"/>
<path d="M0 0 C5.28 0 10.56 0 16 0 C16 8.25 16 16.5 16 25 C18.475 25.99 18.475 25.99 21 27 C22.71009756 27.91051276 24.40372345 28.85245401 26.08203125 29.8203125 C27.01337891 30.35527344 27.94472656 30.89023437 28.90429688 31.44140625 C30.34385742 32.27478516 30.34385742 32.27478516 31.8125 33.125 C32.79154297 33.68832031 33.77058594 34.25164062 34.77929688 34.83203125 C37.18789555 36.21844415 39.59471395 37.60785055 42 39 C42.22307809 44.58648547 42.38605356 50.17036351 42.49438477 55.76025391 C42.53955043 57.65980187 42.60090169 59.55903854 42.67895508 61.45751953 C43.30601509 77.10533088 43.30601509 77.10533088 40.36743164 81.3684082 C37.98529621 82.98211285 35.67946355 83.95759836 33 85 C31.08467843 86.12891916 29.18538516 87.28535943 27.30078125 88.46484375 C25.30684945 89.62611592 23.31072544 90.78363165 21.3125 91.9375 C20.30638672 92.53884766 19.30027344 93.14019531 18.26367188 93.75976562 C17.28591797 94.32244141 16.30816406 94.88511719 15.30078125 95.46484375 C14.42591064 95.976521 13.55104004 96.48819824 12.6496582 97.01538086 C9.24964204 98.27883476 7.47567399 97.98284198 4 97 C0.99560547 95.55712891 0.99560547 95.55712891 -2.1328125 93.7265625 C-3.83630859 92.7365625 -3.83630859 92.7365625 -5.57421875 91.7265625 C-6.1573584 91.38141602 -6.74049805 91.03626953 -7.34130859 90.68066406 C-9.12200684 89.62677148 -10.90970973 88.58572304 -12.69921875 87.546875 C-15.81732396 85.72354613 -18.92976437 83.90285811 -22 82 C-23.13332764 81.41255005 -23.13332764 81.41255005 -24.28955078 80.81323242 C-27.06591689 77.87003072 -26.97072095 74.31335225 -27.234375 70.44921875 C-27.29442719 69.60208817 -27.35447937 68.75495758 -27.41635132 67.88215637 C-27.57477297 65.15025158 -27.67476872 62.42292148 -27.75 59.6875 C-27.79202545 58.31198975 -27.79202545 58.31198975 -27.8348999 56.90869141 C-28.08639941 40.9340633 -28.08639941 40.9340633 -23.65917969 35.74462891 C-17.60435596 30.59732679 -8.23521628 25 0 25 C0 16.75 0 8.5 0 0 Z " fill="#020100" transform="translate(248,414)"/>
<path d="M0 0 C5.58648547 -0.22307809 11.17036351 -0.38605356 16.76025391 -0.49438477 C18.65980187 -0.53955043 20.55903854 -0.60090169 22.45751953 -0.67895508 C38.10533088 -1.30601509 38.10533088 -1.30601509 42.3684082 1.63256836 C43.98211285 4.01470379 44.95759836 6.32053645 46 9 C47.12891916 10.91532157 48.28535943 12.81461484 49.46484375 14.69921875 C50.62611592 16.69315055 51.78363165 18.68927456 52.9375 20.6875 C53.53884766 21.69361328 54.14019531 22.69972656 54.75976562 23.73632812 C55.32244141 24.71408203 55.88511719 25.69183594 56.46484375 26.69921875 C56.976521 27.57408936 57.48819824 28.44895996 58.01538086 29.3503418 C59.27883476 32.75035796 58.98284198 34.52432601 58 38 C56.55712891 41.00439453 56.55712891 41.00439453 54.7265625 44.1328125 C54.0665625 45.26847656 53.4065625 46.40414062 52.7265625 47.57421875 C52.38141602 48.1573584 52.03626953 48.74049805 51.68066406 49.34130859 C50.62677148 51.12200684 49.58572304 52.90970973 48.546875 54.69921875 C46.72354613 57.81732396 44.90285811 60.92976437 43 64 C42.41255005 65.13332764 42.41255005 65.13332764 41.81323242 66.28955078 C38.87003072 69.06591689 35.31335225 68.97072095 31.44921875 69.234375 C30.60208817 69.29442719 29.75495758 69.35447937 28.88215637 69.41635132 C26.15025158 69.57477297 23.42292148 69.67476872 20.6875 69.75 C19.77049316 69.77801697 18.85348633 69.80603394 17.90869141 69.8348999 C1.9340633 70.08639941 1.9340633 70.08639941 -3.25537109 65.65917969 C-8.40267321 59.60435596 -14 50.23521628 -14 42 C-22.25 42 -30.5 42 -39 42 C-39 36.72 -39 31.44 -39 26 C-30.75 26 -22.5 26 -14 26 C-13.34 24.35 -12.68 22.7 -12 21 C-11.08948724 19.28990244 -10.14754599 17.59627655 -9.1796875 15.91796875 C-8.64472656 14.98662109 -8.10976563 14.05527344 -7.55859375 13.09570312 C-7.00300781 12.13599609 -6.44742188 11.17628906 -5.875 10.1875 C-5.31167969 9.20845703 -4.74835938 8.22941406 -4.16796875 7.22070312 C-2.78155585 4.81210445 -1.39214945 2.40528605 0 0 Z " fill="#020000" transform="translate(453,222)"/>
<path d="M0 0 C0.84713058 -0.06005219 1.69426117 -0.12010437 2.56706238 -0.18197632 C5.29896717 -0.34039797 8.02629727 -0.44039372 10.76171875 -0.515625 C11.67872559 -0.54364197 12.59573242 -0.57165894 13.54052734 -0.6005249 C29.51515545 -0.85202441 29.51515545 -0.85202441 34.70458984 3.57519531 C39.85189196 9.63001904 45.44921875 18.99915872 45.44921875 27.234375 C53.69921875 27.234375 61.94921875 27.234375 70.44921875 27.234375 C70.44921875 32.514375 70.44921875 37.794375 70.44921875 43.234375 C62.19921875 43.234375 53.94921875 43.234375 45.44921875 43.234375 C44.78921875 44.884375 44.12921875 46.534375 43.44921875 48.234375 C42.53870599 49.94447256 41.59676474 51.63809845 40.62890625 53.31640625 C40.09394531 54.24775391 39.55898437 55.17910156 39.0078125 56.13867188 C38.17443359 57.57823242 38.17443359 57.57823242 37.32421875 59.046875 C36.76089844 60.02591797 36.19757812 61.00496094 35.6171875 62.01367188 C34.2307746 64.42227055 32.8413682 66.82908895 31.44921875 69.234375 C25.86273328 69.45745309 20.27885524 69.62042856 14.68896484 69.72875977 C12.78941688 69.77392543 10.89018021 69.83527669 8.99169922 69.91333008 C-6.65611213 70.54039009 -6.65611213 70.54039009 -10.91918945 67.60180664 C-12.5328941 65.21967121 -13.50837961 62.91383855 -14.55078125 60.234375 C-15.67970041 58.31905343 -16.83614068 56.41976016 -18.015625 54.53515625 C-19.17689717 52.54122445 -20.3344129 50.54510044 -21.48828125 48.546875 C-22.08962891 47.54076172 -22.69097656 46.53464844 -23.31054688 45.49804688 C-23.87322266 44.52029297 -24.43589844 43.54253906 -25.015625 42.53515625 C-25.52730225 41.66028564 -26.03897949 40.78541504 -26.56616211 39.8840332 C-27.82961601 36.48401704 -27.53362323 34.71004899 -26.55078125 31.234375 C-25.10791016 28.22998047 -25.10791016 28.22998047 -23.27734375 25.1015625 C-22.61734375 23.96589844 -21.95734375 22.83023438 -21.27734375 21.66015625 C-20.93219727 21.0770166 -20.58705078 20.49387695 -20.23144531 19.89306641 C-19.17755273 18.11236816 -18.13650429 16.32466527 -17.09765625 14.53515625 C-15.27432738 11.41705104 -13.45363936 8.30461063 -11.55078125 5.234375 C-11.15914795 4.47882324 -10.76751465 3.72327148 -10.36401367 2.94482422 C-7.42081197 0.16845811 -3.8641335 0.26365405 0 0 Z " fill="#020000" transform="translate(27.55078125,220.765625)"/>
<path d="M0 0 C3.00439453 1.44287109 3.00439453 1.44287109 6.1328125 3.2734375 C7.83630859 4.2634375 7.83630859 4.2634375 9.57421875 5.2734375 C10.1573584 5.61858398 10.74049805 5.96373047 11.34130859 6.31933594 C13.12200684 7.37322852 14.90970973 8.41427696 16.69921875 9.453125 C19.81732396 11.27645387 22.92976437 13.09714189 26 15 C26.75555176 15.3916333 27.51110352 15.7832666 28.28955078 16.18676758 C31.06591689 19.12996928 30.97072095 22.68664775 31.234375 26.55078125 C31.29442719 27.39791183 31.35447937 28.24504242 31.41635132 29.11784363 C31.57477297 31.84974842 31.67476872 34.57707852 31.75 37.3125 C31.77801697 38.22950684 31.80603394 39.14651367 31.8348999 40.09130859 C32.08639941 56.0659367 32.08639941 56.0659367 27.65917969 61.25537109 C21.60435596 66.40267321 12.23521628 72 4 72 C4 80.25 4 88.5 4 97 C-1.28 97 -6.56 97 -12 97 C-12 88.75 -12 80.5 -12 72 C-13.65 71.34 -15.3 70.68 -17 70 C-18.71009756 69.08948724 -20.40372345 68.14754599 -22.08203125 67.1796875 C-23.47905273 66.37724609 -23.47905273 66.37724609 -24.90429688 65.55859375 C-25.86400391 65.00300781 -26.82371094 64.44742188 -27.8125 63.875 C-28.79154297 63.31167969 -29.77058594 62.74835937 -30.77929688 62.16796875 C-33.18789555 60.78155585 -35.59471395 59.39214945 -38 58 C-38.22307809 52.41351453 -38.38605356 46.82963649 -38.49438477 41.23974609 C-38.53955043 39.34019813 -38.60090169 37.44096146 -38.67895508 35.54248047 C-39.30601509 19.89466912 -39.30601509 19.89466912 -36.36743164 15.6315918 C-33.98529621 14.01788715 -31.67946355 13.04240164 -29 12 C-27.08467843 10.87108084 -25.18538516 9.71464057 -23.30078125 8.53515625 C-21.30684945 7.37388408 -19.31072544 6.21636835 -17.3125 5.0625 C-16.30638672 4.46115234 -15.30027344 3.85980469 -14.26367188 3.24023438 C-12.79704102 2.3962207 -12.79704102 2.3962207 -11.30078125 1.53515625 C-10.42591064 1.023479 -9.55104004 0.51180176 -8.6496582 -0.01538086 C-5.24964204 -1.27883476 -3.47567399 -0.98284198 0 0 Z " fill="#020100" transform="translate(260,1)"/>
<path d="M0 0 C-0.6290625 0.4846875 -1.258125 0.969375 -1.90625 1.46875 C-17.48694066 13.6704957 -28.71163951 27.96958651 -32 48 C-32.2761393 51.11092808 -32.33495853 54.19044296 -32.3125 57.3125 C-32.30404053 58.55906372 -32.30404053 58.55906372 -32.29541016 59.83081055 C-31.97890108 75.95867134 -25.95637969 91.13745356 -15 103 C-14.31421875 103.7425 -13.6284375 104.485 -12.921875 105.25 C-9.22674833 109.08616204 -5.56767767 112.2593934 -1 115 C-6.04861942 116.68287314 -10.29861314 114.09353907 -15 112 C-30.71958984 103.75866164 -40.51153892 91.0819552 -46.2734375 74.47265625 C-50.76343371 59.19218527 -48.34327194 43.35445956 -41.3125 29.3125 C-37.95683243 23.4993991 -33.71746479 18.74264699 -29 14 C-28.48179687 13.44699219 -27.96359375 12.89398438 -27.4296875 12.32421875 C-22.48114116 7.51816982 -6.68543871 -3.34271936 0 0 Z " fill="#006BEA" transform="translate(244,198)"/>
<path d="M0 0 C1.17046875 0.31324219 2.3409375 0.62648438 3.546875 0.94921875 C5.42246094 1.13484375 5.42246094 1.13484375 7.3359375 1.32421875 C11.81584385 2.05414239 14.59142783 2.68058714 18.546875 4.94921875 C21.83905337 9.93624405 22.77894395 16.11904456 23.546875 21.94921875 C23.71058594 22.79742187 23.87429688 23.645625 24.04296875 24.51953125 C22.70062209 31.093859 14.91470674 37.33376193 9.546875 40.94921875 C5.54841682 41.7725966 3.18227775 40.58167667 -0.453125 38.94921875 C-2.43104767 38.58816937 -4.41024945 38.23406211 -6.390625 37.88671875 C-11.02133238 36.58412877 -11.02133238 36.58412877 -12.70703125 34.10546875 C-13.50501552 31.73240558 -13.98552062 29.40791277 -14.453125 26.94921875 C-15.02399607 25.1743287 -15.60726953 23.40337795 -16.203125 21.63671875 C-17.3198186 18.23737206 -17.59969834 16.3439436 -16.453125 12.94921875 C-14.65794813 10.45217097 -12.4797465 8.32898199 -10.328125 6.13671875 C-9.77125 5.52634766 -9.214375 4.91597656 -8.640625 4.28710938 C-4.38228285 -0.06444534 -4.38228285 -0.06444534 0 0 Z " fill="#598EEC" transform="translate(406.453125,82.05078125)"/>
<path d="M0 0 C2.49704778 1.79517687 4.62023676 3.9733785 6.8125 6.125 C7.42287109 6.681875 8.03324219 7.23875 8.66210938 7.8125 C10.35654672 9.47064162 11.75845829 10.97914778 13 13 C12.9453125 16.453125 12.9453125 16.453125 12 20 C11.88785156 21.25039063 11.77570313 22.50078125 11.66015625 23.7890625 C10.95172327 28.33599837 10.35805933 31.01850752 8 35 C2.10149334 38.74044133 -5.72734651 40.05071399 -12.6328125 39.96875 C-18.57400239 37.53737196 -24.66536798 31.44087377 -28 26 C-28.34207155 22.33381126 -27.51461573 20.30009339 -26 17 C-25.61118289 14.87748469 -25.23676715 12.75229277 -24.875 10.625 C-23.55312857 5.46184873 -23.55312857 5.46184873 -21.4140625 3.67578125 C-19.28254186 2.85362329 -17.24541879 2.42193327 -15 2 C-13.08234171 1.41993485 -11.16570254 0.83649182 -9.25 0.25 C-5.67442209 -0.79202556 -3.53162779 -1.20205912 0 0 Z " fill="#598EEC" transform="translate(417,390)"/>
<path d="M0 0 C1.48057917 0.47729509 2.95635572 0.96986727 4.42578125 1.48046875 C5.54726562 1.66867187 6.66875 1.856875 7.82421875 2.05078125 C15.60823836 3.50134658 15.60823836 3.50134658 17.75 6.06640625 C18.57215796 8.19792689 19.00384798 10.23504996 19.42578125 12.48046875 C20.0058464 14.39812704 20.58928943 16.31476621 21.17578125 18.23046875 C22.21814078 21.80719261 22.62456315 23.94732772 21.42578125 27.48046875 C19.65355924 29.97874075 17.49757938 32.10130986 15.36328125 34.29296875 C14.81478516 34.90333984 14.26628906 35.51371094 13.70117188 36.14257812 C12.01342991 37.87725614 10.51513616 39.25549234 8.42578125 40.48046875 C5.33060445 40.44102042 3.32471616 40.20208745 0.42578125 39.48046875 C-1.38986328 39.29484375 -1.38986328 39.29484375 -3.2421875 39.10546875 C-7.26402499 38.39126897 -10.08627315 37.64376917 -13.57421875 35.48046875 C-16.75515025 30.4390186 -17.75751263 24.30293685 -18.57421875 18.48046875 C-18.82365234 17.20816406 -18.82365234 17.20816406 -19.078125 15.91015625 C-18.19636638 11.65857592 -15.11517858 9.0581619 -12.13671875 6.04296875 C-11.24823242 5.05006836 -11.24823242 5.05006836 -10.34179688 4.03710938 C-6.92976542 0.55209329 -4.94043684 -1.1096725 0 0 Z " fill="#598EED" transform="translate(100.57421875,389.51953125)"/>
<path d="M0 0 C4.25286343 0.87518733 6.85248274 3.95952261 9.8671875 6.9375 C10.86008789 7.82598633 10.86008789 7.82598633 11.87304688 8.73242188 C13.76662054 10.58633955 15.1918644 12.15358173 16.4296875 14.5 C16.42793114 17.74715464 15.48162317 20.45470359 14.4296875 23.5 C14.25308594 24.62148437 14.07648438 25.74296875 13.89453125 26.8984375 C12.50781773 34.72566494 12.50781773 34.72566494 9.5859375 36.82421875 C7.20876879 37.61521327 4.89592517 38.06500409 2.4296875 38.5 C0.65404233 39.06851797 -1.11694592 39.65179963 -2.8828125 40.25 C-6.28215919 41.3666936 -8.17558765 41.64657334 -11.5703125 40.5 C-14.06736028 38.70482313 -16.19054926 36.5266215 -18.3828125 34.375 C-18.99318359 33.818125 -19.60355469 33.26125 -20.23242188 32.6875 C-21.92681928 31.02939746 -23.32860042 29.52067081 -24.5703125 27.5 C-24.51953125 24.046875 -24.51953125 24.046875 -23.5703125 20.5 C-23.4465625 19.24960938 -23.3228125 17.99921875 -23.1953125 16.7109375 C-22.46538886 12.23103115 -21.83894411 9.45544717 -19.5703125 5.5 C-13.75388114 1.66029029 -6.66040712 1.29564151 0 0 Z " fill="#598FED" transform="translate(106.5703125,81.5)"/>
<path d="M0 0 C7.59 0 15.18 0 23 0 C24.505625 2.51625 26.01125 5.0325 27.5625 7.625 C28.04146729 8.40568848 28.52043457 9.18637695 29.01391602 9.99072266 C30.87020394 13.19278885 31.99295997 15.31007674 32.03125 19.0625 C30.72512884 22.78296632 28.97219447 26.00844163 26.9375 29.375 C26.56044922 30.01566406 26.18339844 30.65632813 25.79492188 31.31640625 C24.87160383 32.88254066 23.93694607 34.44198034 23 36 C3.55758595 38.68615498 3.55758595 38.68615498 -2.10302734 34.41210938 C-5.84001562 30.02313591 -8.80168408 24.67030216 -10 19 C-9.47265625 16.40625 -9.47265625 16.40625 -8 14 C-7.35036648 12.81706228 -6.7020362 11.63340836 -6.0546875 10.44921875 C-5.33204098 9.19305158 -4.60472366 7.93956922 -3.875 6.6875 C-2.59625 4.480625 -1.3175 2.27375 0 0 Z " fill="#FA6941" transform="translate(462,238)"/>
<path d="M0 0 C1.18293772 0.64963352 2.36659164 1.2979638 3.55078125 1.9453125 C4.80694842 2.66795902 6.06043078 3.39527634 7.3125 4.125 C10.6228125 6.043125 10.6228125 6.043125 14 8 C14 15.59 14 23.18 14 31 C11.48375 32.505625 8.9675 34.01125 6.375 35.5625 C5.59431152 36.04146729 4.81362305 36.52043457 4.00927734 37.01391602 C0.80721115 38.87020394 -1.31007674 39.99295997 -5.0625 40.03125 C-8.78296632 38.72512884 -12.00844163 36.97219447 -15.375 34.9375 C-16.01566406 34.56044922 -16.65632812 34.18339844 -17.31640625 33.79492188 C-18.88254066 32.87160383 -20.44198034 31.93694607 -22 31 C-24.68615498 11.55758595 -24.68615498 11.55758595 -20.41210938 5.89697266 C-14.93186889 1.23082587 -6.87692903 -4.20876988 0 0 Z " fill="#FA6941" transform="translate(260,454)"/>
<path d="M0 0 C19.44241405 -2.68615498 19.44241405 -2.68615498 25.10302734 1.58789062 C28.84001562 5.97686409 31.80168408 11.32969784 33 17 C32.47265625 19.59375 32.47265625 19.59375 31 22 C30.35036648 23.18293772 29.7020362 24.36659164 29.0546875 25.55078125 C28.33204098 26.80694842 27.60472366 28.06043078 26.875 29.3125 C25.59625 31.519375 24.3175 33.72625 23 36 C15.41 36 7.82 36 0 36 C-1.505625 33.48375 -3.01125 30.9675 -4.5625 28.375 C-5.04146729 27.59431152 -5.52043457 26.81362305 -6.01391602 26.00927734 C-7.87020394 22.80721115 -8.99295997 20.68992326 -9.03125 16.9375 C-7.72512884 13.21703368 -5.97219447 9.99155837 -3.9375 6.625 C-3.37192383 5.66400391 -3.37192383 5.66400391 -2.79492188 4.68359375 C-1.87160383 3.11745934 -0.93694607 1.55801966 0 0 Z " fill="#FA6941" transform="translate(27,238)"/>
<path d="M0 0 C2.54703071 1.21956175 4.95918615 2.60242044 7.375 4.0625 C8.33599609 4.62807617 8.33599609 4.62807617 9.31640625 5.20507812 C10.88254066 6.12839617 12.44198034 7.06305393 14 8 C16.68615498 27.44241405 16.68615498 27.44241405 12.41210938 33.10302734 C8.02313591 36.84001562 2.67030216 39.80168408 -3 41 C-5.59375 40.47265625 -5.59375 40.47265625 -8 39 C-9.18293772 38.35036648 -10.36659164 37.7020362 -11.55078125 37.0546875 C-12.80694842 36.33204098 -14.06043078 35.60472366 -15.3125 34.875 C-17.519375 33.59625 -19.72625 32.3175 -22 31 C-22 23.41 -22 15.82 -22 8 C-19.48375 6.494375 -16.9675 4.98875 -14.375 3.4375 C-13.59431152 2.95853271 -12.81362305 2.47956543 -12.00927734 1.98608398 C-7.64168524 -0.54587757 -5.00811284 -1.75816727 0 0 Z " fill="#FA6941" transform="translate(260,19)"/>
<path d="M0 0 C4.13621084 3.3810038 7.81316569 6.66590534 11 11 C10.51789063 11.47050781 10.03578125 11.94101562 9.5390625 12.42578125 C8.59160156 13.35970703 8.59160156 13.35970703 7.625 14.3125 C6.68527344 15.23482422 6.68527344 15.23482422 5.7265625 16.17578125 C3.81913393 18.08812528 3.81913393 18.08812528 2 21 C-1.23861303 19.55575365 -3.61969163 17.74227753 -6.25 15.375 C-6.95640625 14.74335938 -7.6628125 14.11171875 -8.390625 13.4609375 C-8.92171875 12.97882813 -9.4528125 12.49671875 -10 12 C-8.52278578 8.54798361 -6.56205999 6.35038064 -3.875 3.75 C-3.15054687 3.04359375 -2.42609375 2.3371875 -1.6796875 1.609375 C-1.12539063 1.07828125 -0.57109375 0.5471875 0 0 Z " fill="#040506" transform="translate(303,293)"/>
<path d="M0 0 C4.62 0 9.24 0 14 0 C14 4.62 14 9.24 14 14 C9.38 14 4.76 14 0 14 C0 9.38 0 4.76 0 0 Z " fill="#FFFFFF" transform="translate(279,234)"/>
<path d="M0 0 C4.62 0 9.24 0 14 0 C14 4.62 14 9.24 14 14 C9.38 14 4.76 14 0 14 C0 9.38 0 4.76 0 0 Z " fill="#FFFFFF" transform="translate(249,219)"/>
</svg>
