<?xml version="1.0" encoding="utf-8"?>
<!-- Generator: Adobe Illustrator 26.0.3, SVG Export Plug-In . SVG Version: 6.00 Build 0)  -->
<svg version="1.0" id="Layer_1" xmlns="http://www.w3.org/2000/svg" xmlns:xlink="http://www.w3.org/1999/xlink" x="0px" y="0px"
	 viewBox="0 0 1177.4 867.7" style="enable-background:new 0 0 1177.4 867.7;" xml:space="preserve">
<style type="text/css">
	.st0{fill:#FFFFFF;}
	.st1{fill:#1D1D1B;}
</style>
<path class="st0" d="M588.4,786.2c195.3,0,353.8-158.4,353.8-353.8S783.7,78.7,588.4,78.7S234.6,237.1,234.6,432.5
	S393,786.2,588.4,786.2"/>
<path class="st1" d="M560.8,717l-1.2-0.3l-0.7-1v-2.5l4-8.1l2-2.1l0.7,0.1l1.6,2.9l1.8,6.5l0.1,3.6l-1.7,1.3L560.8,717z M565,691.4
	l-1.7,1.5l-2.3,4.6l-1.8,1.8v1.2l-0.6,2.8l-8.9,18.8l-2.2,3.3l-4.4,2.3l-0.1,1.9l3.6,0.6l7.6,0.9l2.6-0.3l-0.2-2l-1.7-1.2l-0.6-2.7
	l0.5-1.9l1.4-1.5l2.8-0.6l9.8,1l2,0.7l1.3,1.5l0.7,3.7l-0.6,1.5l-0.9,0.7l-1.7,1.5l0.1,0.9l1.7,1h2.9l2.4,0.3l1.3-0.1l1.8,0.2
	l5.1-0.2l0.5-1.7l-0.7-1.1l-1.7-0.8l-1.5-1.4l-2.4-6.4l-7.1-24.8l-2.2-5l-1.7-1.1L565,691.4z M629.6,689.4l-4.3,0.3l-3,0.9l-0.1,1
	l0.7,0.9l2.3,0.8l1.8,1.8l0.8,4.6l0.6,1.7v3.5l0.8,7.8L629,714l-0.7,1.5l-0.7,0.2l-1.8-1.2l-5-5.6l-8.7-11.1l-2.7-2.3l-0.1-0.7
	l-0.8-1.5l-1.8-1.1l-0.8,1l-0.8-0.6l-2.5-0.5l-5.2,0.6l-2.2,1.2l-0.1,0.6l1.6,1.4l1.8,0.4l1.8,1.4l1,2.8l2,19l-0.2,1.8l0.5,4.3
	l-0.4,3l-0.8,1.2l-0.9,0.7l-2.2,1.5v1l0.7,0.9l3.6,0.3l8.6-0.9l1.1-0.4l0.8-1l-0.7-1.1l-1.9-0.8l-2.2-1.4l-0.9-1.9l-0.8-7.8
	l-0.6-1.7l-0.2-2.2l0.3-1.8l-0.5-5.2l0.1-1.6l0.7-2.1l1.2-0.1l2.1,2l1.2,1.2l17.3,22l2.4,1.9l3.2-0.1l0.5-0.8l0.5-2.4l-1.8-17.6
	l-1-5.6l0.2-1.8l-0.8-7.3l0.9-2.8l2.7-1.8l0.5-0.9l-0.7-1.1l-2.8-0.4L629.6,689.4z M520.2,720.7h-2.6l-4.8-1.2l-1.2-0.8l-0.8-1.7
	l1.2-6.7l1.7-4.4l2-1.2l2.2,0.3l2.4,0.9l1.9,0.4l1.8,1l1.4,0.7l1.5,1.6l0.9,2.8l0.1,2.2l-1,2.5l-1.5,1.9l-3.8,2L520.2,720.7z
	 M517.4,699.8l-1.2-1.8l0.2-3l1.6-5.3l1.4-1.8l2.4-0.3l5.3,1.6l2.6,1.5l1.5,1.9l0.3,2.9l-1,2.6l-1,1.3l-2.7,1.9l-4.3,0.2
	L517.4,699.8z M508.1,680.8l0.2,1.7l2.3,2.2l0.6,3.3l-3.3,13l-3.9,12.3l-1.5,1.9l-5,1.1l-0.5,1.2l1.2,1.6l12.9,3.9l10.9,2.8l4.9-0.2
	l3.1-1.9l1.8-1.9l1.8-3.1l0.6-2.4l0.2-3.5l-1.3-3.8l-0.3-2.9l0.6-0.9l2-2.1l0.5-1.9l-0.5-4.3l-0.6-1.7l-0.6-5.6l-0.9-1.8l-3.5-1.8
	l-18-5.5l-2.9-0.3L508.1,680.8z M686.9,672.8l-3.8,1l-6.7,2.5l-1.5,1.3l0.1,1l1.8,1.4l0.3,3.2l-2.9,6l-1,1.4l-1.5,3.5l-3,4.7l-1,0.3
	l-1-0.5l-1.1-2.5l-2.3-8.5l0.3-2.5l1.8-2.1l-0.2-1.6l-1-0.2l-10.9,2.7l-2.8,1.2l-0.5,1.1l0.5,1l0.6,0.1l3.9,0.9l1.5,1.9l7.4,26.1
	l0.2,2.2l-0.5,2.1l-1.8,2l0.2,1.6h2.7l11.2-3.6l1.2-1.3l-1-1.2l-2.8-0.7l-1.7-1.4l-1.2-2.9l-0.7-4.1l0.5-2.5l1.8-3.2l1.4-1.8l2-0.2
	l1.5,0.7l5.3,3.8l6,4.6l1.2,2l-0.3,1.5l0.2,2.3h1.3l8.8-3.2l3.6-1.7l0.5-0.9l-0.7-1.1l-5.3-0.5l-3.2-1.8l-1.9-1.4l-4.5-3.2l-9.6-8
	l-0.3-3.2l4.3-8.7l1-1.4l1.5-3.5l1.4-0.7l2.2-1.5l0.5-1.1l-0.6-1L686.9,672.8z M438.2,645.5l0.3,2.6l1.8,2.1l0.3,3l-2.5,4.9
	l-1.4,1.9l-1.2,2.3l-1,1.4l-5,7.5l-3.5,4.6l-1.8,0.9l-4.3,0.2l-1.4,0.7v1l1.2,1.8l17.7,11.4l1.4,1l7.3,4.5l2.5,0.5l3.6-4.1l2.6-4.1
	v-1.2l-0.7-0.9l-1.7,0.2l-3.9,3.3l-2.9,0.6l-2.3-0.8l-8.4-4.9l-2.9-3l-0.2-2.3l2.6-4.6l2.7-3.6l2.3-0.5l3.4,1.7l0.9,1.8l0.2,4.3
	l1,1.3l0.8,0.1l1.8-0.8l1.2-1.9l1.4-1.9l1.2-2.3l1-1.4l1.1-2.1l-0.2-2.1l-1.6-0.4l-2.1,1.1l-2.4,0.5l-3.3-1.2l-1.5-1.5l-0.3-1.4
	l0.8-2.5l3.8-5.6l2-1.2l1.8,0.4l4.6,2.6l1.4,1l2.6,1.6l2.4,2.2l0.8,2.1l-0.2,2.3l0.4,3.3l1.6-0.2l1.3-1.9l1-1.4l1.9-3.1v-1.7
	l-0.7-1.2l-5.2-3.4l-1.7-0.8l-10.4-6.8l-1.9-1.4l-3.2-2l-1.4-1l-3-1.4L438.2,645.5z M746.9,678.7l-5.1-2.5l-3.8-3.3l-3.1-4.7
	l-2.7-6.7l-0.3-5.5l1.2-5.2l2.3-3.3l1.9-1.5l2.4-1l4.9-0.2l3.3,1l3.1,1.8l4.4,4.3l3.7,5.9l2.2,5.8l0.5,5.2l-1.1,4.7l-2.1,3.2
	l-3.5,2.4l-5.4,0.3L746.9,678.7z M739.6,642.1l-4.4,2.2l-3,2l-2.3,2.8l-0.7,3l-0.7,0.7l-1.1,2.1l-0.7,4.3l0.6,5.6l1.1,3.4l2.8,5.5
	l4,4.8l2.3,1.6l1.9,1.4l4.4,1.7l4.6,0.8l5.3-0.3l2.2-1l4.5-2.7l3.7-3.4l1.4-2.2l1.3-3.6l0.7-4.7l-0.7-6.9l-0.5-1.5l-2.8-6l-2-2.7
	l-1.3-1.2l-1.7-2.2l-2.3-1.6l-1.4-1l-3.8-1.4l-7.2-0.7L739.6,642.1z M398.3,612l1.2,2.8l0.3,2l-0.3,2.4l-7.3,17.7l-0.9,1.8l-0.4,1.5
	l-5.1,12l0.3,3.2l1.3,1h2.9l10-6l3.5-1.4l2.3-1.8l6.9-3.9l1.1-0.8l1.8-0.8l4.7-2.5l3.7-0.7l2.9,1.2h2.4l-0.3-1.7l-0.7-1.5l-8.1-6.8
	l-1.5-0.4l-1,0.5l-0.1,0.7l0.6,3l-0.5,2l-3.1,2.4l-4.3,2.3l-4.2,2.5l-6.8,3.3l-2.4,0.3l-0.3-1.6l0.3-1.6l0.8-2.5l6.3-14.9l1.8-1.9
	l2-0.3l1.8,0.2l1.9-0.2l-0.2-2.2l-6.9-7.5l-3.8-3.4H398L398.3,612z M781.1,605.4l-1.8,0.8l-17.1,17l-1.2,1.3l-1.5,1.2l-1.5,2.2
	l0.2,2.2l0.6,0.1l1.7-0.6l2.5-0.6l2.4,0.9l0.7,0.8l1.3,1.2l2.6,2.8l1.8,1.5l1.2,1.5l6.8,6.8l1.3,1.2l1.7,2l1.3,1.2l1.5,2.3l0.3,1.7
	l-0.7,3.4l0.5,1l1.6,0.1l5-5l1.5-1.2l1.7-2.2l1.5-1.2l0.8-1.8l-0.7-1.1h-1.6l-2.8,0.9L790,645l-1.2-1.2l-1-0.8l-4.7-5l-0.3-3.2
	l1.5-1.8l2.2-1.5l1.6-0.3l2.4,0.6l1.4-0.2l-0.3-2.6l-1-1.2l-6.3-6.2l-1.6,0.2l-0.5,1.1l0.5,1.7v2.6l-1.5,2.5l-2.3,1.5l-1.4,0.2
	l-2.6-1.5l-1.1-1.5l-1.7-1.3l-2-2.7l-0.2-1.8l2.7-3.6l4.8-4.6l1.2-1.3l2.7-2l1.7-0.3l2.8,0.3l1.8,1l2.3,0l-0.3-1.1l-0.7-1.1
	l-5.7-4.6L781.1,605.4z M372.4,604.4L370,602l-3.7-6.1l-0.2-2.5l1.5-1.9l3.2-2.2l2-1.3l3.4-0.4l1.3,1l4.2,5.8l1.4,3v3l-1,2.4
	l-3.8,2.4l-3.3,0.1L372.4,604.4z M370.7,575.5l-0.1,4.1l-1.1,2l-2.6,2.5l-15.9,10.4l-3.6,2H344l-2.6-1.3l-2.2,0.2l-0.3,0.8l0.1,1.2
	l4.7,7.6l3.1,4.3l1.4,0.4l1.5-0.6l0.1-5l1.4-1.7l6.9-4.6l1.7-0.3l1.8,0.4l2,2.2l2.1,3.4l0.3,3.1l-1.4,3.1l-6.2,5.9l-1.9,2.8l-1,2.4
	l0.1,3.9l1.5,3.5l2.2,1.5l4.2-0.2l0.1-0.3l1.2-1l-0.1-1.6l-2.6-1.2l-0.7-1.1l0.3-2.4l1.6-1.8l1.6-1.2l1.2-1.3l2.3-1.7l3.6-4.6
	l1.6-0.3l3.4,0.5l4.8-0.2l2.4-1l1.6-1.3l1.5-1.2l1.5-2.6l0.7-3.8l-0.7-4l-2.7-5.2l-11.2-15.1l-2-2.2l-1,0L370.7,575.5z M810.5,562.8
	l-1.6,2.8l-1,1.4l-1.9,3.7l-1,1.4l-1,2.6l0.2,1.7l1.3-0.1l1.6-1.3l3.1-0.6l4.4,2l1.4,1l2.7,1.2l1.4,1l1.7,0.8l8.5,5.1l1.7,0.8
	l3.3,2.3l1.5,1.9l0.3,1.7v2.9l2.2-0.2l5.3-9.4l1-2.5l-0.2-1.5h-1l-2.5,1.1l-2.2,0.2l-3-1l-11.1-6.2l-1.4-1l-2.6-1.2l-6.7-4.1l-1.3-1
	l-0.9-1.9v-3.9L810.5,562.8z M474,541.6l-0.6,0.8l1.2,2.2l1.5,0.4l-0.3-1.7l-0.8-1.8L474,541.6z M348.3,532v2.5l-0.5,2.4l-2,1.9
	l-4.3,1.9l-4.7,2.5l-3.8,1.4l-1.6,0.9l-9.2,3.6l-2.1,0.2l-2.4-1l-1.4-1l-2.2,0.2l-0.2,1l0.2,2.2l2,4.3l1.4,3.6l1.4,2.6l7.5,16.3
	l1.3,1h3l6.1-2.2l1.2-1.3l-1.3-1.1l-6-0.4l-2.7-1.9l-2.2-4.7l-2.9-6.8l-0.2-2.2l1.1-1.7l7.1-3.4l3.3-0.3l0.9,0.8l1.1,2.2l0.4,2.1
	l-0.3,2.5l-1,1.4l-0.4,1.8l0.7,1.1h1.3l2.6-0.9l7.3-3.8l0.8-1.2l-0.8-1.7l-3.5-0.6l-1.2-0.7l-1.6-2.6l-0.4-3.3l1.4-1.8l5.7-2.8
	l3.1-0.9l1.8,0.8l1.6,2.7l3.9,8l0.7,3.6l-0.9,2.8l-1.8,2.1l-0.1,1.9l1.1-0.2l5.8-2.9l1.8-1.9v-1l-11.9-25.3l-2.1-3.1l-1.1-0.3
	L348.3,532z M549.2,522.9l0.8,0.8l-0.7-1.1L549.2,522.9z M834.2,512.9l-1.4,1.4l-2.7,7.1v2.9l1.2-0.3l1.5-1l2-0.3l2.6,0.3l1.2,0.6
	l1.8,0.4l1.7,1l7.3,2.9l3.7,2.2l0.2,1.6l-1.5,0.6l-4.6,0.8l-1.7,0.6l-9.9,1l-2.5,0.7l-6.5,0.7l-1.4,0.4l-1.6,1l-4.2,9.4l0.2,2.2
	l0.9,0.5l3.1-2.5l2-0.2l8,3.1l4.1,2l2.2,0.8l1.9,0.9l2.7,1.2l1.9,1l2.2,0.8l3.5,1.8l1.9,1.8l0.6,4.3l1.5,0.5l0.9-1.3l3.3-7.3
	l1.4-2.3v-2.3l-2.7,0.6l-2,1.8l-3.3,0.3l-1.8-0.7l-14.5-6.7l-5.4-2.9l-0.2-1l0.8-1.1l4.5-1.2l5.6-0.6l1.7-0.6l18.9-2l5-1.3l1.8-1.9
	l-0.2-2.5l-1-0.8l-4.9-2.5l-4.2-1.4l-6.2-2.7l-3.3-1.1l-6.7-3l-5-1.8l-0.7-0.8l-1.2-1.2l-1.2-4.4L834.2,512.9z M478.3,512.5
	l-0.4-0.7l-0.4-0.1L478.3,512.5z M544.9,506.1l0.7,1.4l1.5,0.4l-0.4-1.4l-1.3-0.9L544.9,506.1z M327.6,491l-2.7,1.4l-2.2,2.4
	l-1.9,3.1l-1.2,4.8l-1.2,10.3l-1.2,4.6l-0.8,1l-1.2,1.2l-2.2,0.9l-3.5,0.1l-2.4-1l-1.5-1.6l-1-2.2l-0.5-5.2l0.8-3.6l2.2-4.3l3.8-4
	l-0.2-2l-0.8-0.4l-3.3,0.1l-1.7,0.6l-3,0.3l-3.5,1.5l-0.1,0.7l0.6,1.4l1.9,1.5l0.6,2.7l-0.9,7.5l0.9,4.7l1,2.4l2.5,3.5l3.1,2.3
	l3.3,1l5.4-0.3l1.9-0.9l2.7-2l0.9-1.4l1.4-1.9l1.3-3.9l1-8.1l1.4-7.1l1.4-3l1.7-1.5l3.3-0.4l2.1,1.1l1.9,1.8l1,2.8l-0.2,4.8l-1,2.6
	l-1,1.4l-0.8,1.7l-2.6,3l-0.5,1.3l0.6,1.5l4.6-0.6l5.7-2.2l0.2-0.6l-0.1-1.1l-1.8-1.9l-0.5-2.4l0.5-4.5l-0.1-3.8l-1.7-4.9l-2-2.7
	l-2.9-2.3l-2.2-0.6L327.6,491z M477,484.2l0.1,1l1.2,0.9l3,0.4l0.1-0.3l-0.1-0.7l-2.2-1.5L477,484.2z M514.2,473.8l0.2,2.2l0.6,0.2
	l2.3,0.8l4.2,1.7l2,2.3l1.2,2.6l0.7,4l1.2,4.2l2.5,4.5l2.2,7.6l7,9.9l1,2.8l1.3-0.1v-2.3l-0.8-2.8l-1.4-2.6l-1.9-4l-2.5-4.7
	l-2.6-7.8l-0.3-2.9l0.7-0.8l1.4-0.1l5.8,2.5l2.8,1.9l1.4,3.3l1.2,0.7l0.8-0.7v-2.3l-1-2.2l-3.8-3.1l-3.2-1.5l-6-4.6l-1.1-1.6
	l-7.1-5.8l-3.1-1.4l-4.1-0.6L514.2,473.8z M676.8,467.3l0.1,1.1l3,3.5l3,2.2l0.1-0.3l-0.2-1.7l-1.5-1.9l-2.5-2.4L677,467
	L676.8,467.3z M849.3,490.2l-3.9-1.3l-0.8-1.8l-0.1-2.1l1.3-4.6l2.1-3.7l0.8-0.9l2.3-1.6l3-1l5.8-0.3l7.2,1.4l5.3,2.5l3.4,3l2,3.6
	l0.2,4.5l-1.5,6.3l-1.3,1.7l-4.3,0.2L849.3,490.2z M853,466.4l-4.5,2.6l-4.2,5.3l-1.2,2.7l-1,1.9l-2,6.5l-3,12.8l0.3,2.9l2.2-0.2
	l1.5-2.2l1.8-1.5l3.6-0.4l11.6,3l3,0.7l8.8,2.5l2.6,1.5l0.8,1.8l1.1,2.6l1.5,0.1l0.5-0.8l1.6-5.2l0.3-2.2l1.7-7l1.3-8.5l-0.4-6.4
	l-1-2.8l-2.6-3.5l-3.3-2.7l-6.3-3.2l-5.1-1.2l-5-0.1L853,466.4z M525.8,463.8l-0.1,0.7l1.8,3.5l4.4,4.3l3.2,2.7l2.1,2.2l2.2,1.5
	l2.5,0.5l0.9-1.1l-0.3-3.2l-2-2.3l-6-3.7l-1.7-0.8l-5.4-4.5L525.8,463.8z M532.5,453.8l0.1,1.1l3.1,4.8l3,3.5l4.3,3h2.3l0.9-1.2
	l-0.3-2.9l-0.9-0.8l-5.1-3.1l-3.6-2.7l-1.2-1.5l-1.9-0.8L532.5,453.8z M538.5,445.1l5,5.6l1.3,1l2.1,0.5l0.5-1.1l-0.2-1.9l-2.9-2.6
	l-4.7-3.4l-1.5-0.2L538.5,445.1z M329.3,441.8l-0.8,2.2l-1.5,2.2l-1.8,0.9l-9.1,1l-2.6-0.2l-9.9,1l-1.8-0.1l-2.6,0.3l-2.5-0.5
	L295,447l-1.2-2l-0.8-0.2l-1.3,0.1l-0.3,4.1l0.7,6.9l-0.3,1.8l2.1,19.8l0.4,1l0.9,0.8h3.2l2.4,0.3l5.1-0.2l-0.5-1.8l-1.4-0.7
	l-2.8-0.7l-2.9-1.4l-0.9-1.8l-0.6-5.6l-0.6-1.7l-0.3-2.6l0.3-4.4l1-2l1.1-0.4l9-1l1.2,0.2l1.7,1.4l0.7,4.1l-0.5,1.9l-1.6,1.6
	l-1.4,1.7l0.1,1l2.8,0.7l7.3-0.8l2.7-1v-1.3l-0.7-1.1l-2.6-1.2l-1-1.4l-0.7-3.8l0.5-2l2.3-1.1l4.7-0.6l4.1,0.2l1.2,1l1,2.4l1,9
	l-0.1,1.6l-0.9,3.9l-4.3,3.2l0.1,0.9l1,0.5l3.9-0.4l4.3-1.6l0.6-1.5l-1.3-12.5l0.2-1.8l-1.6-15.5l-0.9-1.8h-1L329.3,441.8z
	 M586.6,440.6l1.1,3.1l1,0.2l-0.8-3.4L586.6,440.6z M572,438.6l0.7,4l1.5,0.1v-2.6l-0.8-1.8l-0.9-0.5L572,438.6z M844.7,436.4
	l-0.3,1.1l0.1,3.5l-0.3,1.8l0.3,2.6l-0.3,1.8l0.5,4.3l0.4,1.1l0.6,0.2l1-0.1l1.2-2.6l1.9-1.5l4.6-0.4l1.8,0.2l2.6-0.3l1.8,0.2
	l4.8-0.1l13.6,0.6l2,1.1l1.8,3.6l1,0.2l0.8-1.7l0.2-12.5l-0.6-2.4l-1.8,0.5l-1.2,2.6l-1.8,0.9l-9.9,0.6l-4.8-0.4h-8.7l-5.3-0.6
	l-2.5-1.4l-1.8-3.3L844.7,436.4z M498.4,435l1,0.5l0.1-0.3l-0.1-1.3l-1.5-0.4L498.4,435z M598.7,432.7l-0.2,2.9l0.9,3.2l2.7,5.1
	l1.5,0.5l0.2-1.1l-0.5-1.4l-0.4-3.8l-1-3l-1.6-2.6L598.7,432.7z M660.5,433.4l0.8,2.4l2,2.6l1.5,0.1l-0.5-2.4l-2.5-3.5l-0.9-0.5
	L660.5,433.4z M695.7,431.7l0.2,2.2l2.6,4.2l4.4,4l2.7,2.3l3.5,3.6l2.9,2.6l1.5,0.1l0.1-0.3l-0.2-1.7l-2.4-2.2l-2.6-1.6l-0.7-0.8
	l-1.4-1l-3.7-3.7l-5.8-7.6l-1-0.8L695.7,431.7z M645.1,430.8l-0.2,1l0.4,3.5l5.9,15.9l1.5,2.3l1.1,0.5v-2.5l-5-17.6l-1.7-3.3
	L645.1,430.8z M612.4,430.3v1.3l1.5,4.8l2.6,4.2l1.5,0.6l0.1-0.3v-2.8l-1.7-5.3l-2-2.7L612.4,430.3z M445.1,430.3l1.5,2l1.6,0.5
	l4.3-0.5l1-1.3l-0.7-1.1l-3.6,0.1l-3.2-0.4L445.1,430.3z M628.4,429.1v1.6l2.9,9.9l1.5,1.4l1.5,0.1l-2.2-10.2l-2.1-3L628.4,429.1z
	 M552.6,425.3l-0.2,1l0.6,3l8.5,14.7l1.1,0.5l-0.2-2.2l-1-3l-3-8.4l-2.6-4.3l-1.7-1.4L552.6,425.3z M466,425.8l4.1,7.1l4,9.3
	l1.4,7.9l4.2,10.4l2,2.2l2.2,1.5l3,1.3l0.1-0.3l-0.2-2l-0.8-0.5l-2.5-3.1l-3.7-6.6l-2.9-9.8l-3.1-8.7L471,429l-5.1-7.1l-1.5-0.1
	L466,425.8z M442.5,419l-0.2,0.6l0.1,1l9.3,0.2l0.2-0.6l-1.2-2.1l-1.9-0.5L442.5,419z M408.2,405.5l0.3,2.6l2.3,0l1.3-1.6v-0.9
	l-2-1.1l-0.7-0.1L408.2,405.5z M424.9,403.3l0.2,1.7l1.9,0.1l0.1-0.3l-0.3-2.6l-0.8-0.4L424.9,403.3z M318.3,420.6l-2-2.1l-0.9-2.1
	l-0.2-4.2l1.4-7.5l1.1-1.7l1.6-0.3l6.1,0.4l2.4,0.6l1.3,1.3l0.3,1.9l-0.4,6.1l-0.8,4.6l-1.4,2.2l-3.1,1.9h-3.1L318.3,420.6z
	 M295.4,388.8l-0.3,1l-1.5,10.7l0.4,3.6l0.7,0.2l1.3-0.1l0.9-1.7l1.9-1.5l3.3-0.6l6.9,0.9l1.7,1.1l0.6,2.7l-0.7,4.7l-1.1,2.3l-1,1.3
	l-3.6,1.5l-8.6,0.9l-2.4,1l-1.6,1.3l-1.5,1.2l-1,2.4l0.1,3.5l1,2.2l2.2,1.5l3.3-0.1l-1.6-4.3l0.8-1.8l1.8-0.9l3.9-0.4l1.8,0.2
	l5.4-0.9h1.7l2.8,3.2l1.2,1.5l2.2,1.5l3.5,1.3l5.7,0.1l3.6-2l2.6-2.9l1.3-3.9l2.6-23.2l-0.6-3.1l-0.8-0.4l-1,0.1l-3,3.2L326,397
	l-7.1-1.1l-7.5-0.7l-10.5-1.5l-1.8-1.4l-1.4-3.4l-0.9-0.2L295.4,388.8z M440.2,387.1l-2,1.9l-1.4,3.5l-1,4.3l0.5,1l0.8,0.2l2.1-1.7
	l3.3-0.3l1-0.7l0.5-1.9l-0.8-4.7l-1.5-1.7L440.2,387.1z M862.8,410l-6-1.6L855,407l-0.1-0.9l2.3-2l7.7-3.1h1.6l1,1.6l0.4,2l-0.1,4
	l-0.9,1.5L862.8,410z M877.7,382l-1,4l-2.2,2.3l-30.3,15.6l-1.5,1.7l0.3,2.7l1.7,1.4l30.7,7.8l4.7,1.7l1.5,1.6l1.2,2l1.9,0.4
	l0.1-3.1l-1-9.5l-0.9-1.4l-0.7-0.1l-0.5,0.6l-1.5,2.6l-2.1,0.8l-2.3-0.3l-2.4-1.1l-0.9-1.8l-0.9-9l0.4-3l0.6-0.8l2.3-1.6l3.3-0.3
	l1.9,1.4l1.9,0.1v-3l-0.6-2.6l-0.8-7.8l-0.9-2l-1-0.3L877.7,382z M324.2,357.7l-2.7,1.7l-1.1,1.7v2.5l1.5,2.8l2.2,1.4l3.4,0.4
	l2.2-1.4l1.1-1.7l0.5-2.5l-0.5-2.4l-1.3-1.5l-2.6-1L324.2,357.7z M849.9,356.5l-2.4,0.8l-1.8,1.9l-0.5,1.9l0.6,2.8l1.8,2l1.8,1
	l3.8-0.1l2.1-1.8l1-2.5l-0.3-2.9l-2-2.3l-2.1-1.1L849.9,356.5z M532.4,260.8l0.7,6.5l-0.2,1.2l-0.7,1.2l-0.7,0.2l-4.2-1.5l-4.5-3
	l-2.7-3.5l-2.2-1.5l-1.2,0.1l-1,1.3l-1.4,0.9l-3.5,0.4l-0.7,0.4l0.2,0.3l6.1,3.7l1.8,0.8l1.9,1l1.8,0.8l1.4,1l14.4,8.2l1.4,1
	l1.7,0.8l2.1,2l1.8,1.5l1.2,1.4l2.2,1.7l8.5,10.3l6.3,10.2l2.9,6.8l3.3,12.4l0.5,7.1l0.5,9.8l-2,12.8l-2.6,7.4l0.3,3.2l1.9,0.4
	l0.8-1.7l5.1-17.8v-3.3l0.2-1.8l-0.7-6.5l0.1-5.7l1.8-6.7l0.2-4.1l-0.8-2.5l-2.5,0.3l-1.4-0.7l-0.7-3.7l0.9-5.3l1.3-8.5l-0.1-3.8
	l-0.6-0.5l-0.4,0.3l-0.4,2.1l-1.3,3.9l-1.5,2.6l-1,0.2l-1.1-0.8l-1.1-2.5l-0.8-5l0.3-5.3l-0.7-6.9l-1-2.2l-0.7,0.1l-0.6,4.1l-1,3
	l-1,1.3l-1.7,0.2l-2-1.9l-2.1-3.1l-0.7-3.9l0.4-4l-0.6-6l-2.9-8.4l-1.8-2.3l-0.2,0.7l0.9,8.6l-1.1,4.9l-1,2.4l-1,0.3l-2.5-1.3
	l-3.5-4.3l-1.2-3.4l-0.6-2.8l-1-2.5l-2.1-3.5l-1.4-0.9L532.4,260.8z M824.3,243.9l-1,1.6l0.3,2.9l1.4,1l3.2-0.1l1.3-1.7l-0.3-2.9
	l-1.3-1.2l-1.7-0.4L824.3,243.9z M703.6,564.8l4.1,0.4l1.1,0.5l3.4,2.1l3.9,1.3l10.7,1.2l7.1,3h3.3l3.7-1.7l4.3-0.2l2.1,0.2l3.6-1.2
	l2-1.2l2.5-2.3l1.8-0.9l3.4-0.2l2.2,1.1l1.5,1.7l0.4,3.5l-1.4,3.5l-1.1,1.7l-3.4,2l-4.3,0.5l-4.8-0.2l-2-1.1l-2.2-2.7l-1.3,0.1
	l-2.8,2.8l-1,0.4l-4.3,0.5l-2.4-0.5l-4.6-3.4l-0.8-0.3l-1,0.2l-1,2.5l-0.1,0.7l-0.6,0.8l-2.4,0.5l-7.9-0.3l-2-1l-0.6-4.3l-1.7,0.2
	l-3,3.2l-2.4,1l-4.5,0.2l-2-0.7l-0.7-0.9l-0.6-2.9l-0.5-0.7l-2,0.2l-2,3.1l-1.9,1.5l-2.4,1l-3.5,0.1l-2-1.1l-0.4-1l-0.5-5.2
	l-2.2,0.8l-2.4,3.7l-1.9,1.5l-2.8,0.6l-1.9-0.5l-1.5-1.5l-1.3-2.5l-1.1-0.5l-1,0.2l-2.6,4.1l-1.1,0.4l-8.2,1l-1.5-0.7l-0.2-2.1
	l0.3-1.2l-0.3-1.3l-1.2-0.5l-2,1.7l-0.8,1.7l-1.5,1.5l-2.4,1l-3.9,0.1l-1.5-1l-1-4l-1-0.3l-1.4,0.7l-0.8,1.7l-2.2,2.4l-1.9,0.9
	l-4.5,0.2l-2.4-0.6l-0.7-0.9l-0.4-3.9l-0.4-1l-1.3,0.1l-1.8,1.9l-1.2,2.2l-1,1l-1.1,0.4l-6.1,0.3l-3-0.6l-1.2-2.2l-0.5-2.2l-1.7,0.2
	l-3.8,4.2l-1.6,0.8l-3.3-0.7l-1.2-0.7l-1-3.7l-1.9-0.4l-2.2,1.2l-1.2,1.7l-1.5,1.2l-0.8,0.8l-2.4,0.8l-2.2,0.1l-1.6-1l-1.2-5.6
	l-1.3-0.4l-1.5,1.2l-2.8,4l-1.1,1l-3,0.3l-1.3-0.3l-0.8-1.5l-0.1-2.6l-0.7-1.2l-2.6,0.3l-1.4,1.5l-0.9,1.7l-1.1,1.9l-1.8,0.9
	l-5.2,0.5l-2.8-0.4l-1.2-1.3l0.3-4.4l-2.7,0.5l-1.5,2.2l-0.9,1.8l-1.1,1l-3.3,0.6l-1.9-0.5l-0.9-1.4l-0.6-3.3l-1.6-0.3l-1.2,0.7
	l-1.2,2.6l-1.5,1.9l-4,0.7l-2.4-0.5l-1-1.1l-1-4.6l-0.5-0.9l-2,0.2l-1.1,2.3l-0.3,2.7l-1.4,1.8l-2.1,0.7l-5.9,0.2l-3.2-0.5l-1-0.8
	l-0.6-3.1l0.8-3.9l-0.3-1.6l-1.1,0.1l-2.3,3.3l-1,4l-1.4,1.8l-1.1,0.4l-4.3,0.5l-2.5-0.5l-1.3-1l-0.3-2.7l0.6-2.1l-0.3-1.2l-2,0.2
	l-2.3,3.3l-1.2,2.6l-1.8,0.9H479l-1.8-0.7l-0.2-2.2l0.3-1.3l-0.3-1.6l-1.5-0.4l-2,0.3l-1.8,2l-1.2,2.6l-1.8,0.9l-4.9,0.2l-1.8-0.7
	l-0.6-4.2l-1.2-0.5l-1.6,0.8l-1.3,1.7l-1.5,1.2l-1.6,1.3l-2.8,0.6l-3.4-0.4l-0.8-0.4l-0.6-2.3l0.5-2.7l-0.3-1.8l-2.6,0.3l-6.1,7
	l-4.1,0.7l-1.3-0.2l-1.1-0.6l-0.2-2.3l0.9-2.4l-0.2-1.9l-0.4-0.8l-1,0.1l-1.8,1.8l-2.7,4.2l-2.1,2l-1.4,0.1l-2.2-0.6l-2-2.2
	l-0.9-2.8l-0.1-2.2l1-2.9l1.8-2l3.6-1.4l5.6-0.6l4.8,0.4l4.3-0.2l2.9,1l1.4,1l4.4,0.8l2.2-0.1l5.9-0.9l3.4,0.8l3.3,1.2l4.9,0.7
	l4.4-0.8l1.4-0.6l1-0.1l3.2-1.6l3.1-2.3l1.1-0.4l4.7-0.5l1.8,0.3l5.6-0.6l1.8,0.3l3-0.3l5.3,0.3l2.6-0.3l1.8,0.2l5.6-0.6l8.8,0.7
	l7.6,2.4h11.2l2.4,0.3l8.9-1.8l7.1,1l5-0.8l2.2-0.8l4.5-0.2l4.7,0.5l4.7-0.5l1.8,0.2l2.2-0.2l7.5,0.5l2.2-0.2l1.8,0.2l4.8-0.5
	l1.5,0.1l0.8-0.2l1.2,0.2l5.6-0.3l4.8,0.5l4.8-0.5l2,0.1l7.9-0.7l1.8,0.3l2.2-0.2l6.6,0.5l6.5,2.2l3.4,0.3l6.4-0.7l4.9,0.8l6.5-1.4
	l4.9-2l3.9-0.4l1.8,0.3l3-0.3l1.8,0.2l2.2-0.2l8.7,0.4l7.3-0.8l2,0.1L703.6,564.8z M504.9,559.5l-0.9-1.3v-2.5l1.1-2.1l1.4-0.7l2,0
	l2.3,1.1l1.3,1l2,2.7l0.2,2l-0.9,1.1l-4.8,0.2L504.9,559.5z M762.6,550.8l-2.4-4.5v-1.6l0.7-1.5l1.2-0.7l3.4,0.6l2.4,2.4l1.6,2.6
	l0.1,1.3l-1,1.6l-1.5,0.9h-2.9L762.6,550.8z M774.3,545.7l-1.3-2.9v-1.3l1.3-1.4l3.4-0.6l3.4,0.8l2.2,1.4l0.2,1.9l-1.7,1.8l-2.3,1.4
	l-3.8,0.1L774.3,545.7z M517.5,555.1l-4-3.4l-1.7-0.8l-4-3.4l-0.3-0.1l-0.3-3l3.6-5.9l1.6-1.2h1.3l3.9,4l1.7,2.3l1.8,1.6l1,1.5
	l0.4,3.3l-1.7,4.4l-0.9,1.2L517.5,555.1z M526.3,543.8l-6.2-5.5l-1.7-2.3l-1.3-1.1l-1.6-2.6l-0.2-2l0.6-2.2l1.5-2.3l1.1-0.7h1.3
	l2.4,1.9l3.2,4.3l2.1,1.1l3.3,0.7l2.2,1.3l1.5,2l1,2.8v2.5l-0.6,0.8l-6.2,1.8L526.3,543.8z M485.4,560.3l-0.9-1.4l-0.1-4.1l1.3-4.6
	l4.5-6l2.6-6.1l1.8-3.1l2.2-2.4l2-1.2l2.8-2.5l3.6-5l1.9-1.5l2.4-0.8l1.9,0l1.2,1.9l-0.4,1.8l-1.5,1.2l-1.9,2.7l-1.9,8.6l-1.1,1.7
	l-2.3,1.7l-1,2.4l-0.3,3l-2.8,9.4l-1.6,2.6l-2.1,1.8l-6,0.6L485.4,560.3z M677.4,560.7l-0.3-3l1.9-2.8l1.9-1.7l0.8-1.7l2.6-4.6
	l2.2-2l2.1-1.2l2.7-3.6l1.4-4.6l1.3-8l1.4-3.1l3.5-3l2.4-1.7l3.6-3l1.2-1.3l1.3-1.4l3-0.3l6.3,2.8l6.1,4.2l1.5,1.9l1.4,3l3.4,4.3
	l1.5,2.7l0.4,6.3l-0.6,2.7l-1.5,1.8l-1.9,0.9l-7.3,0.8l-3.2,1.5l-2.7,2l-3,4.1l-3,5.6l-1.5,1.9l-1.8,0.9l-3,0.3l-1.8-0.2l-3,0.3
	l-5.3-0.3l-4.8,0.5l-1.8-0.3l-5.2,0.3L677.4,560.7z M526.5,525l-2.8-4.4l-3.2-2.4l-0.8-1.7l-0.1-1.9l0.7-1.5l2.2-0.2l1.3,1l5.3,4.8
	l1.6,2.6l0.9,2.6v1.5l-0.5,1.1h-2.8L526.5,525z M612.2,509.8l3-0.7l14.7-1.5l1.6-0.6l2.2-0.2l1.7-0.6l5.2-0.5l2.5,0.5l1.7,1.1l4.2,7
	l1.3,2.7l0.8,1.1l2,5.4l1,2.2l0.4,4.2l-1.1,6.1l-1.6,4.8l-2.3,2.9l-3.6,1.7l-4.5,1.1l-6.4,2.8l-4,3.5l-1.3,3.8l-0.7,3.3l-1.8,1.9
	l-4.5,1.6l-4.7,0.5l-1.8-0.3l-3,0.3l-13.2-0.8l-13,0.7l-9.7-1.3H574l-1.8-0.7l-1-1.3l-2.8-7.5l-0.5-5.2l0.4-3.9l-0.8-7.8l1.1-10.6
	l-0.5-5.2l0.2-1.8l-0.2-4.9l0.9-4l2-1.6l8.5,1l4.1,0.7l12.6,1.1l3.9-0.4l1.8,0.2l4.3-0.4l1.8,0.2L612.2,509.8z M655,551.2l0.2-1
	l-0.5-5.1l0.5-2.1l1-1.3l1.1-0.2h2.6l1-0.4l-0.2-2.2l-3.2-3l-0.3-3.2l1.1-1.7l4.9-1.5l-0.2-2l-2.6-1.6l-3.3-2.7l-2.6-4.3l-5.5-14.2
	v-1.2l1.8-0.6l1.9,0.3l1.2,1.5l2.9,2.8l4,2.3l3.7,5.1l3.6,2.7l3.5,1.4l8.2,1.8l0.4,0.1l0.8,1.7l-1,8.2l-1.8,1.2l-2.9-0.3l-2.3-1.4
	l-2,0.2l0.2,2.1l1.5,1.9l3.3,2.3l1.7,0.9l1.5,1.7l0.1,1.3l-1,2.4l-1.3,0.9l-5.3,0.9l-2.1,1.1l0.2,1.6l4.9,2.1l0.9,0.8l0.2,1.6
	l-1.1,2.4l-1.1,1l-1.1,0.4l-3.9,0.4l-1,0.4l0.2,1.6l0.8,0.8l0.2,2.3l-1.4,1.7l-4,2l-2.1-0.1l-1.7-1.2l-1.8-3.1l-1.2-0.5l-1.3,0.3
	l-2,3.1l-2.2,1.5l-3.2,0.3l-2.2-0.6l-1.4-1.2l-0.5-2.2l1.1-4.4l-0.2-0.7l-2.2,0.2l-3.4,3.7l-2.8,0.6l-1.2-0.2l-1-1.3l0.3-2.5
	l1.8-3.5l2.3-2l4.4-2.1h2.6l8.5,2.1L655,551.2z M684.5,541.1l-0.8-2.1l-0.1-2l0.4-2.1l0.1-6l0.9-3.9l1-1.9l0.6-3.5l2.6-4.2l5.7-6.7
	l5.1-5.5l1-0.8l2-0.2l1.3,1l0.7,4.1l-0.8,3.4l-2.2,3.1l-4.1,3.9l-1.5,1.2l-3.6,3.4l-1.7,4.8l-1.2,6.4l-1.7,4.8l-2.4,2.7L684.5,541.1
	z M459.3,550l1-2.4l0.8-6.2l4-15.2l0.3-2.7l-0.1-3.6l2.4-10l2.4-4.9l0.9-1.8l1.3-0.9l3.9-0.1l2.1,0.2l1.4-0.1l6,0.7l3.5,1.4l1.4,1
	l0.9,0.5l4.1,5.5l4.1,7.7l0.1,4l-0.7,1.8l-1.5,1.5l-3.2,0.3l-1.8-1.4l-2.9-3.2l-2.4-5l-1.2-0.5l-0.8,0.7l0.2,2l4.3,9.1l0.9,3.1
	l0,1.7l-1,3l-1.1,0.7h-1.3l-2.3-3.7l-2.5-3.1l-2.2-1.5l-1.1,0.1l-0.5,0.3l0.2,1.8l3.9,5l1,2.5l0.7,6.4l-0.5,2.4l-2.8,4.8l-2,7.5
	l-1.1,0.7h-1.3l-3.9-4.4l-2.3-1.1l-1.2,0.5l0.1,1l2.8,3.5l0.8,1.8l-0.3,2.6l-1.5,2.2l-1.8,0.9l-4.2,0.1l-1.7-1.1l-0.6-2.7l0.1-2
	l-0.7-1.5l-1.1-0.5l-1.1,0.2l-1.3,2.6l-0.4,1.8l-2.1,2.1l-1.7,0.6l-2.5-0.3l-1.7-1.1l-0.3-3l1.7-3.5l-0.2-2.1l-2,0.2l-2,2l-0.8,1.7
	l-2,2l-2.6,0.3l-0.8-0.4l-0.6-2.7l0.8-3.3l1.8-3.3l1.8-1.9l3.4-1.4l4.6-0.6l3.6,0.9L459.3,550z M672.1,515.4l-3.1-1.8l-3.4-3
	l-2.5-2.5l-2.8-1.9l-1.9-1.8l-1.3-2.3v-1.2l0.7-1.2l3.6-0.7l2.1,0.5l6.4,4.1l2.8,4.4l3.7,0.8l4.3-0.2l4.7,1.7l0.7,1.2l-0.8,1.7
	l-2.3,2l-1.5,0.9l-4.5,0.2L672.1,515.4z M682.4,506l-1.3-1l-0.3-2.3l3.4-5l2.6-1.3l2.2-0.1l2.9,1l1.9,1.5l0.8,1.5v1.3l-1.5,2.4
	l-3.4,2.8l-4,0.1L682.4,506z M670.5,498.6l-0.8-1.5v-1.3l2.1-1.5l3.1-1.3h1.6l1,0.3l0.8,1.7l-0.8,2.2l-1.1,1.7l-0.9,0.8h-3.2
	L670.5,498.6z M735.3,477.4l-1.4-1l-0.4-1.1l-0.6-5.6l0.6-1.5l2.6-0.3l4.1,1.3l1.3,1.5l1.7,4.9v2.3l-0.5,0.8l-3.5,0.1L735.3,477.4z
	 M762.4,537.7l-1.7-1.1l-1-2.2l-1.2-11.6l1.6-9.3l-0.7-3.8l-2.7-4.8l-2.9-3.9l-4.5-9.4l-1.1-3.4l-0.5-5.2l-0.5-1.7l0.1-1.3l-0.5-4.3
	l0.3-1.8l-0.6-6.5l-1.5-5.1v-3l0.3-1.2l1.6-1l2.6,0.3l4.9,2.1l1.4,1l7.1,5.1l3.8,3.4l6.8,6.4l7.6,9.9l3.8,6.9l3.5,10.1l0.4,3.5
	l0.4,1.1l-0.2,1l0.3,5.8l-1.4,7.3l-1.4,3.5l-1,1.4l-2.8,3.8l-4.4,4l-5,3.1l-3,1l-5.2,0.5L762.4,537.7z M733.2,461.1l-1-1.4l-1.1-3.4
	l-0.2-4.6l1.5-0.6l1.8,0.4l1.8,1l1.8,0.8l1.5,1.4l0.7,4.1l-0.5,2.1l-0.9,1.1l-3.5,0L733.2,461.1z M425.8,455.9l-2.5-1.1l-1.6-2
	l0.1-0.9l0.6-0.8l3.7-1.1l4.3-0.4l1.5,0.6l1,1l0.8,2.2l-0.5,1.2l-3,1.5L425.8,455.9z M442.2,452.9l-1.7-1.1l-0.8-2.2l0.5-1.1
	l3.9-1.6l3.6-0.1l1.9,1.5l0.8,1.7l0,1.6l-1.8,1.4l-4.3,0.4L442.2,452.9z M393.4,435l-0.5-0.2l-0.2-2.3l1-1.3l5.1-2.4l3-0.2l1.2,0.7
	l0.2,2.3l-1.1,2l-1.1,1l-1.9,0.9l-3.8,0.1L393.4,435z M741,450.2l-3.5-1.8l-1.4-1l-2.2-0.8l-1.6-1.4l-6.3-3l-1.4-1l-0.9-0.8
	l-4.6-5.6l-3.2-2.5l-1.2-1.5l-1.8-1.5l-3.1-4.3l-0.8-2.5v-1.2l1.8-0.6l1.9,0.4l7.9,4.7l2.5,1.2l2.8,2.1l1.7,0.9l3.1,3l1.2,0.5
	l1.3-0.3l0.8-1.7l2.2-0.2l5.1,1.9l1.5,0.4l1.9,1l1.8,0.8l1.4,1l1,0.8l5,6l1.2,1.6l1.2,0.5l1.3-0.3l1.3-1l1.8,0.4l1.8,1.4l2.9,2.8
	l4.2,2.8l2.9,2.7l2.7,4.6l1.3,2.8l1,1l2.5-0.2l1.4-0.6l1.7,1.1l4.1,6l3.1,7.4l1.3,1l2.8-0.1l1.2,1l3.4,10l0.8,1.7l0.9,4.3l-0.5,6
	l0.8,1.6l1.3,1.7l0.7,4.3l-0.6,5.1l-2.1,5.4l-0.9,6.9l-0.8,2.3l-2.6,4.2l-3,2.9l-4,2l-3.8-0.2l-1.2-0.5l-0.2-2.4l2.3-2l5.2-2l3-2.8
	l0.8-2.1l-0.3-1l-1.8-1l-0.2-2.3l4.1-9.3l-0.3-3.2l-2.6-0.8l-0.7-1.5l0.1-2l-0.9-8.6l0.1-2l-1-4.2l-1.5-1.9l-3,0.2l-1.8-1.4
	l-2.1-3.1l-0.8-5.1v-2.6l-0.9-2.8l-2.1-3.6l-1.4-0.9l-0.7,0.5l-0.4,1.9l-1.5,0.6l-1.4-0.5l-2.9-2.6l-3.9-4.1l-1.6-2.9l-2.5-5.4l-1-1
	l-1.6,0.2l-1.3,1.7l-2.6,0.3l-6-4.1l-1.2-1.5l-3.9-3.9l-2-0.8l-1,0.2l0.2,2.3l0.8,2.5L741,450.2z M502.6,464.4l-2.2-1.5l-2-3
	l-3.8-8.7l-0.7-6.5l0.2-1.8l-0.9-8.2l0.3-1.8l-0.2-4.8l3.4-13.7l2-6.3l1.8-3.5l1.4-1.5l3.6-0.4l8.5,1.3l9.4,3.4l2.6,1.5l3.9,4.2
	l1.8,0.8l1.3-0.3l0.7-3l1.1-0.7l4.1,0.6l2.2,1.4l3.2,4.4l2.2,1.5l2.1-0.2l0.2-3.8l1.4-0.7l2.3-0.1l4.6,1.2l2.2,1.5l1.5,1.9l5.2,10.9
	l1.5,2.3l1.2,0.5h1.2l-1.1-3.6l-2.6-5.8l-1.3-5.2l0.2-1.2l1.3-1l4.7,0.5l3.5,1.4l2.4,2.2l1.4,3.5l2.3,2.8l0.2,0.4l1.9,0.4l-0.9-7
	l0.8-1l2.2-0.5l3.8,0.3l1.7,1.1l1.8,3.3l1.8,1.8l1.4,0.5l1.3-0.3l0.6-1.5l-0.2-4l1.4-1l3.2-0.3l2.8,0.6l1.7,1.1l1.2,1.5l2.2,1.5
	l1.4-0.2l0.9-2l0.4-1.5l2.7-0.9l4.4,0.4l2,0.8l1.2,1.5l2.5,1.5l1.6-0.2l1.5-2.2l1.4-0.9h2.8l2.8,0.6l2.7,1.9l1.6,1.9l1.9,1.1l2.3,0
	l-0.7-3.4l0.1-0.7l0.6-0.8l2-0.4l7.3,0.3l2.2,1.1l1.2,1.5l2,0.8l1-0.6l0.8-1.8l2.1-0.8l4.1,0.2l2.9,1l2.6,2.2l2,0.4l0.5-0.2l0.3-2.7
	l0.6-0.8l3.7-0.7l3.8,0.8l2.6,1l3,2.6l1.4,0.4l0.6-0.9l0.3-2.4l1.3-1.3l1.9-0.2l5,1.2l3.6,2.7l6.6,7.9l1.3,1.2l2.7,3.2l4.6,3.6
	l1.2,1.5l2.9,3.6l2.7,4.5l0.9,3.1l-0.2,3.1l-0.4,0.8l-2.1,0.2l-2.4-0.9l-1.4,0.1l-0.5,0.9l1.2,1.9l1.7,1.3l1.2,1.5l2.2,1.7l0.7,1.1
	l1.2,0.7l1,1.2l0.9,2.8l-0.2,3.8l-0.7,1.2l-1.7,0.2l-2.6-1l-1.4-1l-5.7-3.5l-1.4-1l-5.2-3.5l-5-4.6l-2.2-1.2l-1.1-1.5l-1.3-1.2
	l-7.7-7.2l-1.2-1.5l-1.8-1.6l-4.6-5.2l-1.7-1.3l-1.2-1.5l-1.1-0.5l-0.9,0l1.1,3.2l3.5,4.3l1.3,1.2l6.5,5.9l1.8,1.6l12.5,11.7
	l9.7,8.1l2.6,1.6l1.6,1.4l1.7,0.8l2.1,1.8l1.7,0.8l1.4,1l2.2,0.8l2.8,1.8l11.4,4.6l1.5,1.5l1.5,3.2v2.3l-0.8,1l-3.3,0.3l-6.4-1.9
	l-8-3.4l-3.7-1.1l-10-5.5l-3.4-2.6l-4.2-3.2L705,475l-5.2-3.9l-1.5-1.5l-0.9-0.5l-1.2-1.5l-2.9-2.3L691,463l-1.8-1.6l-4-3.5
	l-1.2-0.5l0.1,0.6l2.5,3.1l1.3,1.2l4.1,4.4l1.3,1.2l5.8,5.5l3.6,3.5l4.1,3.1l6.6,4.5l3.3,2l1.9,1.4l9.7,5.1l13.3,4.9l5.2,2.4
	l2.4,0.8l2,2.1l1.4,3.8l0.1,1.9l-1.6,1.2l-6.3-0.4l-8.5-3l-3.5-1.7l-2.4-0.8l-9.5-4.9L719,499l0.5,1.8l3.6,2.7l3.7,2.2l2.3,0.8
	l1.4,1l12.7,6.1l8.1,2.6l2.4,0.8l1,1.1l0.6,2.8l-0.7,4.3l-1.1,1.7l-1.5,0.8l-3.7-0.6l-8-3.8l-1.4,0.2l0.2,2.4l4.2,3l10.4,4.6
	l0.9,0.8l0.4,1.1l0.6,6l-0.6,1.6l-1.4,0.7l-2.2,0.1l-2.6-1l-3.5-2.2l-0.8-0.3l-0.9,0.5l0.1,1.2l1.5,1.7l2.4,1.9l1.7,0.8l4.5,3.7
	l0.8,1.1l0.6,3.4l-0.5,2l-0.8,1l-2.3,0.5l-2-0.5l-3-2.6l-1.6,0.2l-0.1,2.3l1.4,2.2l2.9,3.2l0.5,0.7v1.2l-1.8,0.6l-3.1-0.4l-4.4,0.2
	l-2-1.1l-2.4-2.2l-1.3-2.2l-0.5-0.7l-1.3,0.1l-0.7,0.3l-0.3,2.4l1.4,6.1l-1.3,0.6l-3.7-0.8l-2.4-2.2l-1.9-5.2l-0.2-0.7l-2,0.2
	l-1.5,2.6l-0.8,2.2l-1.4,1.5l-2.7,0.3l-2.2-1.1l-1-1l-0.7-3.7l0.7-4.1l1-1.8l0.8-1.8l2.6-2.9l3.2-1.4l2.5-0.1l2.3,0.3l5.7-0.6
	l1.8-0.9l1.1-2l0.2-1.3l-0.6-5.6l0.2-1.8l-0.8-5l-2.3-5.9l-2.5-3.1l-2.2-1.6l-1.2-1.5l-1.7-1.3l-1.2-1.5l-8.4-6.6l-3.6-5l-2.8-6.7
	l-0.2-4.2l1.2-3.3l-0.3-2.7l-1.5-0.6l-4.1,0.1l-7.4-4.5l-4.8-4.1l-3.5-3.1l-1.1-0.5l-0.9-0.1l1,2.4l2.3,2.4l3.3,4.7l1.3,1.2l1.6,1.6
	l1.7,0.8l1.9,1.4l3.2,2l0.7,1.2v1.6l-1.1,1l-2.7,0.3l-8-3.4l-6-1.3l-8.8-6.5l-3.1-4.3l-1.9-4.2l-0.8-1.1l-2.3-5.1l-1.6-4.5l-0.7-4
	l0.3-7.7l-0.5-4.7l-1.4,0.4l-0.5,3.3l-0.7,8.8l0.4,3.5l0.6,1.7l0.2,2.2l1.8,5.9l4.9,8.9l1.4,1.9l0.3,3l-1.5,1.9l-2.6,1.5l-3,0
	l-2.4-1l-5.4-4.5l-1.7-0.8l-1.5-1.8l-0.4-1.2l-0.9-5.9l-2.3-5l-3.6-6.7l-2.5-6.3l-3.5-5.6l-0.6-0.4l-0.5,0.8l0.7,3.6l3.5,8.1
	l1.4,2.2l1.3,2.8l2.5,4.7l1.1,3.4l0.6,5.6l0.9,1.9l3.8,4l2.5,3.5l0.2,2.2l-1.1,1l-2.8,1l-4.2,0.9l-3-0.9l-1.3-1l-3.5-3.1l-2.6-1.6
	l-1-1.1l-0.4-1.1l-0.5-5.2l-1.6-4.2l-2-3.7l-6.3-17.1l-1.3-1.2l0.3,2.9l4.5,12.6l0.3,2.6l2.3,7.3l0.8,1.9l0.2,2.2l-0.1,3l0.9,1.8
	l1.3,1.2l1.2,1.2l1.7,0.8l2.4,2.2l0.2,2.1l-3.4,1.7l-3.9,0.7l-2.8-0.4l-1.4-1l-5.3-3.8l-1.7-0.8l-0.8-2.2l-0.4-6.1l-2.7-6.8l-0.8-1
	l-1.5-4.8l-7.5-18.1l-0.8-0.8l0.3,3.2l1.5,4.8l0.6,2.7l2.7,6.2l2,5.2l1.4,2.3l2.4,7.9l0,3.2l-0.6,1v2.9l1.4,2.7l2.5,2.8l1.1,2.1
	l-0.8,1.2l-2.4,1l-5.2,0.2l-2.4-1l-2.9-2.6l-3-4l-1.6-4.1l-0.6-3l-6-18.1l-0.6-2.7l-4.8-13.7l-0.7-0.9l-0.7,0.1l0.1,4l3.1,8.8l1.4,6
	l1.5,5.1l2.4,10.2l0.4,3.4l0.6,1.7l0.8,4.7l2.4,3.7l0.5,2.1l-3.8,0.8l-3.9-0.8l-4.7-3.3l-1.2-0.4l-0.8-2l-0.8-5.1l-2.5-4.5
	l-3.8-11.5l-3.2-11.9l-0.5-1l-0.5,1.2l0.5,4.3l0.6,1.7l0.3,2.6l0.6,1.7l0.5,4.3l4,14.1l0.3,5.9l0.8,2.4l-0.4,0.8l-2.7,0.6l-5.6-1
	l-3.1-1.4l-2.1-2.1l-0.9-1.6l-0.3-2.2l0.1-1.7l-0.6-6l-1.9-5.5l-0.2-2.1l-3.9-13.5l-3.7-8.2l-1.5-4.9l-3.3-6.8l-8.2-11.8l-4.9-6.3
	l-2.5-5.5l-2.4-2.6l-1.2-0.5l-0.4,0.2l0.2,2l0.6,1.8v1.7l-1,1.3l-2.5,0.9l-2.4-0.2l-2.1-0.8l-6-7.2l-2.2-3.6l-1.3-1.2l-1.7-1.6
	l-2,0.2l0.2,1.9l3.7,6.4l2.9,3.8l0.7,1.4l0.7,1.1l0.1,3.4l-1.1,2.5l-1.2,1.5l-2.1,0.8l-2.1-0.8l-2.9-2.6l-3.2-4.4l-1.3-1.1l-2.9-3.2
	l-2-5l-0.8-1l-1.2-2.2l-0.3-0.1l0.2,2l3.7,8l1.4,3.5l3.9,5.8l1.3,2.8l1.3,1.7l0.7,3.4l-0.5,2l-2.6,2.9l-1.9,0.2l-1.7-1.1l-2.7-3.5
	l-1.5-0.9l-1,0.2v3.2l1,2.2l0.8,1.1l3,6.4v1.6l-1,2.6l-1.1,2.1l-2.2,1.2L502.6,464.4z M489.9,413l-5-9.9l-1.4-3.9l-0.3-1.7h2.9
	l2.6,1l1.9,1.4l4.5,1l0.9,1.4v2.6l-2.4,6.6l-1.1,1.7l-0.9,0.8L489.9,413z M429.9,392.4l0.6-0.8l0.4-4.7l0.8-2.5l1.1-1.7l3.8-2.6
	l6.5-3.5l1.1-0.5l1.8,0.4l2.4,2.2l4.4,9.8l0.3,3l1.1,4l-0.7,3.2l-3.2,6.7l-1.2,1.1l-4.4-0.5l-1.5,0.6l0.2,1.7l1.8,1.5l4,0.9l2.8,0.3
	l1.3,0.3l1.5-0.5l0.1-4.5l1.2-3.6l0.3-2.7l1.1-1.7l1.8-0.8l1.9,0l1.9,1.4l2,2.7l1.2,2.2l5.8,6.9l3.7,5.9l4.5,10.1l2.2,7.4l4.9,13.3
	l3.7,5.7l1.3,1.5l3,6.4l4.6,6.4l3.1,2.3l2.1,0.5l3-0.6l2.1-1.8l1.5-2.3l1.4-8.6l1.4-3.1l3-3.4l3.2-1.5l3.3-0.6l1.5-1.3v-1.1l-0.6-3
	l0.5-2.1l1.5-2.2l3.5-2.5l6.6-2.3h3l2.4,1l3.4,3.1l5.5,7.4l2.8,4.8l1.4,1.4l2.2,4.7l2.5,9l0.3,3h-2.5l-2.1-0.9l-2.2,0.2l0.2,1.9
	l1.5,2.2l1.3,1.2l4.4,4l1.7,2.6l0.6,1.7l0.1,1.9l-2.2,0.2l-3.4-1.2l-1.6,0.2l-0.3,1.3l0.7,1.5l4.6,3.4l2.3,1.6l2.1,3.1l0.3,3
	l-1.3,1.3h-2.6l-6.9-1.9l-1.3,0.3l-0.5,0.9l1,1l5.3,2.1l2.4,0.8l2,1.4l1.3,1.6l0.3,3l-0.9,3.7l-0.7,1.2l-3.2,0.3l-2.4-1l-0.7-0.7
	l-2.6,0.3l0.8,1.5l1.7,0.9l2.4,2.3l4,5.1l0.8,4.6l-0.8,4l-0.7,1.5l-1.7,0.2l-1.3-1l-1.7-2.1l-1.1-0.8l-1,0.5l0.2,2.2l1.1,2.2
	l4.2,4.6l0.9,2l0.5,5.2l-0.2,1.3l-1.2,1.3l-2.6-0.3l-0.7,0.2l-0.4,1.9l1.2,2.2l2.8,3.6l0.9,1.9l0.2,4.6l-1.1,1.7l-0.9,0.8l-5.2,0.2
	l-2-0.6l-2.4-3.5l-0.2-0.4l-2.4,0.2l-1,4.3l-2.1,1.1l-3.2,0.3l-2.4-0.6l-1-1.3l-0.6-4.6l-1.1-0.8l-1.2,0.3l-1,1.3l-1.4,3.5l-0.4,1.5
	l-2,1.5l-2.9,0.3l-2.3-0.6l-1.5-1.5l-1-2.4l-0.2-4.5l1-3.3l1.9-2.7l2.7-2l2.8-1l5.6-0.6l2,0l1.1-0.7l-0.2-4l-4-9.2l-1.3-5.5
	l-1.6-4.3l-1-3.7l-2.1-3.4l-4.4-4l-4-2.6l-1.9-3v-2.6l1.1-4.3l0.2-2.9l-0.3-1.6l-1.1-1.8l-1.9-0.4l-0.7,0.2l-1.7,3.2l-0.5,0.5
	l-1.2-0.8l-7.5-9.2l-0.6-0.8l-1.6-0.4h-1.2l0.6,2.9l4.7,7.2l1.3,1.2l1.6,2.3l0.9,2.5l0.1,2.2l-0.7,1.5l-2,0.2l-2.4-2.4l-4.3-6.4
	l-3.6-2.7l-4.4-3l-1.8-1.6l-2.1-1.6l-2,0.2l0.1,0.7l4.1,2.8l2.5,3.1l1.2,1.6l1.8,1.5l2.8,2l1.5,1.9l1.9,4.7l1.4,2.6l0.9,2.8l0.1,1.9
	l-1.1,2.5l-1.2,0.7h-1.6l-2-2l-7.3-10l-1.3-1.1l-1.6-1.6l-4.2-1.7l-8.8-1.7l-5.8-0.9l-2.2-1l-1.4-1.4l-1.7-4.9l-0.7-3.7l0.2-5
	l-0.3-5.8l0.4-2.1l-0.2-4.6l1.2-0.6l2.7,0.7l5.7,2.8l5.5,1.3l5.8,3.6l4.1-0.1l3.9-1.1l0.1-0.3l-2.4-0.6l-5.4-0.4l-2.4-1.1l-2.1-1.8
	l-4.7-2.1l-4.2-1l-2.3-1.5l-5.5-7.1l-1.3-2.3l-2.1-5.9l-0.8-4.4l-1.2-2.9l-0.3-0.1l-0.2,0.7l0.1,3.8l-1,2.7l-0.3,0.8l-2.9,0.3
	l-1.9-1.1l-7.4-10.5l-4.8-4.6l-2.6-1.6l-1.4-1l-3.2-1.5l-1.4-1l-1.4-0.9l-1.1-1.5l-0.8-0.8l-1.6-4l-0.7-6.9l0.5-4.9l0.7-3l-0.3-1.6
	l-1.6,0.2l-1.5,2.9l-0.4,1.9l-1.5,2.5l-1.9,1.5l-0.4,1.4l1.2,1.5l0.8,0.8l0.3,2.8l-0.6,3l-0.3,0.8l0.2,1l2.6,1.5l2.1,3.3l0.2,2.3
	l-0.6,1l-3.3,1.6l0.1,1l1,0.9l2.4,0.5l2.9-0.6l2.2-1.4l2.6-0.6l1.9,0.5l1.5,1.4l0.2,1.9l-1.5,1.7l-3.2,1.5l-7.7,0.8l-5.9,2.4
	l-3.2,0.5l-2.3-1.1l-1.1-1l-2-0.4l-1.6,1.2l-5.7,5.2l-5,3l-4.1,0.1l-1.4-1l-0.9-3.1l-4.4-1.7l-1-1.4l-0.6-3.4l0.5-1.9l2.5-2.6
	l3.3-1.4l6.4-0.7l2.4-1l1-1.3l1.2-2.7l1-1.4l0.7-2.5l-0.2-1l-2.4-1l-4.3-0.6l-2.2-1.5l-1.2-2l-0.8-2.2l-0.1-3.9l1-2.6l1.8-2.7
	l0.8-1.8l1-1.8l0.7-3.4l-0.4-1.9l-2.6,0.3l-1.3,2.6l-0.8,2.3l-1.4,1.9l-2,1.5l-2.1,0.8l-1.3,1.5l0.2,0.7l2.6,1.2l0.2,2.4l-2.7,3
	l-0.3,1.3v1.5l2.4,0.5l0.9,1.4v2.3l-2.2,2l-1.6,1.2l-0.7,1.2l-0.3,2.4L387,436l-2.3,0.2l-2.2-1.4l-4.9-4.4l-2.3-3.7l-0.6-2.2
	l-0.1-2.3l0.6-2.2l3.4-4.7l4-3.9l7.1-5.7l3.5-5.2l2.3-1.8l0.5-0.6l1.6-0.2l1.6-1.3l1.6-1.2l1.1-0.8l3.8-1.1l2.6-0.3l1.7-0.6
	l10.8-1.1l5.1,0.6l1.5,0.6L429.9,392.4z M567.4,408.8l-0.9-1.4v-2.6l1.7-8.7l3-7l2.2-9.7l3.3-10.2l5.4-10.6l4.2-4.8l4.3-4.8l4-3.2
	l1.2-1.3l0.8-0.7l0.8-1.7l0.6-0.9l-0.2-1.9l-0.6-1.1V337l4.2-6.1l3.2-1.6l1.5-0.5l5.6-0.6l2.5-1l0.7-0.4l-0.7-0.8l-3.8-1.3l-1.9-0.4
	l-1-1.2l-0.2-1.7l1.5-2.2l5.2-2l4.8-0.2l1-0.4l-0.1-1.1l-4.1-2.2l-0.5-0.8v-1.3l1.8-1.9l1.9-0.9l5.2-0.2l2.8,1l0.3,1.6l0.1,3.3
	l1.5,3.6l0.8,0.8l0.3,2.9l-1,1.4l-2.1,3.5l-2.5,7.1l-3.1,2.5l-3.2,1.6l-2,0.2l-1.3-1.3l-0.7-1.4l-1.6,0.2l-2.3,3.3l-1.1,3.4
	l-1.5,1.9l-3.8,2.4h-2.8l-1.4-0.7l-1.2,0.7l-1.1,2l-1,4.3l-4.2,5.1l-1.5,1.1l-1.2,1.3l-5.1,5.9l-1.6,2.6l-1,1.4l-0.7,2.7l0.3,1.4
	l1.8,0.7l5.2-2l1.7-0.3v2.3l-2.4,2.4l-2.3,1.8l-2.5,2.7l-3.1,2.2l-1.5,1.9v2.8l0.5,2.6l-0.4,1.9l-3.3,4l0.2,2.1l1.1,1.9v1.5
	l-1.3,2.6l-0.6,3.5l-0.9,1.2l-3.5,0.1L567.4,408.8z M625,302.2l-0.2-1.7l1-1.3l2.8-2l3.3-0.6l2.5,0.4l2.6,1.5l0.7,1.4l-0.3,1l-4.8,3
	h-3L625,302.2z M570.1,242.3l-1.8,2.6l-3.1,0.6l-1.1,0.7l1.1,1.2l7.2,4.1l2.9,2.6l2.1,3.1l0.2,2l-1.8,0.6l-3.5,0l0.2,0.9l0.7,0.9
	l2.3,1.6l4.6,3.4l4.9,4.7l0.7,3.6h-1.5l-4.8-1.2l-3.1,0.3l-0.1,0.3l0.7,1.2l1.4,0.9l3.6,2.7l4.9,5.2l1.2,2.8l0.4,2.4l-0.3,2.5
	l-0.5,0.4l-1.1,0.1l-3.5-1.7l-1.7,0.2l0,0.7l0.5,0.5l2.5,2.6l2.6,4.4l1.5,4.5l-0.5,5l-1.1,2l-1.7,0.2l-2.1-0.9l-1.3,0.1v1.3l3.4,7.5
	l0.6,3.1l-0.4,3.5l-1.1,2.4l-1.3,0.1l-2.3-1.4l-1.6,0.2v1l0.6,2.5l0.6,5.6l-1.6,6.6v6.7l-4,15.2l-2,4.7l-2.7,9l-2.3,1.7l-1.1,2v2.6
	l-0.7,4.6l-1.5,1.2l-1.1,1.7v5.1l-0.7,1.5l-3,0.9l-0.6,0.8l-0.5,4.7l-0.7,2l-3.6,0.7l-2.8-0.9l-1.4-1.5l-1-3.5l0.3-2.6l1-1.3
	l2.1-0.8l0.8-1.2l0.2-4.2l0.8-4.3l0.8-0.9l3.1-2.1l1.2-1.7l0.9-5l1-2.1l3.6-11.5v-2.6l1-8.8l-0.2-4.8l0.4-4.4l-1-9.9l-2.5-9
	l-3.5-8.2l-3-5.1l-1.3-2.8l-1.4-1.8l-2.8-4.6l-8.1-7.7l-5.3-3.9l-1.4-1l-7.9-4.4l-2.7-1.2l-1.8-1l-7-2.3l-8.8-2.1l-10.5-0.9l-7.9,1
	l-6.2,2.1l-0.4,0.5l0.2,0.3l2-0.4l6.9-0.7l0.5,1.6l-0.7,1.8l-0.4,1.6l0.6,0.5l9-3l5.6-0.6l3.9,0.8l1,1l-1.2,1.9l-2.2,2.1l-1.7,2.4
	l1.3,0.3l1.5-0.6l9.7-2.6l3.5-0.4l3.3,0.8l2.9,2.3l0.2,1l-0.8,1.1l-3.1,1.3l-8.5,5.2l-0.5,0.9l0.8,0.5l4.7-0.5l2.2-0.8l3.3-0.6
	l2.2-0.8l4.1-0.7l3.4,0.8l2.6,1.5l0.2,1.6l-0.8,0.6l-1.4,1.7l0.1,1.4l2.4,0.6l5.7,1.6l3.1,2.3l1.5,1.9l0.1,1l-0.9,0.7l-4.7,0.8
	l-2.3,1.6l-0.7,1.4l0.7,1.1h2.8l2.5,0.4l1.4-0.2l1.1,0.7l3.5,1.5l1.7,2.3l-1.2,1.6v1.3l0.7,1.5l2,2l1.7,0.8l1.5,1.6l0.7,1.4l1.5,5.1
	l0.1,5.2l-0.4,2.9l-0.7,1.3l-0.7,0.1l-1-1.3l-1.5-4.5l-1.8-4.1l-2.4-2.2h-1l-1.7,1.5l-1.7,0.2l-1-1.5l-2.6-7l-1.5-2.1l-0.7-0.1
	l-1.3,1.9l-1.6,0.3l-2.3-0.8l-1.5-1.9l-0.8-2.5l-2.7-4.9l-1.3-1.8l-1.2-2l-1.9-1.2l-0.3,0.8l0.6,1.2l0.8,4.7l-0.8,2.4l-1.4,0.3
	l-1.2-0.3l-3.7-1.1l-2.7-1.9l-2.2-3.5l-4.4-4.3l-1.8-0.4l-0.3,0.9l0.7,3.7l-0.5,1.1l-1.1,0.2l-5.3-0.9l-2.5-1.5l-0.8-1.7l-3.6-4.8
	l-2.9-2.6l-1.3,0.1l0.2,0.7l1.4,2l1.5,3.6v2.5l-0.6,0.8l-1.1,0.4l-4.3,0.5l-1.3-0.1l-2.6-1l-1.9-1.4l-6.5-4.1l-1.8-0.7l-0.9,0.1
	l0.8,1.5l1.7,1.3l1.5,2.3l0.3,2.6l-1.1,1l-5.9,1.6l-2.8-0.3l-1.2-0.6l-4.8-1.1l-2.8,0.6l0.2,0.4l2.3,2.6l0.3,1.4l-0.8,1.7l-4.2,2.6
	l-1.6,0.3l-4.9-0.2l-2.6,0.5l-1,1.3l2.7,1.1l0.7,1.1l-0.4,1.4l-1.6,1.6l-0.8,1l-1,1.4l0.1,0.7l1,0l3.2-1.2l2.6-0.3l1.5,2.3l0.7-0.1
	l1.5-2.2l0.7-2.5l1.4-2.9l1.8-1.9l3.2-1.6l1.9-0.3l1.4,0.4l1,3.8l0.6,0.2l1-0.1l2.8-3.6l3.9-4.3l3.5-1.5h4.4l2,0.5l0.2,0.6l-0.4,1.9
	l-2.6,3l-1.8,3.2l-0.8,2.5l2.3-0.2l3.6-3l1.2-1.3l7.5-5.6l2.8-0.9l3.5,0.2l3.3,1l0.7,1.1l-0.4,1.4l-3,3.5l-1.4,3.1l-0.7,3.1l0.5,0.8
	l0.6-0.1l3.2-2.5l1.6-1.7l2.4-1.7l1.6-1.3l4.5-2.2l2-0.3l4.1,0.6l1.7,1.1l0.1,1.2l-1.2,1.1l-3.4,3.8l-0.8,2.1l0.5,1l4.9-3.1l4.5-1.6
	l3.3-0.1l2.1,1.1l0.2,2.1l-1.4,1.9l0.1,1.2l3.7,0.2l4.7,0.8l2.6,1.5l2.4,2.2l1,3.4l2.4,1.1l2.5,1.6l1.5,1.9l1.8,4.5l0.6,3l-0.5,2.4
	l-0.4,0.2l-2.3-1.2l-1.4-1.5l-2.6-1.6l-2.1-2l-1.3-1.2l-4.9-5.1l-1.2-1.5l-2,0.2l-0.8,1.7l-4,0.7l-3.8-1.2l-4-3.4h-2.3l-0.1,1.8
	l-0.7,1.5l-2.2,1l-4.3,0.5l-2.5-0.5l-2.8-1.5l-1.9-1.4l-2.2-1.1l-2.3,0.2l0.2,0.4l1.3,1.2l1.3,2.3l-0.5,1.4l-0.7,0.2l-2.2,1
	l-3.1,0.6l-5.6-1.3l-2.3,0.4l1.5,3.5l-0.5,1.3l-1.3,1l-4.3,0.7l-3.6-0.6l-4.2-0.1l-2.5,0.9l-0.8,1.2l0.5,0.4l2.3,0.8l0.7,1.2
	l-1.3,1.7l-2.3,1.7l-0.5,2.4l3.9-0.4l1.7-0.7l4.2-1.2l0.2,2.1l-0.3,1.8l0.3,2.6l1.1-0.3l1.1-0.7l2.3-4.4l3.4-3.8l2.3-1.6l1.6-0.3
	l1.2,0.5l0.3,1.6l-0.6,5.1l0.8-0.2l1-0.7l3.4-5.1l0.9-1.7l0.8-0.7l1.2-1.3l4.9-3.1l4.4-0.8l1.5,0.5l0.2,2.2l-3.4,7.6l-0.5,2.5
	l0.9-0.2l1.8-1.2l2.8-3.8l2.3-3.1l3.9-3l4-1.6h2.8l3.1,1l0.2,2l-1.9,1.6l-2.4,3.3l-1.4,1.9l-0.4,1.5l0.5,0.7l1-0.7l1.5-1.8l4.3-3.1
	l5.4-2.5l2.4,0.3l2.7,1.9l0.2,1.6l-1.8,2.1l0.2,1.6l3.4,0.2l2,0.7l1.7,1.4l1.1,2.5l0.4,3.6l-0.6,2.1l-2,1.7l-1,1.7l-2,7.3l-1.5,2.6
	l-1.4,0.7l-1.3,1.3l-0.5,2.5l0.5,4.7l-1,5.8l-0.7,1.5l-2.7,0.5l-17-4l-4.7-0.5l-13-2.9l-12.9-2.7l-7-1.9l-1.8-1h-1l-0.7,0.5
	l-1.9,1.2l-0.1,0.5l-0.8,1l-1,1.3v1.7l0.6,1.3l4.6,6.9l4.9,13.9l0.7,4.1l-0.3,2.4l-0.6,8.3l-0.4,0.2l-0.8-0.3l-1.6-2.5l-2.1-6.6
	l-1.9-3.4l-3.1-7.4l-2.7-4.9l-3.3-4.2l-3.4-5.7l-5.3-5.5l-0.2-2.2l2.7-0.3l10.8,4.1l1.6-1.2l0.7-1.4l-1.4-0.7l-0.1-1.1l-0.6-1.2
	l-1.2-0.3l-10.8-1.5l-3.3,0.1l-2.9-0.9l-2.9-2.3l-4.9-5.4l-3.4-6.3l-1.9-1.9l-2.1-1.1l-2.3,0.2l-1.6,1.3l-1.5,1.2l-1.6,2.2l-8.4,6.3
	l-2.4,3.1l-0.9,0.7l-4.8,1.7l-5,0.8l-1.8-0.3l-7.3,0.8l-3.1-0.1l-5.2,2.6l-1.6,1.3l-7.1,5.2l-1.5,3.9l-1.5,2.3l-11.1,9.6l-2.6,3.8
	l-0.8,4.7l0.3,3.2l1.7,3.3l1.3,1.2l3.7,4.8l1.3,1.2l1.2,1.9l2.7,2l0.9,1.4l0.4,3.9l1,2.9l1.8,2.3l2.3,4l1.7,1.1l2.1,0.5l3.9-0.4
	l1.7-0.6l3.4-0.4l4-1.6l1.2-1.3l2.1-1.5l1.9-0.4l1.8,0.4l5.4,4.5l6.7,3.2l6.1,1.1l3.4-0.5l7.6-2.5l5.1-0.5l1.3,0.2l7.5,2.2l2.2,1.5
	l1.2,2.2l0.9,1.1l1.7,3.5l0.7,4.3l-0.6,7l1,9.5l-0.6,7l0.7,6.9l-0.1,1.3l-0.9,2.4l-0.9,4l0.1,3.8l-0.3,3.8l-4.8,20.7l-1.7,4.7
	l-1.9,1.5l-10,2.9l-2.6,1.6l-1.6,2.4l-1,1.4l-1.4,3.5l-1,4.2l-1.4,3l-1.8,0.9l-5.2,0.5l-1.8-0.2l-5.6,0.6l-1.3,0.4l-3.4,2.1
	l-1.6,2.3l-1.4,1.9l-0.6,2.4l-0.1,4.6l1.4,3.9l2.5,3.1l2.7,1.2l5,0.5l2.1-0.2l1.8,0.3l4.3-0.4l5.3,0.3l3-0.3l1.8,0.3l2.2-0.2
	l1.8,0.2l3.4-0.4l1.8,0.2l3-0.3l1.8,0.3l3-0.3l5.3,0.3l3-0.3l5.3,0.3l3.9-0.4l1.8,0.3l3-0.3l5.3,0.3l2.6-0.3l1.8,0.2l8.2-0.4
	l1.8,0.3l5.2-0.5l5.3,0.3l2.6-0.3l1.8,0.2l2.1-0.2l1.8,0.2l3-0.3l1.8,0.2l2.6-0.3l1.8,0.3l3-0.3l1.8,0.2l2.6-0.3l1.8,0.2l2.1-0.2
	l5.3,0.3l2.1-0.2l1.8,0.3l3-0.3l1.8,0.3l3-0.3l1.8,0.2l3.3-0.2l8,0.3l3-0.3l1.8,0.2l2.2-0.2l1.8,0.3l2.1-0.2l1.8,0.2l3-0.3l1.8,0.2
	l3.9-0.4l1.8,0.2l3-0.3l1.8,0.2l3-0.3l1.8,0.3l9.8-0.5l4.5,0.2l3.9-0.4l1.8,0.2l2.2-0.2l1.8,0.2l4.3-0.5l1.8,0.2l2.6-0.3l1.8,0.3
	l3.9-0.4l1.8,0.3l3.9-0.4l1.8,0.2l3.4-0.3l1.8,0.3l3.9-0.4l1.8,0.2l3-0.3l4.8,0.4l4.2-0.3l4.1,0.3l3.4-0.3l1.8,0.2l2.2-0.2l1.8,0.2
	l3.5-0.3l1.8,0.2l2.6-0.3l1.8,0.2l4.7-0.5l5.3,0.3l3.9-0.4l5.2,0.3l5.2-0.5l1.8,0.3l2.6-0.3l1.8,0.2l3-0.3l1.8,0.2l2.6-0.3l1.8,0.3
	l3-0.3l6.5,0.2l8.7-0.5l1.8,0.2l4.8-0.5l1.2,0.2l0.7-0.2l0.8,0.2l1.9-0.9l2.8-2.5l2.1-3.6l0.7-4.3l-0.5-4.3l-0.4-1.1l-1.1-1.6
	l-1.2-1.5l-2.4-1.7l-1.8-1.4l-0.8-1.7l0.8-1.8l2.5-1.1l2.7-0.6l6.6-2.3l8.3-3.9l6-4.1l6.7-6.4l2.8-4.2l1-1.4l3.2-6.3l2.3-7.1
	l1.5-10.6l-0.2-4.4l0.3-1.8l-0.6-6l-1.9-6.5l-3.5-8.8l-2.1-4.6l-1.3-2.8l-2.1-3.3l-3-4.3l-6-6.8l-1.3-1.2l-1.2-1.5l-2.4-1.9
	l-2.4-2.5l-1.2-0.7l-0.7-1.1l-6.7-5.4l-4.2-2.8l-2.9-2.1l-4.2-2.7l-1.9-1.5l-12-6.1l-2.2-0.8l-4-2l-3.3-1.1l-3.5-1.6l-9.8-3.5
	l-6.5-2.2l-2.2-0.4l-6.6-1.8l-10-1.6l-17.7-1l-2.2,0.2l-1.8-0.2l-2.2,0.2l-1.8-0.3l-13.2,1.3l-4.5-0.3l-4.3,0.5l-6-0.8l-13.6-0.1
	l-13.7-1.3l-17.5,1l-10.2-1.3l-3.6-0.9l-2-1.8l-1.7-8.8l0.5-2.1l1.3-2.3l0.3-2.4l0.6-2.9l1.4-1.6l1.1-2v-2.6l0.5-2l3.2-2.9l1.6-1.2
	l1.2-1.3l2.3-1.5l2.4-0.5l2.7,0.4l3.4,1.7l2.5,0.4l-0.5-2.4l-2-2.7l-4.1-2.8l-0.3-1.5l0.4-1.8l1.9-1.5l3.7-0.7l4.3,1.1l5.4,2.9
	l3.9,3.8l3.8,5.7l0.7-0.1l0.6-1.5l-0.4-3.5l-1-2.5l-2.6-3.8l-5.2-5.1l-0.2-1.8l1.3-1l1.9-0.3l4.1,0.6l1.4,1l1.7,0.8l1.2,1.5l1.8,1.3
	l3.5,4.7l3.4,6.3l0.6,0.2l1-0.4l0.5-2.5l-1.3-5.5l-2-4.1l-0.8-2.5l0.2-1.9l0.8-0.2l2.4,0.8l4.6,3.5l5,6.3l3.6,8.2l0.8,1.1l0.4-0.5
	l0.3-3.8l-0.9-8.6l0.5-1.1l0.8-0.2l0.6,0.4l2.2,1.6l3.9,4.2l3.1,4.9l1.4,3.5l1,0.8l0.6-1.1v-1.1l-0.5-2l-0.5-4.7l0.2-1.2l0.7-0.4
	l1.3-0.1l1.4,1.2l4.4,4.8l1.2,2l1.3,1.6l1.8,3.7l1.3,1.6l0.8-0.7l0.8-2.5l2.8-0.9l-0.1-1l-1.6-2.1l-5.3-5.2l-4.3-3.8l-4.2-2.8
	l-1.4-1l-8.6-4.7l-9.3-3l-9.2-1.6L628,354l-6,0.6l-1.8-0.2l-3.4,0.8l-6.5,0.7l-1.4,0.4l-11.6,5.1l-0.1-1l1.9-2.7l3.5-2.5l6.4-2.6
	l0.9-3.9l1.6-1.2l3.6-1.2l1.2,0.2l9.5-1l-0.3-1.1l-1.5-1.9l-0.2-1.7l1-1l2.8-0.6l2.5,0.5l9,4.1l2,0.1l-0.5-1.7l-1.6-2.6l-2.3-2.5
	l-0.3-1l0.2-1.9l1.5-1l4.6-1.5l2.5,0.3l5.1,3.4l1.9,1.4l1.7,0.9l1.6,1.4l2.6,1.2v-1.4l-0.9-2.7l-2.9-4.3l-0.2-2.1l1.9-1.1l2.4-0.2
	l2.8,0.6l1.1,1.2l1.3,1.2l4.5,5.9l5,8.3l1.5,0.4l0.2-2.6l-1.3-5.8l-2.5-6l0-3.2l1.4-0.9l4.3-0.2l2.4,1l1.5,1.9l4.4,8.5l3.5,11l0.8,1
	l0.4-0.5l0.4-2.9l-0.9-8.2L688,334l-0.6-3.4l0.6-1.5l1.3-0.3l5.3,0.9l2.1,1.1l2.9,2.6l3.2,6l2.3,7.2l1.4,12.9l0.4,0.7l0.3-0.2l1-2.9
	l0.8-8.8l-0.4-6.5l-0.6-1.7l-0.3-3.3l0.5-1.9l0.7-0.2l2.3,0.3l2.2,1.5l1.5,2.3l1.7,4.2l0.7,3.7l0.6,1.7l0.5,5.2l-0.3,1.8l0.8,7.3
	l-0.3,1.8l0.5,4.3l0.7,0.7l1.1-1.6l1.2-4.9l1-14.2l-0.3-2.6l0.4-2.9l1.2-0.6l1.6,0.4l3.3,2.3l4.3,3.9l1,2.6l0.7,6.5l-0.4,7.1
	l-1.7,9.2l0.5,0.7l0.4-0.2l0.5-0.9l1.4-1.9l2.5-5.4l1.8-5.5l1.5-2.6l1-0.3l1.5,0.9l3,3.5l2,3.1l0.7,3.8l-1.3,6.7l-2.3,6.1l-1,4
	l0.5,1l0.5-0.5l1.9-1.6l1.2-1.9l1-1.4l1.5-3.2l1.5-2.6l1.6-0.2l1,1.3l2.4,6.7l0.8,4.7l-1.5,5.2l-1.3,2.3l-0.5,2.4l-1.4,0.5l-0.9,1.4
	l0.3,0.3l1.5-0.2l3.7-2l2.2-0.2l1,1.1l1.8,7.9l0.8,0.5l0.8-0.9l0.6-2.4l0.5-6.2l-0.5-5.2l0.5-2l1.3-0.3l1.5,0.3l4.4,1.9l0.4-0.5
	l-1.3-2.5l-2.8-3.2l-6.2-5l-1.6-2.6l-2.9-8l0.1-2.3l1-0.4l3.9-0.4l0.7-0.4l-0.7-1.2l-3.6-2.1l-4.8-1.7l-2.5-1.6l-2.6-4l-1.3-2.5
	l0.7-1.4l1.2-0.7l5.2-1.4l0.8-0.8l-1.1-0.8l-5.4-1.2l-5.8-0.1l-2.8-0.4l-1.9-1.5l-2.5-2.6l-0.2-2.1l1.5-1.5l4.8-2.7l8-2l-0.2-0.8
	l-1-1l-5.2-0.6L743,334l-2.2,0.2l-8.8,3.5h-2.8l-3.7-2.2l-1.3-2.3l0.4-1.4l3.1-3.8l1.6-1.2l1.2-1.3l2.4-1.7l1.6-1.4l5.8-2.9l1.2-1.3
	l-0.5-0.4l-4.2,0.2l-4.8,1.7l-7.9,4.7l-6.3,5.3l-3.3,0.4l-1.2-0.6l-1.5-0.4l-2.9-1.4l-1.2-1.6l0.4-1.8l3.4-4.6l4.8-4.4l2-1.2l2-1.8
	l7.3-3.9l-1.2-0.3l-7.8,2.7l-11,5.9l-6.5,4.6l-1.5,1.8l-3.1,0.6l-3.8-0.8l-2.1-1.1l-0.1-1.3l1.8-3.2l0.8-1l0.8-0.9l4.3-4.4l1.2-1.3
	l6.3-5l2.2-1.2l1.6-1.8l-0.8-0.2l-2.7,0.6l-9.7,4.9l-7.5,5.6l-6.8,7.1l-2.2,1l-5.5-0.1l-2.5-0.6l-0.3-1.5l0.3-1.6l0.8-2.5l1.3-2.4
	l0.9-1.7l3.3-4.8l-0.1-0.7l-1.1,0.1l-3,1.6l-3.2,2.5l-4.2,4.8l-3.8,5.6l-0.8,1.7l-1.3,1l-6.8,1.3l-2.3-0.4l-0.3-2.6l1.3-3v-2.5
	l-2,0.5l-2.7,2l-2.4,2.4l-1.5,3.2l-1.5,2.6l-1.9,1.5l-6.8,2.6l-1.6-0.4l-0.3-2.7l1.3-4.2l1.4-1.5l7.4-1.8l1.6-1.8l2-1.7l1.4-1.7
	v-2.5l-0.7-1.4l-0.6-2.8l0.5-1.9l2.6-0.3l1.2,0.6l2.5,0.5l-0.4-1.4l-8.3-8.9l-1.8-1.5l-1.5-2.2L640,291l1-1.3l3.3-1.4l2.5,0.3l7.7,4
	l1.4,1l3,1.4l1.3-0.1l-0.1-0.9l-3-3.2l-1.8-1.5l-2.5-2.7l-0.2-1.7l1.1-1l3.2-1.2l3.4-0.4l1.7,0.7l2.7,1.9l4.8,4.7l1.2,1.5l1.4,0.9
	l0.2-0.8l-0.3-2.4l-1.5-3.7l-0.4-3.4l2.1-1.1l5.2,0.9l1.9,1.8l1.8,3l2.4,3.1l2.8,4.6l1,1.1l0.5-0.6l-0.3-2.6l-1.5-4.4l-0.7-3.7
	l0.6-1.5l1.3-0.3l3.7,0.6l4.3,1.8l1.9,2l1.8,3.7l1,0.8l0.7-0.5l0.2-3.2l0.7-1.2l1.6-0.3l4.4,0.6l-0.6-1.3l-1.9-1.2l-1.8-1.6
	l-0.2-2.1l0.7-1.2l2.5-1.7l0.8-0.9l-0.5-0.7l-3.3,0.1l-2.2,0.8l-4.9,2.7l-2.9,0.3l-6.5-2l-0.7-1.1l0.4-1.8l3-3.5l-0.1-0.7H688
	l-5.2,2l-4.3,2.9l-4.6,0.8l-3.9-0.3l-1.5-0.7l-0.2-1.7l2.5-4.6l1.1-1l0.5-1.2l2.2-2.4l-0.1-0.9l-2.3,0.2l-5,3.6l-7.8,8.9l-4,1.6
	l-3.6,0.1l-0.3-1.8l0.2-3.5l1.2-3.6l4.9-7.3l-0.1-1.4l-2,0.5l-2.3,1.5l-2.7,2.9l-2.6,4.2l-0.4,1.5l-0.6,1.2l-0.8,2.3l-1,1.8
	l-1.2,2.6l-2.7,3.8l-1.9,1.5l-3,0.3l-0.8-1.5l0.2-2.1l-0.1-3.9l0.4-3.5l0.6-1.5l1-4.9l-0.5-0.5l-1.2,1l-3,4.4l-1.6,5.1l-0.6,3.5
	l-2.3,7.5l-1.5,2.2l-1.9,1.5l-2.1,0.2l-1-1.1l-1.6-4l-0.5-5.2l0.2-1.8l-0.3-2.6l-0.8,0.4l-1.2,2.2l-0.6,5.2l0.8,7.3l-0.1,3.1
	l-0.4,2.9L616,300l-2.4,0.2l-1-1.1l-2.3-5.4l-0.6-3.3l-0.6-0.7l-0.6,0.2l-0.6,1.4l-0.3,4.1l2.2,10.1l-0.3,2.5l-1.2,1.4l-1.9,1.5
	l-1.2,0.1l-2-1.1l-1.2-2l-1-1.1l-0.7,0.1l-0.5,1.9l0.7,6l0.4,1.4l-0.3,2.8l-1.4,2.6l-1.4,0.7l-2.8-0.3l-1.2,1l-0.6,8.3l-1.6,5.4
	l-3.7,6.5l-3,3.4l-0.9,0.1l-0.3-2.4l1.3-4.4l1.2-3.3l2.3-8.6l1.4-2.3l0.8-1.7l1.8-2.1l2.9-5.5l-0.3-2.4l-2.5-0.3l-0.3-1.3l0.2-3.2
	l1.4-3.5l0.8-1l3.4-3.9l1.4-3l-0.1-1l-0.8-0.2l-2,0.4h-2.3l-0.9-1.4l-0.1-3.7l1.2-1.7l4.7-4.6l3-3.3l1.4-3.1l-0.1-0.8l-0.9,0.1
	l-3.8,3.7l-3.2,1.5l-2.3-0.1l-0.5-1l-0.9-5.1l0.2-1.2l4.2-8.1l0.4-1.9l-0.6-1.3l-0.8,0.7l-0.9,1.7l-2.2,2l-3,0.3l-1-1.2l-2.2-4.1
	l-0.4-2l1.1-6.5l-0.3-5.6l-0.7-0.6l-0.5,0.6l-1.8,4l-1.8,0.8l-1.9-0.2l-0.2-0.4l-1.8-2l-6.9-10.2L570.1,242.3z M816.5,299.2
	l-1.5-0.4l-4.7-3.4l-3.5-4.3l-1.6-4.5v-2.6l1-2.4l1.8-0.9h2.6l2.5,1l2.9,2.6l3.1,4.8l1.7,5.1v2.8l-0.7,1.8l-0.5,0.8L816.5,299.2z
	 M785.7,260.4l-2.3-1L782,258l-0.2-2l1-2.4l1.8-3.2l1.9-1.2l1.3,0.5l2.2,4.5l1,3.9v1.7l-0.8,1.5L785.7,260.4z M774.4,252l-2-2.6
	l-1.5-3.3l-0.1-4.2l1.5-2.2l3.1-0.6l2.5,0.5l2.2,1.5l1.2,1.8v1.2l-1,2.6l-2.9,4.6l-0.9,1l-0.1,0.3L774.4,252z M798.2,212.1l-1.4,0.7
	l0.3,2.8l0.8,1.3l1.5,3.2l0.3,7.4l-0.4,2.7l-0.7,1.5l-0.7,0.2l-1.8-0.8l-3.5-3.1l-1.3-1.2l-4.1-4.2l-4.1-3H782l-1.3,1v1.2l1.2,2.2
	l4.3,4.1l1.3,1.2l10.2,10.6l1.2,1.5l2.1,0.8l0.1,0.9l4.1,5.5l0.2,1.9l-1.5,2.2l-3.5,3l-2,0.4l-1.5-0.4l-1.4-3.6l-3.3-6.5l-4-5.1
	l-4.8-4.1l-4-2.6l-3.7-0.9l-4.1,0.1l-2.3,1l-2.3,2l-1.9,3.1l-0.6,2.4l0.3,5.3l2.2,5.3l4.6,6.1l1.2,1.1l1.2,1.5l1.7,0.8l2.6,2.2
	l5.4,2.6l1.2,1.5l-0.5,0.9l-1.7,1.5l-1.7,0.2l-2.4-0.9l-2.2,0.2v1.9l0.6,1.4l2.2,3.4l4.5,5.5l1.7,0.4l1.2-1l0.2-4.1l2.3-3.1l2.8-2.2
	l1.2-1.3l4-3.2l4.4-3.8l1.6-1.2l1.2-1.3l5.4-4l1.6-0.3l1.2,0.4l2.4,2.2l7.9,10.7l2.3,3l7,11.3l1.3,1.8l1.6,3.1l0.3,2.4l-1.4,1.8
	l-3.5,2.1l-2.5,0.3l-1.3-1.4l-0.9-3l-2.8-6.1l-3.6-5.1l-1.8-1.6l-1.2-1.5l-3.1-1.8l-3-1l-3.7,0.4l-3.2,1.6l-2.7,3.3l-1,3.3l0.2,4.8
	l1,3.1l2.7,5.1l3.8,4l4.3,3.5l1.2,1.5l-0.4,1.4l-1.3,1l-2.9,0.3l-1.7-1l-3,0.3l0,0.9l0.8,2.7l5.3,8.4l1.3,1h1.2l0.6-0.5l0.9-4.4
	l1.8-1.9l5.3-3.2l2.8-0.6l2.5,0.5l3.2,1.8l1,0.8l1.3,1.2l2.6,4.2l0.7,3.9l-0.9,2.9l-1.9,1.5l-3.3,0.4l-2.5-1.3l-3.5-3.1l-1.7-0.4
	l-1.2,1.1v1.9l1.1,2.5l2.6,2.9l3.1,1.8l2.4,0.6l4.9-0.2l2.1-1l2.6-2l1.5-2.2l0.8-3.7l-1-6l-3.2-6l-2.3-2.4l-1.2-1.5l-1.7-1.3l-0.2-2
	l1.5-1.4l3.9-2.6l2.1-0.4l1.5,0.4l2,2.4l4.7,9.7l4.4,8.5l1.7,0.7l1.2-1v-1.2l-1.4-3.9l-5.6-11.9l-2.5-4.2l-2.4-4.8l-9-15.2l-1.3-1.7
	l-2.8-4.6l-14.1-19.7l-0.6-2.9l1.5-5.4l2.3-6.1l0.9-4v-3.3l-2.1-4.9l-2-2.3h-1.6l-1.2,0.7l-0.4,1.6l1.6,5.8l-0.2,4.1l-1.6,5.6
	l-1.5,2.2l-0.7,0.2l-2.3-1.2l-1.5-2.3l-0.8-4.6l0.8-12.7l-0.2-2.2l-1.1-3.8l-1.6-3l-2.4-2.4L798.2,212.1z M657.6,205.6l-0.8,1
	l0.3,2.6l1.3,1h2.5l0.5-0.8l0.6-1.5l-0.5-2.3l-0.8-0.4L657.6,205.6z M433.7,184.2l-1.5-1.9l-0.7-3.7l0.5-2.1l1.1-1.7l3.3-2.1
	l2.7-0.6l6.9,0.9l5.8,1.6l1.9,1.4l-0.4,1.3l-4.8,3.1l-1.7,0.8l-1.1,0.8l-2.6,1.3l-1.4,0.9l-2.2,1.1l-0.4,0.3l-3.3,0.1L433.7,184.2z
	 M506.6,183.1l-1.4-0.7l-0.6-1.5l0.4-1.8l1.4-1.9l1.4-3.5l0.2-3.4l-1.1-4.7l-1.1-2.5l0.4-1.6l1.4-1l4.6-1.7l2.8-0.6l2.2-0.8l2.6-0.3
	l4.1-1.2l2.6,0.3l0.8,0.4l1.7,5.2l0.6,6l-0.8,3.4l-1.1,2.1l-4.2,4.8l-3.6,3l-4.4,2.5l-4,0.1L506.6,183.1z M539,148.6l-17.5,3.6
	L519,153l-3,0.6l-2.5,0.9l-3.4,0.6l-12.4,3.8l-21.4,7.9l-10.1,4.4l-2.7,0.6l-6.4-1.7l-10.2-2.8l-7.1-1l-3.5,0.1l-5.7,2.2l-2.2,2
	l-1.9,2.7l-1.2,4.3l0.5,5.2l2.1,4.4l1.3,1.6l0.2,2.5l-0.8,0.9l-20.5,14.9l-6.5,5.7l-1.5,1.2l-4.5,4.2l-1.5,1.2l-10.4,9.8l-1.6,1.8
	l-1.5,1.2l-1.3,1.7l-1.5,1.2l-1.6,2.2l-1.5,1.2l-1.7,2.2l-1.4,1.2l-14.7,18.1l-0.8,1.7l-1.1,0.7l-11.6,17.8l-0.8,1.7l-1.4,1.6
	l-1.9,3.7l-1,1.4l-7.3,13.3l0.3,2.7l1.6,0.3l1.2-0.7l2.2-3.7l0.8-1.7l2.3-3.3l1.6-0.3l2.4,0.8l1.4,1l4.2,2.3l3.6,2.7l0.3,2.6
	l-2.2,4.1l-1,1.4l-1.2,2.6l-2.6,3.9l-1,1.2l-2.7,0.3l-2.8-1.5l-1.4-1l-5.8-2.9l-4.1-0.1l-3.8,1.4l-3,2.9l-1.8,3.3l-1,3.3v3l0.9,1.4
	h1.2l1.5-1.2l1.1-3l1.9-2.8l1.9-1.5l2.4-0.5l2.1,0.5l7.2,4l0.9,1.8l0.5,4.3l0.4,1.2l1.5,2.2l3.7,1.8l3.8,0.5l4.6-0.2l0.2-0.3l1-0.5
	l1.6-2.2l-0.3-3.3l-1.5-2.2l-2.8-2l-1.8-1.5l-0.3-3.2l1.4-2.3l0.8-1.7l4.5-7.2l1.4-1.7l1.4-0.3l1.6,0.4l4.2,2.6l1.5,1.9l0.4,3.9
	l0.7,1.2h1l1-0.7l6.3-10.1l-0.3-2.6l-1.6,0l-2.4,0.8l-2.8-0.3l-10.4-6.3l-1.4-1l-1.7-0.8l-2-1.7l-7.3-4.6l-1.7-2.3l0.4-1.9l3.7-6.5
	l1-1.4l1.6-2.7l3-3.4l1.7-0.3l1.5,0.4l6.5,4.1l11.7,7.9l4.1,3.1l0.9,1.4l0.2,4.6l0.3,1.6l2.1-0.2l0.2-0.6l2-2.2l5.6-8.7l-0.2-2.2
	l-0.9-0.5l-2.6,1.1l-2.9,0.3l-3.1-1.4l-14.7-10.2l-5.1-3.8l-0.9-1.4l0.1-2.3l4.9-6.7l8.9-10.5l1.6-1.8l5.1-5.5l1.6-1.8l2.2-1.4h3
	l2.4,1.1l2.4,2.2l1.6,2.7l0.4,3.6l-1.3,4.1l-2.3,2l-2.5,0.8l-2-0.1l-4.6,0.8l-1,1.7v1.4l0.7,1.5l1.7,1.1l15.5,6.2l4.6,1.3l3.2-0.3
	l3.4-2.5l5.9-6.3l0.8-2.1l-0.7-1.2l-1-0.2l-2.4,0.5l-5.2,4.8l-2.2,0.8l-2.5-0.3l-3.2-1.4l-2.6-1.5l-0.3-1.3l0.4-1.6l1.1-0.7l0.5-0.9
	l1-1.4l1.1-2.1l0.7-4.3l-0.7-4l-2.1-3.8l-3.8-3.4l-2.6-1.6l-0.3-2.9l0.7-0.5l2.1-2.1l1.6-1.8l7.2-6.1l1.2-1.3l2.7-1.7l3.7-3.3
	l2.4-1.7l1.6-1.3l2.4-1.7l1.2-1.3l11.7-7.8l3.1-1.3l2,0.4l0.2,0.4l1.8,2.3l2.2,4.3l0.1,1.3l-1.5,2.2l-4,2.8l-1.6,1.3l-2.1,1.2
	l-8.8,6.2l-2.3,2.4l-1.9,3.1l-0.5,2.5l0.7,3.9l1.9,3l3.1,2.9l2.8,1.9l1.9,1.4l5.2,2.5l2.2-0.2l1.3-1v-1.6l-1.2-2l-7.3-4.9l-2.9-2.8
	l-0.9-1.9v-2.6l0.8-1.2l2.5-2.4l13.8-9.3l2.4-0.8l2,0.8l3.1,4.8l2.4,4.5l-0.2,3.2l-0.6,0.9l0.2,2l0.8,0.3l2.1-0.2l7.8-4.7l2.4-2.3
	l0.1-0.9l-1.1-1.2l-3.2-0.3l-1.5-0.7l-2.5-2.6l-6-9.7l-1.3-1.7l-5.3-9.3l-0.4-2.1l0.4-1.6l2.2-1.8l8.6-4.8l4.4-2.1h2.3l1.5,1.5
	l1.3,2.8l0.8,1l4.3,7.7l3.5,6.9l0.9,1.1l2.1,4.7v2.8l-1.4,2l0.3,2.4l1.4,0.4l11.6-5.2l1.5-1.3l-0.2-2.1l-0.6-0.1l-4-0.5l-2.5-1.9
	l-1.6-2.3l-1.3-2.5l-2.5-4.5l-7.1-13.9l-0.3-3.2l0.8-1l3.4-2.1l12.8-5.2l9-3l4.2-0.1l1.3,1l1.5,2.3l0.8,4.7l-0.8,3.3l-1.4,1.4
	l-1.9,1l-4.3,0.4l-1.1,0.4l-1,1l-0.4,1.8l1.7,1.8l1.9,0.8l1.8,1l11.4,3.6l4.4,0.7l5.2-0.5l1.5-0.4l4.6-2.2l6.6-5.8l2.2-0.2l0.5,0.7
	l0.7,4.1l-0.5,2l-0.8,0.7l-2.3,2l0.2,1.6l1.5,0.7h1.9l7.1-1.5l5.1-2.1l-0.2-1.6l-3.5-1.5l-1-1.8l-1.9-6.8l-0.3-2.6l-0.6-1.7l-0.3-3
	l-0.6-1.7l-0.3-2.6l-0.6-1.7l-0.3-3l-0.6-1.7l-0.3-3l0.6-1.5l2.1-1.1l3.5-0.7l1.7-0.6l4.7-0.5l1.9-1l0.3-1l-0.2-1.6l-1.5-0.6
	L539,148.6z M725.2,210.6l-4.9-1.2l-4.7-2.6l-3.8-3.4l-2-3.1l-0.9-3.2l1.2-2.2l2.6-1.3l3.5,0.2l3.5,0.9l4.4,2.1l1.4,1l5.2,4l4,4.7
	l0.8,2.7l-0.4,1.2l-1.8,0.9L725.2,210.6z M586,143.8l-2.2-1.5l-0.9-1.8v-3l1.1-2l1.5-1.9l3.9-2l4-0.1l4.2,1.3l9.6,5.5l1.4,1l3.3,2.4
	l1.2,1.9l-0.2,0.7l-4.8,0.5l-10.9-0.6l-2.1,0.2L586,143.8z M586.7,126.1l-3,1.1l-2.6,1.6l-2.4,2.4l-1.8,3.7l-0.4,2.8l0.5,4.8l-0.5,1
	l-2.4,1l-5.6,0.6l-2.1,0.7l0.6,2.7l2,0.7l7.9,0.2l1.5,0.7l0.9,1.4l0.6,5.6l-0.3,1.8l0.4,3.4l-0.2,1.8l0.2,2.2l-0.3,1.7l0.4,3.9
	l-0.2,1.8l0.4,3.4l-0.7,4.2l-1.6,1.2l-1.8,1.9l0,1l1.2,1.3l4-0.1l1.8,0.2l2.6-0.3l1.8,0.2l2.1-0.2l1.8-0.9l0.5-1l-0.8-1.8l-2.6-1.2
	l-1.5-1.7l-0.5-6.5l0.2-1.8l-0.3-2.6l0.2-1.8l-0.3-3l0.3-1.8l-0.3-3l0.3-7.9l0.7-1.5l1.4-0.9l3.9-0.4l13.5,0.6l14.2,1.5l2,1.1
	l1.5,2.2l0.6,3.4l-0.5,2.5l-0.6,0.9l-0.8,1.7l-2.3,2l-2.4,1.1l-2.8,0.6l-2.5-0.5l-1.7-1l-4-3.9l-2.4-0.3l-1.8,1.2l0.1,3.6l8.8,18.5
	l2,2.7l2.2,1.1l9.9,2l3.4-0.4l0.7-0.8l-0.2-1.9l-1.8-1.4l-4.3-1l-4.2-1.3l-1.9-1.9l-2.8-5.6l-0.3-3.2l1-0.5l5.6-0.9l4.4-2.1l2.2-2.2
	l2.3-3.3l0.9-3.7l-0.1-4l0.5-2.4l3.1-0.6l13.9,2.3l23.1,5.8l8.3,2.9l3.7,1.1l1.9,1l2.3,0.8l1.3,1l0.3,2.9l-1.3,3.9l-1.6,2.6
	l-1.4,0.9h-2.6l-4.7-1.6l-12-4l-2.5,0.3l-1,1.3l0.1,3.3l0.6,1.7l0.4,3.4l-0.5,2.5l-1.1,2.2l-2.6,2.9l-2.8,0.9l-2.5-0.3l-2.2-1.1
	l-2-2.3l-1.7-3.4l-0.8-5.3l0.3-2.4l-0.1-3.3l-0.9-1.5l-1.8-0.7l-1.9,0.8l-0.7,1.7l-0.7,4.7l0.7,6.9l1.1,3.4l2.6,3.9l3.4,3l3.1,1.4
	l6,0.9l2.9-0.6l3-1.5l2.2-2.1l2.1-3.6l1.5-7.7l0.8-0.4l1.8-0.2l6.2,2l3.5,1.8l0.3,3l-2.7,7.5l-1.8,1.9l-2.4,0.5l-1.5,0.9l-0.2,0.8
	l0.1,1.4l1.3,1l10,4.2l2.2,0.4l1.2-1.2l-0.2-1.7l-1.3-1.6l-0.9-1.8v-2.6l2.6-7l1-3.7l1-1.7l1.1-3.7l1-1.7l0.7-2.5l0.6-1.2l0.8-2.3
	l1.5-2.2l1.8-0.4l1.8,0.2l7.1,2.9l1.4,1l5.3,2.2l10.3,5.4l1.4,1l2.6,1.2l10.8,6.3l5,3.8l0.3,1.9l-0.4,1.9l-2.5,3.9l-2.4,0.2
	l-0.7-0.8l-1.8-1.6l-3.6-3.8l-2.8-2l-1-0.8l-3.8-2.6l-1.4-1l-6.2-2.4l-5.3-0.9l-4.4,1.1l-1.6,1.3l-1.5,1.2l-1.1,2.1l-0.5,2.5
	l0.5,4.7l1.6,3.8l3,3.9l4.3,3.8l3.1,1.9l6.4,2.8l6.5,1.2l1.5,0.7l0.3,1.3l-0.8,2.1l-1.4,1l-3,0.6l-1.3,0.8l0.2,1.7l1.9,1.8l7.8,5.3
	l2,0.1l0.5-0.8l-0.1-1.9l-0.6-1.4l-0.4-2l0.7-2.8l10-15.6l0.8-1.7l3-4.2l1.9-1.2l2.4,0.8l1.9,1.4l2.5,1l2-0.2l0.5-1.1l-0.5-2.3
	l-1.9-1.5l-2.6-1.5l-3-3.5l-1.6-3.5l-0.8-4.4l1.2-3.8l1.6-1.5l2.2-1h2.8l1.8,1.1l1.5,1.9l1.3,3.2l1,1.5l1.3,1l1.9-0.2l1-1.7V184
	l-1.5-3.6l-3-3.5l-3.6-2.1l-3.1-0.5l-3.8,0.1l-2.8,1l-2.7,2l-1.5,2.2l-1.4,3.5v2.6l-0.5,2l-0.7,0.2l-2.7-0.3l-0.6-0.7l-10.2-5.6
	l-1.4-1l-4.1-1.9l-1.4-1l-2.7-1.2l-1.4-1l-21.8-9.9l-13.4-4.8l-3.3-1.2l-19.8-5.8l-22.6-5l-4.1-0.6l-6.8-1.4l-4.6-3.4l-2.1-2
	l-1.7-0.8l-3-2.6l-1.7-0.8l-1.6-1.4l-6.8-4.5l-8.7-3.9l-5.9-1.1L586.7,126.1z M579.6,107.8l1.8,0.2l4.8-0.2l2.6,0.3l3.6-0.1l0.7,0.4
	l2.6-0.4l13.5,0.5l19.9,1.8l21.6,3.4l17.2,3.9l6.7,1.8l13.5,4l3.3,1.2l7.3,2.3l1.9,1l4.5,1.4l1.8,1l6,2.1l6.7,3.1l8.4,3.6l4.9,2.4
	l2.8,1.1l5.7,3.2l2.6,1.2l6,3.3l1.4,1l3.2,1.6l1.9,1.4l2.3,1.2l1.4,1l5.6,3.4l1.4,1l3.2,2l1.4,1l6.6,4.5L795,181l15.3,13.3l1.2,1.5
	l2.2,1.7l1.2,1.5l1.8,1.5l5.3,5.3l1.2,1.5l1.3,1.1l5.1,5.6l1.3,1.2l7.4,8.4l1.7,2.4l4.3,4.9l5.7,7.5l1.3,1.6l1.2,2.2l4.4,5.9l13,20
	l1.8,3.5l7.3,13.2l11.8,24.9l10,28.3l3.1,10l0.6,2.8l0.8,2.2l0.6,2.9l0.8,2.2l3.3,15.3l0.5,4.8l0.6,1.7l1,9l0.6,1.7l1.4,14.2
	l-0.1,1.7l0.5,3.2l-0.2,1.1l0.8,7.3l-0.3,1.8l0.6,6l-0.2,1.8l0.3,2.6l-0.2,1.8l0.4,3.4l-0.2,1.8l0.2,2.1l-0.4,8.3l0.1,3.9l-0.5,5.3
	v3l-2.6,21.2l-4.3,25.3l-5.9,22.4l-5.6,17.2l-5.1,13.6l-2.4,5.2l-4,9.4L875,594.3l-1,1.4l-1.9,3.7l-1,1.4l-10.2,16.7l-1.4,1.9
	l-2.8,4.2l-1,1.4l-9.3,12.7l-1.4,1.6l-0.8,1.7l-5.3,6.2l-11.4,13l-1.5,1.2l-1.2,1.7l-1.5,1.2L821,667l-3.6,2.7l-1.2,2.1l-1.4,1.2
	l-1.6,1.8l-9.1,8.4l-0.1,0.4l-1.9,1.2l-7.2,6.3l-10,8l-8.1,5.8l-1.1,0.8l-2.2,1.2l-1.1,0.8l-2.2,1.2l-4.9,3.4l-3.4,1.8l-7.6,5
	l-6.3,3.4L728,732.9l-2.1,0.8l-3.9,2l-22.4,8.9l-20,6.5l-14.8,4l-2.1,0.2l-1.7,0.6l-6.8,1.2l-4.4,1.2L644,759l-1.7,0.6l-8.6,0.9
	l-0.8,0.5l-5.2,0.5l-3.1-0.1l-1.7,0.6l-12.5,1.3l-1.8-0.2l-5.6,0.6l-1.4-0.1l-4.6,0.3l-1.8-0.2l-3,0.3l-4.1-0.3l-3.8,0.2l-1.8-0.2
	l-2.6,0.3l-20.3-1.2l-4.7-1h-2.9l-20.9-3l-26.1-5.5l-23.9-7.5l-19.5-7.5l-4-2l-5-2.2l-4.1-2l-2.8-1.2l-2.9-1.7l-4.9-2.3l-2.9-1.7
	l-2.6-1.2l-16.2-9.6l-1.4-1l-5.1-3.1l-1.4-1l-3.3-2l-3.5-2.5l-1.7-0.9l-5-4.1l-1.7-0.8l-2.5-2.2l-1.7-0.8l-3.5-3l-1.7-0.8l-5.5-5
	l-3.3-2.7l-2.4-2.3l-2.4-1.7l-10-9.3l-6.3-6.4l-6.9-7.1l-1.7-2.3l-1.3-1.2l-12.9-15.2l-4.8-6.8l-1.3-1.2l-1.3-2.2l-2.3-3l-8.3-12.2
	l-7.4-12.3l-8-14.4l-7.8-15.9l-8.8-21.8l-7.5-22.9l-0.6-2.8l-0.8-2.2l-0.7-3.4l-0.8-2.5l-3.3-14.5l-0.4-3.4l-0.6-1.7l-0.5-4.3
	l-0.6-1.7l-0.5-5.2l-0.8-3l-2.4-22.4l0.3-1.8l-0.8-7.7l0.3-1.7l-0.5-4.3l0.2-1.8l-0.2-2.2l0.3-5.2l-0.2-2.2l0.3-4.8l-0.2-2.2
	l0.5-7.4l-0.1-3.5l2.2-20.7l4-23.5l5.5-22.6l6.5-20.7l1.9-5.1l0.8-2.4l9.7-23.2l1-1.4l3.3-7.3l7.2-13l5.3-9.3l1.4-1.9l3.8-6.5
	l1.4-1.9l2.8-4.2l1.4-1.9l3.5-5.1l2.1-2.9l9.7-12.8l2.2-2.1l2.4-3.1l1.5-1.2l0.7-1.3l10.9-12l3.5-3.6l1.2-1.3l10-9.8l1.5-1.2
	l7.6-6.8l8.1-7l7.1-5.2l2-1.8l2.2-1.2l3.5-2.8l17.5-11.4l1.7-0.8l0.8-0.8l2.5-1.3l0.8-0.8l8-4l4.3-2.5l18.6-9.3l19.9-8.2l19.1-6.4
	l23.3-6.2l2.2-0.2l1.7-0.6l2.1-0.2l1.7-0.6l2.1-0.2l1.7-0.6l6-0.6l1.7-0.6l7.3-0.8l1.7-0.6l22.8-2.4l1.8,0.2l6-0.6l1.8,0.3
	L579.6,107.8z M584.3,102.9l-1.8-0.2l-2.1,0.2l-1.8-0.3l-14.6,0.8l-1.4,0.4h-2.9l-2.7,0.6l-9,1l-1.4,0.4h-1.3l-1.1,0.4l-9,1l-15.8,3
	l-1.4,0.7l-5.9,0.8l-22.4,6.2l-15,5.1l-11.4,4.5l-3.9,1.4l-20.6,9.6l-21.8,12.2l-14.7,9.4l-4.6,3.4l-6.8,4.8l-12.2,10l-1.2,1.3
	l-3.1,2.2l-8.6,7.7L349.5,205l-0.8,1l-0.8,1l-11.2,12.5l-0.8,1.7l-2,1.7l-0.8,1.2l-1.2,1.1l-8.4,10.9l-1.1,1l-0.8,1.7l-2.2,2.5
	l-0.8,1.6l-1.4,1.6l-4.2,6.6l-1,1.4l-2,3.3l-1.4,1.9l-7.1,12.1l-3.6,6l-1.2,2.8l-1.7,2.8l-1.2,2.8l-1,1.4l-1.5,3.6l-1,1.9l-1.2,2.7
	l-2.8,5.4l-2.6,6.1l-1,1.8l-0.8,2.3l-2,4.1l-1.7,5.5l-0.6,1.3l-0.5,1.5l-1.5,4.2l-5.6,17.1l-0.7,3l-1.5,5.1l-2.2,9.2l-1.7,6.9
	l-4.1,23.2l-2.2,20.7l-0.8,12l0.3,2.6l-0.3,1.8l0.2,2.1l-0.2,1.8l0.3,2.6l-0.5,7.5l0.6,5.6l-0.3,1.8l0.5,4.7l-0.3,1.8l1.4,12.9
	l-0.2,1l0.4,1.1l1.9,18.5l0.6,1.7l0.4,3.9l0.6,1.7l0.4,3.9l4.2,19.2l0.8,2.5l0.6,3l3.8,12.5l3.5,9.7l2.8,8.7l9.2,21.5l7.7,15.7
	l2.5,4.2l2.4,4.7l3.5,5.6l1.8,3.4l1.8,2.3l1.8,3.2l8.8,13.3l2.9,3.6l1.2,2l1.8,2l1.7,2.4l9,11.2l0.9,0.8l1,1.7l5.8,5.9l1.7,1.5
	l3.7,4.7l5.9,6.1l1.3,1.2l1.2,1.5l7.7,7.2l16.8,14.4l10.4,8.1l1.9,1.4l1.7,0.8l2,1.8l1.7,0.8l1.6,1.4l4.2,2.8l1.9,1.4l7.5,4.6l1.4,1
	l2.3,1.2l1.4,1l3.7,1.9l1.4,1l6.9,4.1l2.6,1.2l4.3,2.5l10.7,5.1l5.7,2.8l2.4,0.8l4.1,2l1.8,0.4l2.6,1.3l18.6,6.8l18.9,5.8l13.8,3.4
	l23.8,4.5l23.7,2.8l3.8-0.1l1.8,0.4l13.1,0.7l2.2-0.2l5.2,0.3l3.5-0.4l1.8,0.2l2.6-0.3l1.8,0.3l6-0.6l1.8,0.2l24.6-2.6l2.6,0.2
	l2.9-1.2l7.3-0.8l2.5-0.7l3.5-0.4l17.8-4l2-0.8l3.1-0.6l2.2-0.9l2.8-0.6l1.7-0.7l2.6-0.6l15.6-5l10.3-3.7l8.1-3.3l6.2-2.5l1.4-0.8
	l3.3-1.4l15.2-7.7l13.6-7.5l2.7-1.9l1.4-0.7l7.3-4.7l17.9-12.3l16.4-12.6l1.2-1.3l5.2-4.2l1.2-1.3l2.3-1.7l10.4-10.2l1.5-1.8
	l1.5-1.2l1.3-1.7l1.5-1.2l9.8-11l10.3-12.4l11.6-15.6l1.4-1.9l10.2-15.9l1.4-1.9l1.2-2.3l1.4-1.9l4.5-8.8l1-1.4l1.6-3.2l6.3-12.7
	l2.2-5.2l1-1.9l0.8-2.2l1-1.8l0.8-2.2l1-1.9l3.5-8.5l3.8-11.1l1.6-4.2l7-24.3l1.5-8.3l0.6-1.5l0.6-3.8l1.7-7.1l3.3-22.4V468l0.3-2.4
	v-2.9l0.3-2.4l0.1-6l0.5-5l-0.1-3.3l0.4-4.8l-0.2-2.2l0.3-2.6l-0.3-5.7l0.2-1.8l-0.3-3l0.2-1.8l-0.5-4.3l0.2-1.8l-0.8-7.8l-0.4-1
	l0.4-0.6l-0.2-2l0.1-2l-1.2-11.2l-0.6-1.7l-1.1-10.4l-0.6-1.6l-0.5-4.3l-4.9-22.1l-0.8-2l-1.4-5.7l-1.5-4.8l-0.6-2.8l-7.3-21.6
	l-8-18.6l-13.3-26.5l-0.8-1.1l-0.8-1.8l-9.4-15.4l-1.3-1.6l-0.8-1.7l-1.3-1.5l-7.9-11.9l-7.4-9.2l-1.2-2l-1.3-1.2l-6.1-7.2l-1.8-1.6
	l-1.7-2.3l-7.9-8.5l-1.3-1.2l-4.6-4.7l-1.3-1.2l-3.6-3.6l-2.7-2.3l-4.5-4.3l-1.3-1.1l-9.3-8.2l-2.9-2.6l-1.7-0.9l-2.1-1.8
	l-14.6-10.8l-1.9-1.4l-10.7-6.8l-1.4-1l-20.8-11.8l-22.3-10.7l-12.1-5l-7-2.6l-17.1-5.6l-19.7-5.3l-12.3-2.6l-17.6-2.9l-24.5-2.6
	h-3.3l-2.1-0.4l-6.2-0.1l-2.7-0.2l-3.9,0.1l-4.8-0.4L584.3,102.9z M586.8,85.7l1.8,0.2l2.2-0.2l7.9,0.5h7l28.7,2.7l25.1,4.3
	l20.4,4.8l10.5,3.1l6.6,2.1l4.6,1.5l12.5,4.5l3.5,1.6l6,2.1l3.5,1.7l12,5.4l5.2,2.8l8.5,4l1.4,1l10.7,6l1.4,1l5.5,3l1.4,1l7.4,4.6
	l1.4,1l13.6,9.7l1.6,1.4l1.7,0.8l14.3,11.6l1.7,2.3l1.9,1.5l1.7,0.9l12,10.8l13.7,13.8l1.2,1.6l7.7,8.5l1.2,1.5l11.9,14.9l2.2,3.4
	l4.4,5.9l2.3,3.8l2.4,3.1l8.3,12.2l13.3,23.8l11.3,24.4l1.4,3.9l2.7,6.1l8.2,24.1l3.3,12.3l0.7,3.4l1.5,5.1l3.5,16.6l0.5,4.7
	l0.6,1.7l0.8,7.3l0.6,1.7l2.6,24.1l-0.2,1.8l0.5,4.7l-0.3,1.8l0.7,6.9l-0.3,1.8l0.3,2.6l-0.2,1.8l0.3,2.6l-0.3,1.8l0.3,2.6l-0.2,1.8
	l0.2,2.1L936,465l-2.3,20.3l-3.2,18.9l-3.3,14.6l-0.6,1.5l-0.6,3.6l-5.5,18.3l-4.7,13.8l-1,1.9l-2.5,6.9l-1.6,3.5l-1.8,5.1l-2.4,4.9
	l-0.8,2.3l-1,1.8l-2.2,5l-7.5,15.2l-1,1.4l-2.3,4.6l-1,1.4l-13.1,21.4l-1.8,2.1l-0.8,1.7l-1.8,2.1l-0.8,1.7l-1.4,1.9l-3.4,4.7
	l-0.8,0.7l-0.8,1.7l-6.4,7.8l-0.5,1.2l-1.5,1.2l-1.6,2.3l-10.1,11.8l-1.5,1.2l-1.5,1.8L832,686.3l-1.5,1.2l-1.2,1.3l-2.8,2.6
	l-1.2,1.3l-2,1.7l-1.2,1.3L807,708.5l-16.5,12.6l-24,16l-10.3,5.6l-1.1,0.8l-28,13.4l-8.4,3.2l-1.3,0.9l-18.2,6.7l-12.4,3.6
	l-9.8,2.9l-6.4,1.4l-2.5,0.8l-3.8,0.7l-2.5,0.9l-3.4,0.4l-1.7,0.6l-3.4,0.4l-1.7,0.6l-5.2,0.5l-1.7,0.6l-9,1l-0.8,0.5l-1.2-0.2
	l-1,0.4l-23.7,2.5l-1.8-0.2l-3.5,0.4l-11.3-0.1l-3.4,0.3l-1.8-0.3l-2.1,0.2l-7.9-0.5l-6.4-0.1l-2.3-0.3h-2.9l-18.8-2l-14-2l-3.4-0.8
	l-7.6-1.1l-20.5-4.4l-29.4-9.1l-1.8-1l-7-2.5l-2-0.9l-3.4-1.1l-3.5-1.7l-2.3-0.8l-1.8-1l-11.6-5l-23.4-12.4l-1.4-1l-6.5-3.4l-1.4-1
	l-17.3-11.4l-1.9-1.4L369,707.9l-10-8.4l-5.5-5.1l-2.7-2.1l-1.2-1.5l-2.7-2l-1.1-1.5l-1.3-1.2l-12.2-12.3l-1.7-2.3l-1.3-1.2
	l-2.2-2.8l-1.3-1.2l-13.5-16.6l-11.7-15.6l-1.2-2.1l-1.3-1.6l-11-17.8l-9.1-16l-7.3-15.8l-10.6-26.6l-2.1-6.5l-1.6-3.9l-3.8-12.5
	l-0.9-4.7l-2.1-7.2l-4.3-20l-0.5-4.7l-0.6-1.7l-0.9-8.2l-0.7-1.7l-2.7-25.5l0.2-1.8l-0.7-7.3l0.2-1.8l-0.3-2.6l0.3-1.8l-0.3-5.6
	l0.3-2.6l-0.3-2.6l0.4-4.8l-0.1-3.9l0.8-6.2l-0.2-4.5l2.1-21.6l3.8-22l1.5-7.1l4.5-19.1l3.9-13l2.6-8l0.6-0.9l1.1-3.8l5.8-14.8
	l1-1.9l0.8-2.4l1.7-3.5l0.8-2.3l1-1.8l1.1-2.7l10.1-20.2l1-1.4l4.9-8.8l1-1.4l2.3-4.2l1-1.4l4.6-7.5l2.2-2.8l4.2-6.5l1.8-2.1
	l0.8-1.7l2.2-2.9l5.5-7.2l1.4-1.7l3.9-5.2l2.2-2.1l4.4-5.5l1.5-1.2l1.3-1.7l1.5-1.2l0.4-1.2l1.5-1.1l1.7-2.2l1.5-1.2l1.2-1.3
	l6.3-6.5l1.2-1.3l13.2-12.3l1.5-1.2l5.2-4.7l0.8-1l2-1.3l14.9-11.9l16.2-11.3l2.2-1.2l1.7-1.3l18-10.6l19-9.9l6.7-3l9.4-4.3
	l23.1-8.5l14.9-4.5l2.7-0.6l2-0.8l9.3-2.2l2.2-0.8l2.1-0.2l1.6-0.7l2.6-0.3L517,93l2.6-0.3l1.7-0.6l2.2-0.2l1.7-0.6l6-0.6l1.7-0.6
	l8.2-0.9l2.5-0.7l18.1-1.9l1.8,0.2l7.4-0.7l1.8,0.3l3.9-0.4l1.8,0.3l3.4-0.4l1.8,0.2L586.8,85.7z M588.5,77.2l-5.7-0.3l-3.4,0.4
	l-1.8-0.2l-5.1,0.5l-1.8-0.3l-11.5,1.1h-2.7l-13.8,1.4l-18.4,2.8l-5.1,1.4l-3.5,0.4L514,85l-2.1,0.2l-4.6,1.4l-2.2,0.2l-10.5,2.7
	l-5,2.1l-4.9,0.8L476,95l-17.1,6.2l-14.9,6.3l-18.7,8.9l-3,1.9l-2.1,0.8l-17.1,9.6l-1.8,1.4l-3.1,1.8l-8.8,5.7l-3,3.2l-5.1,2.4
	l-21.6,16.7l-0.8,1.7l-1.7,0.8l-7.6,6.7l-1.4,1.2l-14,13.6l-1.5,1.8l-1.5,1.1l0.2,2l-0.4,0.6l-0.7-0.8l-0.9,0.1l-10.9,12l-6.4,7.7
	l-4.2,5.7l-4.2,5.3l-7,9.9l-2.6,3.3l-0.8,1.7l-2.9,3.9l-4.1,6.5l-0.4,1.5l-1.4,1.8l-2,3.2l-1,1.4l-1.2,2.3l-1,1.4l-4,7.4l-1.2,2.6
	l-4.6,8.5l-3.3,7.3l-2.4,4.6L263,289l-1.3,2.3l-0.8,2.3l-1,1.8l-0.4,1.5l-0.6,1.2l-0.8,2.2l-1.7,3.5l-6.4,17.7l-6.1,21.1l-4.9,19.5
	l-2.6,12.9l-1.9,14.9l-0.9,9.5l-1,5.2l-1.6,25l0.2,2.1l-0.2,1.8l0.2,2.1l-0.2,1.8l0.3,3l-0.2,1.8l0.5,4.7l-0.2,1.8l0.4,3.9l-0.2,1.8
	l0.7,6.9l-0.2,1.8l2,19l0.4,1v1l0.5,2.3l0.6,6l0.6,1.7l0.9,8.2l0.6,1.7l0.4,3.5l2.1,8.4l0.2,2.2l0.6,1.7l0.2,2.1l5.3,18.6l7,20.8
	l2.7,6.5l3.2,8.8l2,3.9l1.4,3.6l11.6,23.2l4.1,7.1l4,7.6l10.3,15.9l9.7,13.8l1.3,1.6l3.7,5.1l15.9,18.9l1.3,1.2l1.2,1.5l14.6,14.7
	l1.7,1.5l1.2,1.5l1.7,1.3l1.2,1.5l1.7,0.8l0.7,1.1l12.4,10.6l6.2,5.3l1.7,0.8l5.9,4.9l1.7,0.8l1.6,1.4l1.7,0.8l5.8,4l1.7,0.8l3,2.6
	l7.5,4.6l1.9,1.4l4.2,2.3l1.9,1.4l3.7,1.9l1.4,1l4.6,2.3l1.4,1l3.7,1.9l1.4,1l12.2,6.1l4.4,1.9l3.4,1.7l12,5l6.2,2.7l6.8,2.3
	l15.8,5.3l12.4,3.5l7.1,1.6l2.4,0.9l14.1,3.3l15,2.8l3.3,0.4h103.5l2.2-0.2l1.7-0.6l6.5-0.7l1.7-0.6l3-0.3l5.1-1.4l3.4-0.4l12.7-3.1
	l7-2.2l3.6-0.7l20.3-6.8l7-2.8l2.6-0.5l11.3-4.5l6.4-3.1l3.3-1.4l13.5-6.6l17.3-9.7l5.3-3.2l17.5-11.4l5-3.8l3-1.8l16.7-13.1
	l2.1-2.3l2.3-1.7l3.7-3.7l1.5-1.2l6.1-5.9l1.2-1.3l2-1.2l2.4-2.3l1.5-1.2l6.8-7.2l5.5-5.8l10.9-12.5l0.7-1.2l0.8-0.7l8.5-10.9l1-1.4
	l6.6-9l1-1.4l0.8-1.7l1.4-1.6l2.8-4.2l1-1.4l2-3.3l1-1.4l5.7-9.3l1-1.4l2.3-4.6l1.4-1.9l7.7-14.2l6.5-14.3l2.1-4l8.6-21.8l1.1-3.7
	l1-1.8l0.4-1.8l1-1.7l0.7-3.4l1.6-4.2l3-10.3l1.8-6.3l2.7-11.9l3.4-17.4l2.3-15.3v-2.8l0.6-4.1l1.2-20.4l-0.1-4.8l0.3-4.8l-0.3-2.6
	l0.4-8.8l-0.3-3l0.3-1.8l-1-9.9l0.2-1.7l-3-28.9l-0.6-1.7l-0.5-5.2l-0.6-1.7l-0.7-6.9l-0.6-1.7l-0.3-2.6l-4-17l-0.8-2.5l-0.7-3.4
	l-5.2-17.8l-2.9-8.3l-2.1-6.3l-6.5-16.1l-3.2-6.9l-1.4-3.3l-4.2-7.8l-3-6.6l-1.4-2.2l-1.3-2.8l-4.6-7.5l-1.3-2.7l-10.4-16.6
	L874,219.3l-3.3-4.3l-2.2-3.2L855,196.1l-1.3-1.2l-7.5-8.4l-1.3-1.2l-1.2-1.5l-12.1-11.5l-1.3-1.2l-5.5-5.1l-1.2-1l-11.6-9.8l-1-0.8
	l-1-1.1l-1.2-0.4l-3-2.6l-9.9-7.4l-1.9-1.4l-1.7-0.8l-1.5-1.5l-1.7-0.8l-1.6-1.4l-10.7-6.9l-1.4-1l-3.7-1.9l-1.4-1l-9.8-5.5
	l-1.7-0.9l-6.2-3.5l-2.7-1.2l-7.7-3.8l-7.4-3.3l-3.5-1.7l-13.7-5.5l-3.7-1.1l-1-0.6l-9.7-3.3l-19.8-6.2l-21.4-5.2l-4.1-0.6l-3.7-0.8
	l-16-2.7l-23.9-2.7l-23-0.9L588.5,77.2z"/>
</svg>
