<?xml version="1.0" standalone="no"?>
<!DOCTYPE svg PUBLIC "-//W3C//DTD SVG 20010904//EN"
 "http://www.w3.org/TR/2001/REC-SVG-20010904/DTD/svg10.dtd">
<svg version="1.0" xmlns="http://www.w3.org/2000/svg"
 width="625.000000pt" height="625.000000pt" viewBox="0 0 625.000000 625.000000"
 preserveAspectRatio="xMidYMid meet">

<g transform="translate(0.000000,625.000000) scale(0.100000,-0.100000)"
fill="#000000" stroke="none">
<path d="M2030 5494 c-652 -157 -1065 -261 -1080 -272 -14 -10 -33 -34 -43
-53 -16 -32 -17 -131 -15 -1734 l3 -1700 34 -50 c63 -91 149 -191 258 -300
429 -428 1042 -756 1747 -936 l164 -41 148 37 c705 176 1307 495 1748 924 130
128 269 293 297 356 18 38 19 112 19 1717 0 1843 4 1733 -59 1777 -17 12 -404
110 -1091 275 -586 141 -1067 256 -1070 255 -3 0 -480 -115 -1060 -255z m1767
-30 c357 -85 806 -193 998 -239 193 -47 360 -87 373 -90 l22 -5 0 -1682 0
-1681 -57 -76 c-75 -101 -303 -328 -432 -430 -394 -312 -888 -550 -1438 -695
l-133 -35 0 28 c0 26 4 28 98 50 142 34 455 140 622 211 508 216 950 534 1224
881 l66 83 0 1653 0 1653 -22 5 c-13 3 -423 102 -913 219 -490 118 -932 224
-982 236 -86 20 -93 24 -93 46 0 13 4 24 10 24 5 0 301 -70 657 -156z m-460
-363 c87 -41 146 -100 190 -189 35 -70 37 -81 37 -166 0 -70 -5 -104 -23 -149
-32 -81 -114 -168 -199 -209 -62 -31 -74 -33 -167 -33 -92 0 -106 3 -167 32
-84 40 -151 107 -192 193 -28 59 -31 74 -31 160 1 75 5 107 24 152 42 108 168
214 283 238 73 15 176 3 245 -29z m-992 -1641 c116 -45 195 -155 195 -272 l0
-38 -139 0 -138 0 -6 41 c-7 56 -34 81 -94 86 -128 13 -187 -91 -85 -150 18
-11 84 -39 146 -62 147 -56 189 -78 241 -126 106 -98 108 -286 4 -387 -141
-139 -471 -145 -623 -12 -51 46 -86 117 -93 196 l-6 64 142 0 141 0 0 -30 c0
-70 45 -110 124 -110 60 0 101 17 114 45 26 58 -26 101 -193 161 -170 60 -248
113 -291 196 -23 44 -30 156 -14 213 24 87 119 168 230 200 83 23 267 15 345
-15z m896 14 c118 -35 200 -95 261 -188 60 -94 83 -179 82 -316 0 -137 -23
-224 -82 -316 -136 -211 -438 -274 -666 -140 -99 58 -188 188 -215 314 -16 75
-14 227 4 297 46 179 165 304 333 350 68 19 217 18 283 -1z m606 -6 c5 -7 38
-82 73 -165 35 -84 67 -149 71 -145 4 4 36 77 72 162 l64 155 156 3 c87 1 157
0 157 -2 0 -3 -59 -116 -131 -253 -72 -136 -131 -252 -132 -258 0 -5 61 -120
136 -255 l137 -245 -147 -3 c-81 -1 -152 -1 -158 2 -6 2 -42 71 -79 152 -38
82 -71 152 -75 156 -3 4 -39 -65 -80 -152 l-73 -160 -154 0 c-85 0 -154 3
-154 6 0 3 56 105 124 227 68 122 130 234 136 248 11 25 3 45 -119 274 -72
136 -131 251 -131 256 0 15 296 11 307 -3z"/>
<path d="M3097 5090 c-101 -26 -206 -113 -250 -208 -17 -37 -22 -66 -22 -137
0 -82 3 -97 33 -157 145 -295 578 -248 658 72 53 208 -100 417 -316 434 -36 3
-82 1 -103 -4z m211 -258 c15 -22 12 -26 -85 -122 -54 -55 -104 -100 -109
-100 -14 0 -92 68 -104 91 -14 26 4 59 32 59 12 0 32 -10 45 -22 l23 -21 75
72 c78 76 97 83 123 43z"/>
<path d="M3036 3265 c-52 -18 -90 -57 -117 -119 -20 -44 -23 -68 -24 -171 0
-125 10 -172 49 -231 49 -75 145 -103 228 -66 89 39 129 127 129 287 0 116 -4
141 -37 207 -25 49 -58 78 -113 96 -43 15 -67 14 -115 -3z"/>
</g>
</svg>
